<?xml version="1.0" encoding="utf-8"?>
<!-- Generator: Adobe Illustrator 23.1.1, SVG Export Plug-In . SVG Version: 6.00 Build 0)  -->
<svg version="1.1" id="Layer_1" xmlns="http://www.w3.org/2000/svg" xmlns:xlink="http://www.w3.org/1999/xlink" x="0px" y="0px"
	 viewBox="0 0 96 125" style="enable-background:new 0 0 96 125;" xml:space="preserve">
<style type="text/css">
	.st0{fill:#FFFFFF;}
	.st1{stroke:#FFFFFF;stroke-miterlimit:10;}
	.st2{stroke:#FFFFFF;stroke-width:2;stroke-miterlimit:10;}
</style>
<path class="st0" d="M69.61,123c-2.3-0.68-2.3-0.68-2.3-2.99c0-3.97,0-7.94,0-12.16c-1.29,0-2.45-0.04-3.6,0.01
	c-0.91,0.05-1.38-0.24-1.72-1.16c-1.01-2.8-2.94-4.06-5.28-3.63c-3.16,0.57-5.49,3.03-5.5,5.81c0,4.03-0.03,8.07,0.03,12.1
	c0.02,1.22-0.36,1.67-1.63,1.67c-4.12,0.01-4.12,0.05-4.12-3.99c0-3.47,0.09-6.95-0.06-10.42c-0.04-0.99-0.59-2.15-1.29-2.87
	c-0.82-0.85-1.99-1.46-3.11-1.92c-2.68-1.09-5.1-0.1-6.12,2.63c-0.52,1.38-1.16,1.86-2.65,1.81c-3.19-0.11-2.82-0.5-2.83,2.82
	c-0.01,3.19,0,6.39,0,9.58c0,2.2,0,2.2-2.37,2.5l-0.63-0.06c-2.63,0.31-2.35-1.27-2.34-2.76c0.02-10.2-0.01-20.4,0.05-30.59
	c0.01-1.31-0.41-2.09-1.47-2.88C7.85,75.35,1.57,60.4,5.03,42.31C8.42,24.62,19.49,12.95,36.96,8.23
	c24.9-6.72,50.09,9.59,54.19,35.05c2.82,17.49-3.22,31.79-17.16,42.72c-0.99,0.77-1.43,1.49-1.41,2.75
	c0.07,5.32,0.03,10.65,0.03,15.97c0,0.61,0.88,1.31,0.11,2.8c0,4.65,0,9.16,0,14.04c-0.56,0.51-0.56,1.84-2.47,1.2L69.61,123z
	 M70.91,99.08c0.06-0.24,0.14-0.4,0.14-0.55c0.01-17.42,0.01-34.85,0.03-52.27c0-1.19-0.66-1.62-1.65-1.67
	c-1.45-0.08-2.91-0.05-4.37-0.09c-6.03-0.17-9.19-2.89-10.19-8.82c-0.31-1.86-0.46-3.74-0.69-5.72c-2.12,0-4.12,0-6.13,0
	c-2.05,0-4.11,0-6.16,0c-0.19,1.94-0.29,3.67-0.53,5.38c-0.83,5.97-4.06,8.89-10.08,9.16c-0.78,0.03-1.57,0.02-2.35,0.02
	c-2.96,0-3.31,0.34-3.31,3.25c0,16.53-0.01,33.05,0,49.58c0,0.55,0.05,1.09,0.07,1.75C40.8,99.08,55.79,99.08,70.91,99.08z
	 M72.62,84.9c12.79-8.51,21.67-27.05,15.94-46.36c-5.7-19.2-24.59-32.47-45.59-29.99c-19.2,2.27-35.13,17.6-37.15,38
	c-1,10.06,1.41,19.34,7.03,27.75c2.95,4.42,6.6,8.17,11.26,11.32c0-3,0.07-5.63-0.04-8.25c-0.03-0.8-0.38-1.75-0.92-2.33
	c-7.43-8.01-10.76-17.39-9.64-28.3C15.56,26.73,34.95,12.44,54.7,16.6c12.85,2.7,21.79,10.34,26.02,22.76
	c4.36,12.8,1.76,24.49-7.1,34.76c-0.39,0.45-0.94,0.99-0.95,1.5C72.58,78.66,72.62,81.72,72.62,84.9z M72.7,72.67
	c11.05-12.02,12.13-32.66-1.94-46.18c-13.35-12.83-35.12-11.92-47.53,2.04c-12.67,14.26-10,34.33,0.78,44.9
	c0.05-0.39,0.12-0.7,0.12-1c-0.01-7.79-0.02-15.58-0.03-23.37c0-0.56-0.01-1.12,0-1.68c0.05-3.37,1.03-4.36,4.44-4.44
	c1.06-0.03,2.13,0.03,3.19-0.04c4.51-0.27,7.05-2.37,7.91-6.8c0.4-2.07,0.55-4.22,0.6-6.33c0.02-1.07,0.32-1.37,1.32-1.36
	c4.31,0.03,8.63,0.04,12.94,0c1.04-0.01,1.3,0.39,1.36,1.38c0.13,2.17,0.27,4.37,0.69,6.49c0.87,4.33,3.41,6.39,7.86,6.62
	c1.4,0.07,2.8-0.02,4.2,0.05c3.22,0.17,3.98,1.01,3.98,4.24c-0.01,7.96,0,15.92,0,23.87C72.61,71.5,72.66,71.93,72.7,72.67z
	 M70.93,121.12c0-6.89,0-13.58,0-20.32c-15.13,0-30.12,0-45.21,0c-0.04,0.47-0.1,0.85-0.1,1.22c-0.01,5.88,0,11.77-0.01,17.65
	c0,0.82-0.07,1.53,1.15,1.55c1.34,0.02,1.22-0.78,1.22-1.65c-0.01-3.36-0.02-6.72,0-10.09c0.02-3.52-0.51-3.09,3.14-3.06
	c1.28,0.01,2.09-0.18,2.68-1.58c1.04-2.42,3.57-3.63,6.06-3.3c3.04,0.4,6.61,3.02,7.09,5.24c0.09,0.43,0.07,0.89,0.08,1.34
	c0.01,2.35,0,4.71,0,7.06c0,1.94,0,3.89,0,5.87c1.03,0,1.82,0,2.76,0c0-3.94,0-7.74,0-11.55c-0.01-4.24,2.27-7,6.46-7.86
	c2.58-0.52,5.2,0.38,6.3,2.73c0.86,1.85,2,2.29,3.77,2.03c0.27-0.04,0.56,0.02,0.84-0.01c1.26-0.17,1.67,0.37,1.65,1.62
	c-0.06,3.75-0.03,7.51-0.02,11.26c0,0.6,0.06,1.19,0.09,1.85C69.66,121.12,70.26,121.12,70.93,121.12z"/>
<path class="st1" d="M70.91,99.08c-15.12,0-30.11,0-45.2,0c-0.03-0.65-0.07-1.2-0.07-1.75c0-16.53,0-33.05,0-49.58
	c0-2.91,0.35-3.25,3.31-3.25c0.78,0,1.57,0.01,2.35-0.02c6.03-0.27,9.25-3.18,10.08-9.16c0.24-1.71,0.34-3.44,0.53-5.38
	c2.05,0,4.1,0,6.16,0c2.01,0,4.02,0,6.13,0c0.23,1.98,0.38,3.87,0.69,5.72c1,5.93,4.16,8.64,10.19,8.82
	c1.46,0.04,2.91,0.01,4.37,0.09c0.99,0.06,1.65,0.48,1.65,1.67c-0.02,17.42-0.02,34.85-0.03,52.27
	C71.05,98.68,70.97,98.84,70.91,99.08z M55.57,59.69C55.57,59.69,55.58,59.69,55.57,59.69c0.01-2.75,0.04-5.49-0.02-8.24
	c-0.02-0.93-0.13-1.92-0.46-2.79c-1.33-3.43-4.74-5.29-8.38-4.68c-3.33,0.56-6.03,3.49-6.1,7.06c-0.12,5.77-0.04,11.54-0.03,17.31
	c0,0.33,0.08,0.67,0.14,1c0.73,3.94,4.24,6.51,8.36,6.11c3.6-0.35,6.47-3.6,6.49-7.37C55.59,65.3,55.57,62.49,55.57,59.69z
	 M51.5,35.31c0.01-1.86-1.58-3.45-3.42-3.43c-1.85,0.02-3.37,1.62-3.34,3.5c0.03,1.83,1.49,3.29,3.32,3.32
	C49.96,38.72,51.49,37.21,51.5,35.31z M48.07,84.01c1.9,0.01,3.43-1.5,3.43-3.38c-0.01-1.88-1.56-3.42-3.43-3.4
	c-1.79,0.02-3.29,1.52-3.33,3.32C44.69,82.45,46.18,83.99,48.07,84.01z"/>
<path class="st2" d="M72.62,84.9c0-3.19-0.05-6.24,0.04-9.29c0.01-0.51,0.57-1.05,0.95-1.5c8.86-10.26,11.46-21.95,7.1-34.76
	C76.49,26.94,67.55,19.3,54.7,16.6c-19.76-4.16-39.14,10.13-41.19,30.15c-1.12,10.92,2.21,20.29,9.64,28.3
	c0.53,0.58,0.88,1.53,0.92,2.33c0.11,2.62,0.04,5.25,0.04,8.25c-4.66-3.16-8.31-6.9-11.26-11.32c-5.61-8.41-8.03-17.7-7.03-27.75
	c2.03-20.39,17.96-35.72,37.15-38c21-2.49,39.89,10.79,45.59,29.99C94.29,57.85,85.41,76.4,72.62,84.9z"/>
<path d="M72.7,72.67c-0.04-0.74-0.09-1.17-0.09-1.59c0-7.96-0.01-15.92,0-23.87c0-3.23-0.76-4.07-3.98-4.24
	c-1.4-0.07-2.8,0.02-4.2-0.05c-4.45-0.23-6.98-2.28-7.86-6.62c-0.43-2.13-0.56-4.32-0.69-6.49c-0.06-1-0.32-1.39-1.36-1.38
	c-4.31,0.04-8.63,0.03-12.94,0c-1-0.01-1.3,0.29-1.32,1.36c-0.05,2.12-0.2,4.26-0.6,6.33c-0.86,4.43-3.4,6.53-7.91,6.8
	c-1.06,0.06-2.13,0.01-3.19,0.04c-3.42,0.08-4.4,1.07-4.44,4.44c-0.01,0.56,0,1.12,0,1.68c0.01,7.79,0.03,15.58,0.03,23.37
	c0,0.3-0.07,0.61-0.12,1c-10.79-10.57-13.45-30.64-0.78-44.9c12.41-13.97,34.18-14.87,47.53-2.04
	C84.83,40.01,83.75,60.65,72.7,72.67z"/>
<path d="M70.93,121.12c-0.68,0-1.27,0-2.05,0c-0.03-0.66-0.09-1.25-0.09-1.85c-0.01-3.75-0.04-7.51,0.02-11.26
	c0.02-1.24-0.4-1.79-1.65-1.62c-0.28,0.04-0.56-0.03-0.84,0.01c-1.77,0.27-2.91-0.18-3.77-2.03c-1.1-2.36-3.72-3.26-6.3-2.73
	c-4.19,0.85-6.46,3.62-6.46,7.86c0,3.8,0,7.6,0,11.55c-0.94,0-1.74,0-2.76,0c0-1.98,0-3.92,0-5.87c0-2.35,0.01-4.71,0-7.06
	c0-0.45,0.02-0.9-0.08-1.34c-0.47-2.22-4.05-4.84-7.09-5.24c-2.49-0.33-5.02,0.88-6.06,3.3c-0.6,1.39-1.4,1.59-2.68,1.58
	c-3.65-0.03-3.12-0.46-3.14,3.06c-0.02,3.36-0.01,6.72,0,10.09c0,0.87,0.12,1.67-1.22,1.65c-1.22-0.02-1.16-0.73-1.15-1.55
	c0.01-5.88,0-11.77,0.01-17.65c0-0.38,0.06-0.76,0.1-1.22c15.09,0,30.08,0,45.21,0C70.93,107.54,70.93,114.23,70.93,121.12z"/>
<path class="st0" d="M55.57,59.69c0,2.8,0.01,5.6,0,8.4c-0.02,3.77-2.89,7.02-6.49,7.37c-4.11,0.4-7.63-2.16-8.36-6.11
	c-0.06-0.33-0.14-0.66-0.14-1c-0.01-5.77-0.1-11.54,0.03-17.31c0.08-3.57,2.77-6.5,6.1-7.06c3.64-0.61,7.05,1.24,8.38,4.68
	c0.33,0.86,0.44,1.85,0.46,2.79C55.62,54.2,55.58,56.95,55.57,59.69C55.58,59.69,55.57,59.69,55.57,59.69z M42.09,59.64
	c0,2.69,0,5.37,0,8.06c0,0.11,0,0.22,0.01,0.34c0.13,3.17,2.53,5.73,5.54,5.92c3.24,0.21,5.92-1.9,6.37-5.15
	c0.2-1.43,0.18-2.9,0.18-4.35c-0.01-4.53,0.13-9.07-0.16-13.59c-0.22-3.52-3.02-5.63-6.44-5.4c-3.09,0.21-5.44,2.79-5.49,6.11
	C42.05,54.27,42.09,56.96,42.09,59.64z"/>
<path class="st0" d="M51.5,35.31c-0.01,1.9-1.54,3.42-3.44,3.39c-1.83-0.03-3.29-1.49-3.32-3.32c-0.03-1.88,1.49-3.48,3.34-3.5
	C49.92,31.85,51.5,33.45,51.5,35.31z M50.73,35.33c-1.16-0.87-1.78-1.66-2.53-1.81c-1.15-0.23-1.92,0.63-1.95,1.76
	c-0.03,1.15,0.78,1.99,1.89,1.82C48.9,36.99,49.54,36.18,50.73,35.33z"/>
<path class="st0" d="M48.07,84.01c-1.89-0.01-3.38-1.56-3.34-3.46c0.04-1.81,1.54-3.3,3.33-3.32c1.87-0.02,3.43,1.52,3.43,3.4
	C51.5,82.5,49.97,84.02,48.07,84.01z M50.25,80.96c0-0.25-0.01-0.51-0.01-0.76c-0.75-0.48-1.53-1.38-2.24-1.32
	c-0.64,0.05-1.59,1.09-1.69,1.8c-0.15,1.07,0.77,1.97,1.9,1.76C48.95,82.29,49.57,81.47,50.25,80.96z"/>
<path d="M42.09,59.64c0-2.69-0.03-5.37,0.01-8.06c0.05-3.32,2.4-5.9,5.49-6.11c3.42-0.23,6.22,1.88,6.44,5.4
	c0.28,4.51,0.15,9.06,0.16,13.59c0,1.45,0.02,2.92-0.18,4.35c-0.45,3.24-3.13,5.35-6.37,5.15c-3.01-0.19-5.41-2.75-5.54-5.92
	c0-0.11-0.01-0.22-0.01-0.34C42.09,65.01,42.09,62.33,42.09,59.64z"/>
<path d="M50.73,35.33c-1.19,0.85-1.83,1.66-2.58,1.77c-1.11,0.17-1.92-0.67-1.89-1.82c0.03-1.13,0.8-1.99,1.95-1.76
	C48.95,33.67,49.57,34.46,50.73,35.33z"/>
<path d="M50.25,80.96c-0.68,0.51-1.29,1.33-2.04,1.47c-1.13,0.21-2.05-0.69-1.9-1.76c0.1-0.71,1.05-1.75,1.69-1.8
	c0.71-0.06,1.49,0.84,2.24,1.32C50.24,80.45,50.24,80.7,50.25,80.96z"/>
</svg>
