<svg id="Layer_1" data-name="Layer 1" xmlns="http://www.w3.org/2000/svg" viewBox="0 0 134 134"><defs><style>.cls-1{fill:#fff;}</style></defs><title>cpu</title><rect width="134" height="134"/><path class="cls-1" d="M29.48,0H31a3.73,3.73,0,0,1,2.38,4c-.11,1.94,0,3.9,0,5.85v4.63h8.35c0-3.56.07-7,0-10.48a3.77,3.77,0,0,1,2.38-4h1.56A3.72,3.72,0,0,1,48,4c-.1,2,0,4,0,6v4.5h8.35c0-3.56.07-7,0-10.49A3.77,3.77,0,0,1,58.7,0h1.56a3.71,3.71,0,0,1,2.37,4c-.1,1.9,0,3.81,0,5.72v4.76H71c0-3.56.07-7,0-10.49a3.77,3.77,0,0,1,2.38-4h1.56a3.71,3.71,0,0,1,2.37,4c-.1,1.9,0,3.81,0,5.72v4.76h8.35c0-3.56.06-7,0-10.49a3.77,3.77,0,0,1,2.38-4h1.56a3.71,3.71,0,0,1,2.37,4c-.1,2,0,4,0,6v4.5h8.35c0-3.56.06-7,0-10.48a3.78,3.78,0,0,1,2.38-4h1.56a3.77,3.77,0,0,1,2.38,4.05c-.1,2.86,0,5.73,0,8.6v2h3.44A8.73,8.73,0,0,1,119,23.74v3.39H130.1a3.17,3.17,0,0,1,3.47,3.09c0,1.87-1.4,3.16-3.52,3.17H119v8.35h1.33c3.35,0,6.7,0,10,0a3.13,3.13,0,1,1,0,6.25c-.69,0-1.39,0-2.08,0H119v8.35c3.77,0,7.46,0,11.15,0a3.13,3.13,0,1,1,0,6.25c-2.79,0-5.57,0-8.35,0h-2.81V71h10.66c2.39,0,3.83,1.16,3.85,3.1s-1.43,3.16-3.79,3.16H119v8.35h1.08c3.39,0,6.78,0,10.17,0a3.11,3.11,0,0,1,3.29,3.13,3.16,3.16,0,0,1-3.32,3.12c-.56,0-1.13,0-1.69,0h-9.51v8.35c3.77,0,7.46,0,11.15,0a3.13,3.13,0,1,1,0,6.25c-3,0-6.08,0-9.13,0H119c0,1.29,0,2.42,0,3.54a8.73,8.73,0,0,1-9,9c-1.16,0-2.31,0-3.55,0,0,3.86,0,7.55,0,11.24a3.13,3.13,0,1,1-6.25,0c0-3.09,0-6.18,0-9.26v-1.89H91.89a2.86,2.86,0,0,0,0,.36c0,3.52,0,7,0,10.57,0,2.15-1.24,3.57-3.11,3.58s-3.14-1.4-3.15-3.54c0-3.26,0-6.52,0-9.78V119H77.22v1.34c0,3.22,0,6.44,0,9.65,0,2.13-1.28,3.55-3.15,3.54S71,132.14,71,130c0-1.69,0-3.39,0-5.08v-5.85H62.61c0,3.78,0,7.47,0,11.16a3.13,3.13,0,1,1-6.25,0c0-3.26,0-6.52,0-9.78v-1.34H48.06a2.86,2.86,0,0,0-.05.36q0,5.29,0,10.57c0,2.15-1.25,3.56-3.12,3.57s-3.13-1.42-3.14-3.55c0-3.27,0-6.53,0-9.79V119H33.39c0,3.76,0,7.45,0,11.13a3.13,3.13,0,1,1-6.25.06c0-1.74,0-3.48,0-5.22v-6.07c-3.68.12-7.2.27-10-2.55s-2.58-6.35-2.52-10c-3.62,0-7.09-.07-10.56,0a3.78,3.78,0,0,1-4-2.38v-1.56a3.71,3.71,0,0,1,4-2.37c2,.09,4,0,6,0h4.5V91.83c-3.56,0-7-.07-10.48,0a3.78,3.78,0,0,1-4-2.38V87.92a3.71,3.71,0,0,1,4-2.37c2,.1,4.07,0,6.11,0h4.37V77.22c-3.56,0-7-.07-10.48,0a3.78,3.78,0,0,1-4-2.38V73.31a3.71,3.71,0,0,1,4-2.37c1.9.1,3.81,0,5.72,0h4.76V62.61c-3.56,0-7-.06-10.48,0a3.78,3.78,0,0,1-4-2.38V58.7a3.71,3.71,0,0,1,4-2.37c2,.1,4,0,6,0h4.5V48C11,48,7.5,47.94,4,48a3.78,3.78,0,0,1-4-2.38V44.09a3.71,3.71,0,0,1,4-2.37c2,.1,4,0,6,0h4.5V33.39c-3.56,0-7-.07-10.48,0A3.77,3.77,0,0,1,0,31V29.48a3.75,3.75,0,0,1,4.05-2.37c2.68.09,5.38,0,8.07,0h2.49c0-1.35,0-2.52,0-3.68a8.72,8.72,0,0,1,8.84-8.84h3.68c0-3.63.07-7.1,0-10.57A3.78,3.78,0,0,1,29.48,0ZM92.87,106.38c0-3.18,0-6.26,0-9.34-.06-6.3.69-4.64-3.77-9.15a8.13,8.13,0,0,1-2.5-6.08c0-1.87,0-3.74,0-5.61a1.54,1.54,0,0,0-1.16-1.79,8.29,8.29,0,0,1-5-8.83,8.48,8.48,0,0,1,7.46-7.12,8.38,8.38,0,0,1,8.71,5.66c1.23,3.53,0,7.86-3.36,9.5-2.41,1.18-2.7,2.69-2.45,4.85a2.91,2.91,0,0,1,0,.78,7.47,7.47,0,0,0,3.06,7.5,8.66,8.66,0,0,1,3.24,7.6c-.13,3.56,0,7.13,0,10.69v1.32h9.3V27.2h-9.3V47.57c0,3-1.66,4.65-4.69,4.66s-6,0-9,0a4.48,4.48,0,0,0-3.6,1.47c-1,1.11-2.15,2.15-3.22,3.24-4,4-3.47,2.78-3.49,8.35a7.94,7.94,0,0,1-2.43,5.84c-1.5,1.51-3,3-4.51,4.53a8.35,8.35,0,0,1-6.29,2.63q-15.58,0-31.17,0H27.22v14.6c5.64,0,11.2,0,16.75,0a4.14,4.14,0,0,0,2.06-1,15.2,15.2,0,0,0,1.77-1.73,8,8,0,0,1,6-2.46c2.95,0,5.91,0,8.86,0a1.49,1.49,0,0,0,1.72-1.09,8.23,8.23,0,0,1,9.16-5,8.33,8.33,0,1,1-9.23,11.23,1.26,1.26,0,0,0-1.4-1c-3,0-6.09-.08-9.13.08a7.64,7.64,0,0,0-3,1.24,8.09,8.09,0,0,0-1.49,1.44,8,8,0,0,1-5.95,2.49c-4.92,0-9.83,0-14.74,0H27.2v9.33ZM78.26,27.16c0,2.62,0,5.13,0,7.64A8.15,8.15,0,0,1,75.72,41c-4.5,4.48-9,9-13.48,13.45a1.32,1.32,0,0,0-.36,1.77A8.42,8.42,0,0,1,62.57,59a8.34,8.34,0,1,1-5.12-7.16c.71.3,1.17.4,1.79-.23,4.52-4.58,9.1-9.1,13.61-13.69A3.65,3.65,0,0,0,74,35.79c.14-2.85.06-5.7.06-8.57H59.48v9.86c0,3.09-1.63,4.71-4.76,4.71H39.66v1.43q0,5.69,0,11.35c0,3.33-1.6,4.91-5,4.91H27.2V74.09h1.47c9.26,0,18.52,0,27.77,0,6.2,0,4.62.66,9-3.73,3.9-3.89,3.4-2.72,3.39-8.12a8.11,8.11,0,0,1,2.44-6c1.91-1.91,3.82-3.81,5.72-5.72a8.1,8.1,0,0,1,6.09-2.49c2.78,0,5.56,0,8.34,0h1.32V27.16Zm-23,10.46V27.22h-28v28h8.25V53.92c0-4,0-8,0-12a4.12,4.12,0,0,1,2.87-4.06,7.13,7.13,0,0,1,2.06-.24C45.32,37.61,50.22,37.62,55.22,37.62Z"/><path d="M92.87,106.38H27.2V97.05h1.37c4.91,0,9.82,0,14.74,0a8,8,0,0,0,5.95-2.49,8.09,8.09,0,0,1,1.49-1.44,7.64,7.64,0,0,1,3-1.24c3-.16,6.09,0,9.13-.08a1.26,1.26,0,0,1,1.4,1,8.35,8.35,0,1,0,.07-6.19,1.49,1.49,0,0,1-1.72,1.09c-3,0-5.91,0-8.86,0a8,8,0,0,0-6,2.46A15.2,15.2,0,0,1,46,91.84a4.14,4.14,0,0,1-2.06,1c-5.55.08-11.11,0-16.75,0V78.26h1.43q15.59,0,31.17,0a8.35,8.35,0,0,0,6.29-2.63c1.48-1.53,3-3,4.51-4.53a7.94,7.94,0,0,0,2.43-5.84c0-5.57-.51-4.31,3.49-8.35,1.07-1.09,2.18-2.13,3.22-3.24a4.48,4.48,0,0,1,3.6-1.47c3,0,6,0,9,0s4.68-1.66,4.69-4.66V27.2h9.3v79.16h-9.3V105c0-3.56-.1-7.13,0-10.69a8.66,8.66,0,0,0-3.24-7.6,7.47,7.47,0,0,1-3.06-7.5,2.91,2.91,0,0,0,0-.78c-.25-2.16,0-3.67,2.45-4.85,3.38-1.64,4.59-6,3.36-9.5a8.38,8.38,0,0,0-8.71-5.66,8.48,8.48,0,0,0-7.46,7.12,8.29,8.29,0,0,0,5,8.83,1.54,1.54,0,0,1,1.16,1.79c-.07,1.87,0,3.74,0,5.61a8.13,8.13,0,0,0,2.5,6.08c4.46,4.51,3.71,2.85,3.77,9.15C92.9,100.12,92.87,103.2,92.87,106.38Z"/><path d="M78.26,27.16H92.77V48.05H91.45c-2.78,0-5.56,0-8.34,0A8.1,8.1,0,0,0,77,50.54c-1.9,1.91-3.81,3.81-5.72,5.72a8.11,8.11,0,0,0-2.44,6c0,5.4.51,4.23-3.39,8.12-4.41,4.39-2.83,3.71-9,3.73-9.25,0-18.51,0-27.77,0H27.2V59.48h7.48c3.37,0,5-1.58,5-4.91q0-5.67,0-11.35V41.79H54.72c3.13,0,4.76-1.62,4.76-4.71V27.22H74.06c0,2.87.08,5.72-.06,8.57a3.65,3.65,0,0,1-1.15,2.1C68.34,42.48,63.76,47,59.24,51.58c-.62.63-1.08.53-1.79.23A8.31,8.31,0,1,0,62.57,59a8.42,8.42,0,0,0-.69-2.76,1.32,1.32,0,0,1,.36-1.77c4.51-4.47,9-9,13.48-13.45a8.15,8.15,0,0,0,2.55-6.19C78.23,32.29,78.26,29.78,78.26,27.16Z"/><path d="M55.22,37.62c-5,0-9.9,0-14.8,0a7.13,7.13,0,0,0-2.06.24,4.12,4.12,0,0,0-2.87,4.06c0,4,0,8,0,12v1.32H27.23v-28h28Z"/><path class="cls-1" d="M76.18,89.77a4.18,4.18,0,1,1-4.12-4.2A4.24,4.24,0,0,1,76.18,89.77Z"/><circle cx="54.5" cy="59.5" r="4.5"/><circle cx="72.5" cy="89.5" r="4.5"/><circle cx="88.5" cy="66.5" r="4.5"/></svg>