<?xml version="1.0" encoding="utf-8"?>
<!-- Generator: Adobe Illustrator 23.1.1, SVG Export Plug-In . SVG Version: 6.00 Build 0)  -->
<svg version="1.1" id="Layer_1" xmlns="http://www.w3.org/2000/svg" xmlns:xlink="http://www.w3.org/1999/xlink" x="0px" y="0px"
	 viewBox="0 0 91 118" style="enable-background:new 0 0 91 118;" xml:space="preserve">
<style type="text/css">
	.st0{stroke:#FFFFFF;stroke-width:2;stroke-miterlimit:10;}
	.st1{fill:#FFFFFF;}
	.st2{stroke:#FFFFFF;stroke-miterlimit:10;}
</style>
<path class="st0" d="M83.68,6.5c0,2.35,0,4.5,0,6.84c-25.09,0-50.11,0-75.22,0c0-2.28,0-4.42,0-6.84C33.47,6.5,58.49,6.5,83.68,6.5z
	"/>
<rect x="7" y="13.34" class="st0" width="78.29" height="100.66"/>
<path class="st1" d="M45.31,108.67c-6.82,0-13.63,0.02-20.45-0.01c-7.66-0.03-12.96-5.33-12.98-12.98
	c-0.02-9.39,0.01-18.78-0.02-28.16c0-1.12,0.14-1.86,1.39-2.25c1.51-0.47,2.29-1.69,2.28-3.29c-0.01-1.6-0.81-2.8-2.33-3.26
	c-1.17-0.36-1.36-1.02-1.35-2.1c0.04-6.34-0.01-12.68,0.07-19.01c0.01-0.85,0.41-1.87,0.97-2.51c4.45-5.08,8.97-10.11,13.53-15.09
	c0.52-0.57,1.48-1.03,2.24-1.03c13.39-0.06,26.79-0.06,40.18,0c0.75,0,1.72,0.47,2.22,1.04c2.85,3.22,5.62,6.52,8.34,9.86
	c0.48,0.58,0.8,1.48,0.8,2.23c0.03,11.84-0.02,23.68,0,35.52c0,0.97-0.23,1.5-1.21,1.82c-1.57,0.52-2.43,1.72-2.4,3.4
	c0.03,1.6,0.85,2.78,2.36,3.24c1.12,0.34,1.25,1,1.24,1.99c-0.04,4.54,0.01,9.09-0.07,13.63c-0.01,0.82-0.31,1.78-0.79,2.44
	c-3.28,4.49-6.67,8.9-9.96,13.38c-0.64,0.87-1.3,1.18-2.37,1.18C59.78,108.65,52.54,108.67,45.31,108.67z M44.65,105.08
	c6.88,0,13.75,0.03,20.63-0.05c0.75-0.01,1.73-0.46,2.18-1.04c2.84-3.62,5.6-7.31,8.3-11.03c0.48-0.66,0.76-1.61,0.79-2.44
	c0.09-3.35,0.1-6.7,0-10.04c-0.02-0.76-0.45-1.7-1.01-2.21c-3.34-3.03-3.46-8-0.03-10.86c0.91-0.76,1.12-1.52,1.12-2.59
	c0-10.35,0.06-20.69-0.01-31.04c-0.01-1.02-0.5-2.19-1.13-3.01c-1.9-2.46-3.92-4.83-6.02-7.12c-0.55-0.6-1.57-1.09-2.38-1.1
	c-12.26-0.07-24.52-0.07-36.78-0.01c-0.77,0-1.75,0.42-2.27,0.98c-3.97,4.31-7.88,8.67-11.74,13.08c-0.49,0.56-0.82,1.46-0.83,2.21
	c-0.07,5.2-0.07,10.41,0,15.61c0.01,0.65,0.41,1.48,0.9,1.91c3.64,3.19,3.67,8.11,0.06,11.27c-0.53,0.46-0.96,1.36-0.96,2.06
	c-0.06,8.73-0.06,17.46-0.03,26.19c0.02,5.48,3.79,9.2,9.28,9.21C31.37,105.09,38.01,105.08,44.65,105.08z"/>
<path class="st1" d="M13.35,22.74c-0.46-0.66-1.36-1.41-1.26-1.95c0.14-0.7,1.03-1.57,1.73-1.71c0.45-0.09,1.55,1.01,1.58,1.61
	c0.03,0.68-0.82,1.39-1.29,2.09C13.86,22.77,13.61,22.76,13.35,22.74z"/>
<path class="st1" d="M78.31,18.24c0.85,1.09,1.8,1.79,1.72,2.34c-0.1,0.7-1.04,1.28-1.61,1.92c-0.6-0.61-1.56-1.14-1.7-1.84
	C76.61,20.11,77.52,19.36,78.31,18.24z"/>
<path class="st1" d="M80.39,107.38c-0.73,0.42-1.5,1.23-2.17,1.15c-0.6-0.07-1.61-1.25-1.5-1.69c0.18-0.69,1.12-1.52,1.83-1.61
	c0.55-0.07,1.23,0.89,1.86,1.4C80.4,106.88,80.4,107.13,80.39,107.38z"/>
<path d="M44.65,105.08c-6.64,0-13.28,0.01-19.91,0c-5.49-0.01-9.26-3.73-9.28-9.21c-0.03-8.73-0.03-17.46,0.03-26.19
	c0.01-0.7,0.43-1.59,0.96-2.06c3.6-3.16,3.58-8.08-0.06-11.27c-0.49-0.43-0.89-1.26-0.9-1.91c-0.07-5.2-0.07-10.41,0-15.61
	c0.01-0.75,0.34-1.65,0.83-2.21c3.86-4.41,7.77-8.78,11.74-13.08c0.52-0.56,1.5-0.97,2.27-0.98c12.26-0.06,24.52-0.06,36.78,0.01
	c0.81,0,1.82,0.5,2.38,1.1c2.1,2.29,4.12,4.66,6.02,7.12c0.63,0.82,1.12,1.99,1.13,3.01c0.06,10.35,0,20.69,0.01,31.04
	c0,1.07-0.21,1.83-1.12,2.59c-3.43,2.87-3.32,7.83,0.03,10.86c0.56,0.51,0.98,1.45,1.01,2.21c0.11,3.35,0.09,6.7,0,10.04
	c-0.02,0.83-0.31,1.77-0.79,2.44c-2.7,3.73-5.46,7.42-8.3,11.03c-0.45,0.58-1.44,1.03-2.18,1.04
	C58.4,105.12,51.52,105.08,44.65,105.08z M48.69,76.16c0.82-0.1,1.52-0.13,2.2-0.27c13.18-2.67,21.89-14.97,20-28.24
	c-1.62-11.38-10.56-19.96-22.34-21.43c-10.58-1.32-21.47,5.2-25.71,15.41c-4.35,10.45-1.13,22.58,7.92,29.46
	c3.35,2.54,2.39,2.2,5.08-0.38c0.07-0.07,0.08-0.21,0.13-0.38c-0.49-0.31-1-0.61-1.49-0.95c-7.57-5.26-11.01-12.44-9.64-21.62
	c1.53-10.32,10.58-18.01,20.98-18.07c10.52-0.05,19.71,7.5,21.41,17.61c1.8,10.72-4.06,20.97-14.2,24.22
	C50.54,72.33,49.54,73.84,48.69,76.16z M27.28,77.74c-1.54-1.96-2.94-3.9-4.54-5.67c-0.49-0.54-1.64-1-2.24-0.79
	c-0.61,0.21-1.3,1.29-1.3,2c-0.09,7.11-0.13,14.22-0.01,21.33c0.06,3.74,3.22,6.7,6.98,6.86c1.67,0.07,3.35,0.02,5.02,0.02
	c3.47,0,6.93,0.03,10.4-0.01c1.89-0.02,2.97-1.52,2.03-2.92c-1.24-1.86-2.72-3.56-4.09-5.32c-5.4,3.55-10.89,1.73-13.62-1.57
	C22.54,87.6,22.94,83.02,27.28,77.74z M53.54,58.79c-0.09-0.04-0.18-0.08-0.27-0.13c-8.04,7.92-16.14,15.8-24.07,23.84
	c-0.82,0.83-1.03,2.66-0.89,3.96c0.24,2.27,2.27,3.93,4.51,4.22c2.2,0.29,4.31-0.79,5.47-2.96c5.02-9.43,10.01-18.88,15-28.33
	C53.4,59.2,53.46,58.99,53.54,58.79z M46.13,45.86c-2.93-0.04-5.38,2.33-5.44,5.26c-0.06,2.94,2.29,5.4,5.22,5.48
	c3.01,0.08,5.52-2.35,5.53-5.35C51.44,48.33,49.06,45.9,46.13,45.86z"/>
<path class="st1" d="M48.69,76.16c0.85-2.31,1.84-3.82,4.34-4.63c10.15-3.25,16.01-13.5,14.2-24.22
	c-1.7-10.1-10.89-17.66-21.41-17.61c-10.4,0.05-19.45,7.74-20.98,18.07c-1.36,9.18,2.07,16.36,9.64,21.62
	c0.49,0.34,1,0.64,1.49,0.95c-0.06,0.17-0.06,0.31-0.13,0.38c-2.69,2.58-1.73,2.92-5.08,0.38c-9.05-6.87-12.26-19-7.92-29.46
	c4.24-10.2,15.13-16.73,25.71-15.41c11.78,1.47,20.72,10.04,22.34,21.43c1.89,13.27-6.82,25.57-20,28.24
	C50.22,76.03,49.51,76.06,48.69,76.16z"/>
<path class="st1" d="M27.28,77.74c-4.34,5.28-4.74,9.86-1.38,13.93c2.73,3.3,8.22,5.13,13.62,1.57c1.36,1.75,2.85,3.45,4.09,5.32
	c0.94,1.4-0.14,2.9-2.03,2.92c-3.47,0.04-6.93,0.02-10.4,0.01c-1.67,0-3.35,0.05-5.02-0.02c-3.76-0.16-6.92-3.12-6.98-6.86
	c-0.12-7.11-0.08-14.22,0.01-21.33c0.01-0.71,0.69-1.79,1.3-2c0.6-0.21,1.75,0.25,2.24,0.79C24.34,73.84,25.74,75.78,27.28,77.74z"
	/>
<path class="st1" d="M53.54,58.79c-0.08,0.2-0.14,0.42-0.24,0.61c-5,9.44-9.98,18.89-15,28.33c-1.16,2.17-3.26,3.25-5.47,2.96
	c-2.24-0.29-4.28-1.95-4.51-4.22c-0.13-1.3,0.07-3.13,0.89-3.96c7.93-8.04,16.02-15.92,24.07-23.84
	C53.37,58.7,53.45,58.75,53.54,58.79z"/>
<path class="st1" d="M46.13,45.86c2.93,0.04,5.32,2.46,5.3,5.4c-0.01,3-2.52,5.43-5.53,5.35c-2.93-0.08-5.27-2.55-5.22-5.48
	C40.75,48.2,43.19,45.83,46.13,45.86z"/>
</svg>
