<svg id="Layer_1" data-name="Layer 1" xmlns="http://www.w3.org/2000/svg" viewBox="0 0 104 104"><defs><style>.cls-1{fill:#fff;}</style></defs><title>icons</title><path d="M0,0H103.87V103.87H0ZM65.47,89.24l.13.37c1.26-.48,2.54-1,3.79-1.46S71.9,87,73.18,86.51a6.1,6.1,0,0,0,4-3.89,16.94,16.94,0,0,0,.13-4.73c0-2-.19-4-.31-6.07s-.25-3.85-.39-5.77c-.12-1.67-.35-3.34-.38-5s.15-3.46.2-5.19c0-.88-.05-1.76,0-2.64,0-.46.17-.92.15-1.38,0-1.13-.2-2.26-.23-3.39-.07-2.6-.06-5.2-.15-7.79-.07-2.16-.22-4.31-.34-6.47,0-.14,0-.28,0-.43,0-1.5.1-3,0-4.5-.08-1.76-.41-3.51-.42-5.26a36.61,36.61,0,0,0-.41-6.7c-.48-2.51-1.64-3.57-4.13-3.67a1.66,1.66,0,0,1-.32,0,51.64,51.64,0,0,1-5.24-2A7,7,0,0,0,62,10.62c-.73,0-1.47.09-2.2.07a30.75,30.75,0,0,0-3.58-.17c-1.93.17-3.84.53-5.76.81-1.47.22-2.94.49-4.42.65-1.89.2-3.79.29-5.68.46a17.51,17.51,0,0,1-3.71.38,9.42,9.42,0,0,0-4,.55c-.62.19-1.27.29-1.89.48-1.47.44-2.81.91-3.5,2.6-1.16,2.85-.63,5.8-.92,8.7-.17,1.65-.14,3.33-.16,5,0,2.16,0,4.31,0,6.47,0,1.28.19,2.55.17,3.83,0,2.66-.23,5.33-.2,8,0,2.17.27,4.34.42,6.51s.36,4.37.44,6.56c.13,3.24.13,6.49.26,9.73.08,2.2.29,4.4.42,6.6,0,.74,0,1.5,0,2.24.12,1.48.26,3,.45,4.42s.45,3.08.66,4.63c.1.72.11,1.46.25,2.18.34,1.84,1.89,2.48,3.3,3.22,1.15.6,2.25,1.49,3.65,1.29,2.45-.37,4.88-.83,7.32-1.26a3.24,3.24,0,0,0,.41-.13,13.14,13.14,0,0,1,3.15-.84c2.46,0,4.72-.91,7.08-1.38,1.35-.27,2.7-.59,4.05-.87,1.11-.24,2.24-.39,3.33-.7C62.7,90.23,64.08,89.71,65.47,89.24Z"/><path class="cls-1" d="M65.47,89.24c-1.39.47-2.77,1-4.19,1.39-1.09.31-2.22.46-3.33.7-1.35.28-2.7.6-4.05.87-2.36.47-4.62,1.33-7.08,1.38a13.14,13.14,0,0,0-3.15.84,3.24,3.24,0,0,1-.41.13c-2.44.43-4.87.89-7.32,1.26-1.4.2-2.5-.69-3.65-1.29-1.41-.74-3-1.38-3.3-3.22-.14-.72-.15-1.46-.25-2.18-.21-1.55-.47-3.08-.66-4.63s-.33-2.94-.45-4.42c-.05-.74,0-1.5,0-2.24-.13-2.2-.34-4.4-.42-6.6-.13-3.24-.13-6.49-.26-9.73-.08-2.19-.29-4.37-.44-6.56s-.4-4.34-.42-6.51c0-2.66.17-5.33.2-8,0-1.28-.15-2.55-.17-3.83,0-2.16,0-4.31,0-6.47,0-1.66,0-3.34.16-5,.29-2.9-.24-5.85.92-8.7.69-1.69,2-2.16,3.5-2.6.62-.19,1.27-.29,1.89-.48a9.42,9.42,0,0,1,4-.55,17.51,17.51,0,0,0,3.71-.38c1.89-.17,3.79-.26,5.68-.46,1.48-.16,3-.43,4.42-.65,1.92-.28,3.83-.64,5.76-.81a30.75,30.75,0,0,1,3.58.17c.73,0,1.47,0,2.2-.07a7,7,0,0,1,3.39.94,51.64,51.64,0,0,0,5.24,2,1.66,1.66,0,0,0,.32,0c2.49.1,3.65,1.16,4.13,3.67a36.61,36.61,0,0,1,.41,6.7c0,1.75.34,3.5.42,5.26.06,1.5,0,3,0,4.5,0,.15,0,.29,0,.43.12,2.16.27,4.31.34,6.47.09,2.59.08,5.19.15,7.79,0,1.13.19,2.26.23,3.39,0,.46-.14.92-.15,1.38,0,.88.06,1.76,0,2.64-.05,1.73-.23,3.46-.2,5.19s.26,3.34.38,5q.21,2.88.39,5.77c.12,2,.26,4,.31,6.07a16.94,16.94,0,0,1-.13,4.73,6.1,6.1,0,0,1-4,3.89c-1.28.5-2.52,1.12-3.79,1.64s-2.53,1-3.79,1.46Zm-3-1.46v.09a24,24,0,0,0,3.72-.75A32.47,32.47,0,0,0,74,83.49a2.82,2.82,0,0,0,1.27-2.42c0-1-.11-2-.19-3-.06-.81-.2-1.62-.22-2.44,0-1.94.08-3.88,0-5.81-.15-2.51-.52-5-.68-7.51a40.82,40.82,0,0,1,0-4.56c.07-1.45.31-2.89.35-4.34,0-1.12-.12-2.25-.18-3.37-.13-2.17-.27-4.35-.37-6.53s-.15-4.43-.21-6.65c0-.91,0-1.82,0-2.73-.12-2.35-.34-4.68-.42-7,0-1.28.22-2.57.14-3.85-.1-1.91-.33-3.82-.62-5.71-.09-.58-.48-1.5-.88-1.58a15.31,15.31,0,0,0-4.16-.34c-2.14.14-4.27.58-6.41.78-4.15.4-8.3.71-12.45,1.08-.73.06-1.45.23-2.18.34l-6,.81c-1.24.17-2.47.45-3.72.5a2.75,2.75,0,0,0-2.7,2.42c0,1.62-.07,3.25,0,4.88q.06,3.26.22,6.51c.12,2.15.31,4.3.46,6.45a10.83,10.83,0,0,1,.12,3.53c-.45,1.54,0,3-.1,4.51-.14,3.43,0,6.87,0,10.3,0,1.17-.12,2.35,0,3.52.15,1.76.54,3.5.67,5.27.22,2.87.33,5.75.42,8.63.1,2.73.14,5.45.17,8.17,0,1.91-.08,3.82,0,5.72a14.16,14.16,0,0,0,.56,3.3,1.49,1.49,0,0,0,1.13.84,23.76,23.76,0,0,0,3.55-.53c1-.22,2-.63,3-.8,2-.33,3.94-.55,5.9-.82a3,3,0,0,0,.72-.24,15.57,15.57,0,0,1,2-.87c2.82-.71,5.81-.74,8.52-2A2.28,2.28,0,0,1,62.43,87.78Zm2.28-74.1,0-.32a9.35,9.35,0,0,0-2.16-.69c-1.31-.08-2.63.08-3.94.09-1.68,0-3.38-.12-5.05.05-1.43.14-2.82.72-4.25.93-1.82.28-3.66.38-5.49.55-2.33.21-4.67.39-7,.6a16.8,16.8,0,0,0-2.23.29c-1.11.26-2.18.67-3.3.91-1.39.31-2.19.85-2.32,1.93-.24,1.87-.49,3.74-.56,5.62-.12,2.89-.09,5.79-.12,8.69,0,.25,0,.5,0,.75q0,3.24,0,6.48c0,1.38-.07,2.76-.07,4.14a27.49,27.49,0,0,1,.07,3.51c-.2,1.67.25,3.3,0,5s.71,3.49.32,5.31c0,0,0,.07,0,.1a27.1,27.1,0,0,1,.6,3.06c.17,1.8.21,3.61.29,5.42a3,3,0,0,1-.05.42c-.06,1.18-.19,2.35-.15,3.53.06,1.75.24,3.49.38,5.23q.42,5.69.86,11.36c0,.46.09.92.14,1.37.16,1.73.16,3.55,2.31,4.18.13,0,.24.17.37.22l1.12.46a9.7,9.7,0,0,0,0-1.52c-.06-.64-.33-1.27-.35-1.92-.05-1.82,0-3.64,0-5.46s0-3.81,0-5.71c0-1.09.11-2.18,0-3.26-.19-2-.57-3.88-.74-5.82-.14-1.55-.09-3.12-.12-4.67,0-1.36-.05-2.72-.1-4.08-.06-1.69-.21-3.38-.23-5.07s.16-3.19.13-4.78c0-2-.24-4.07-.3-6.11,0-.61.32-1.24.33-1.86,0-1-.11-1.89-.17-2.84,0-.48,0-1-.09-1.44-.11-1.34-.54-2.76-.23-4a4.23,4.23,0,0,0,0-2.62c-.74-1.49,0-3-.4-4.41a4.65,4.65,0,0,1-.26-1.64c.1-1.5.38-3,.42-4.49a5.81,5.81,0,0,1,1.4-3.38,1.61,1.61,0,0,1,1.41-.73c1.44,0,2.89-.23,4.34-.37.62-.06,1.24-.15,1.87-.24,1.29-.17,2.59-.32,3.88-.53s2.49-.6,3.75-.74c1.56-.17,3.16-.11,4.73-.24,2.61-.23,5.22-.51,7.83-.79C62.6,14.05,63.65,13.85,64.71,13.68Z"/><path d="M62.43,87.78a2.28,2.28,0,0,0-.7.11c-2.71,1.26-5.7,1.29-8.52,2a15.57,15.57,0,0,0-2,.87,3,3,0,0,1-.72.24c-2,.27-3.94.49-5.9.82-1,.17-2,.58-3,.8a23.76,23.76,0,0,1-3.55.53,1.49,1.49,0,0,1-1.13-.84,14.16,14.16,0,0,1-.56-3.3c-.08-1.9,0-3.81,0-5.72,0-2.72-.07-5.44-.17-8.17-.09-2.88-.2-5.76-.42-8.63-.13-1.77-.52-3.51-.67-5.27-.1-1.17,0-2.35,0-3.52,0-3.43-.14-6.87,0-10.3.06-1.49-.35-3,.1-4.51a10.83,10.83,0,0,0-.12-3.53c-.15-2.15-.34-4.3-.46-6.45s-.18-4.34-.22-6.51c0-1.63,0-3.26,0-4.88a2.75,2.75,0,0,1,2.7-2.42c1.25-.05,2.48-.33,3.72-.5l6-.81c.73-.11,1.45-.28,2.18-.34,4.15-.37,8.3-.68,12.45-1.08,2.14-.2,4.27-.64,6.41-.78a15.31,15.31,0,0,1,4.16.34c.4.08.79,1,.88,1.58.29,1.89.52,3.8.62,5.71.08,1.28-.18,2.57-.14,3.85.08,2.35.3,4.68.42,7,0,.91,0,1.82,0,2.73.06,2.22.11,4.44.21,6.65s.24,4.36.37,6.53c.06,1.12.22,2.25.18,3.37,0,1.45-.28,2.89-.35,4.34a40.82,40.82,0,0,0,0,4.56c.16,2.51.53,5,.68,7.51.11,1.93,0,3.87,0,5.81,0,.82.16,1.63.22,2.44.08,1,.2,2,.19,3A2.82,2.82,0,0,1,74,83.49a32.47,32.47,0,0,1-7.87,3.63,24,24,0,0,1-3.72.75ZM39.88,77.56c.41-.21.8-.45,1.22-.62a7.3,7.3,0,0,1,1.77-.57c2.51-.26,5-.38,7.53-.68,1-.13,2-.73,3-.89a30.92,30.92,0,0,0,6.13-1.14c1.82-.69,3.85-.78,5.72-1.37A26,26,0,0,1,70.91,71a1.35,1.35,0,0,0,1.36-1.62C72.18,67.7,72,66,72,64.33c0-2,0-4.06.06-6.09,0-1.2,0-2.4,0-3.6-.14-2.28-.39-4.57-.51-6.86-.07-1.31.09-2.63.06-4,0-1.66-.21-3.31-.26-5,0-1.37,0-2.75,0-4.13s0-2.47,0-3.71c-.07-2.31-.12-4.63-.23-6.94,0-.48-.34-.75-1-.63a17.68,17.68,0,0,1-4.75.6c-2.26-.22-4.48.66-6.72.11-.15,0-.34.08-.51.11-1.3.22-2.58.49-3.89.63s-2.54,0-3.79.2c-2,.31-4,.86-6,1.16s-4.31.48-6.47.68c-.74.07-1.28.34-1.32,1.12-.09,2-.18,4-.16,6,0,1.5.23,3,.29,4.5.08,2.34-.05,4.7.2,7a69.34,69.34,0,0,1,.8,8.26c0,1-.08,2,0,3.07,0,.77.26,1.54.27,2.31,0,1.45-.11,2.91-.09,4.36s.17,3,.25,4.44a20.3,20.3,0,0,0,.16,3c.14.66-.24,1.31-.09,1.75.39,1.2,0,2.67,1.13,3.64C39.6,76.62,39.65,77,39.88,77.56ZM56.66,85.9c1.67.21,2.52-1.15,3.63-2a.93.93,0,0,0,.27-.67,16.28,16.28,0,0,0-.13-3.57,2.61,2.61,0,0,0-2.19-2.34,4.85,4.85,0,0,0-5.41,3.77c-.15,1-.27,2.42.27,3.07C53.91,85.1,55,86.26,56.66,85.9Zm.44-66c-.75.16-1.49.37-2.24.47-1.31.15-2.64.14-3.93.39-.46.09-.82.72-1.23,1.1.49.27,1,.77,1.46.76,1.46,0,2.9-.33,4.36-.38A2.69,2.69,0,0,0,57.8,21Z"/><path d="M64.71,13.68c-1.06.17-2.11.37-3.17.49-2.61.28-5.22.56-7.83.79-1.57.13-3.17.07-4.73.24-1.26.14-2.49.53-3.75.74s-2.59.36-3.88.53c-.63.09-1.25.18-1.87.24-1.45.14-2.9.32-4.34.37a1.61,1.61,0,0,0-1.41.73,5.81,5.81,0,0,0-1.4,3.38c0,1.5-.32,3-.42,4.49a4.65,4.65,0,0,0,.26,1.64c.4,1.43-.34,2.92.4,4.41a4.23,4.23,0,0,1,0,2.62c-.31,1.24.12,2.66.23,4,0,.48.06,1,.09,1.44.06,1,.18,1.89.17,2.84,0,.62-.34,1.25-.33,1.86.06,2,.26,4.08.3,6.11,0,1.59-.14,3.19-.13,4.78s.17,3.38.23,5.07c0,1.36.07,2.72.1,4.08,0,1.55,0,3.12.12,4.67.17,1.94.55,3.87.74,5.82.1,1.08,0,2.17,0,3.26,0,1.9,0,3.8,0,5.71s0,3.64,0,5.46c0,.65.29,1.28.35,1.92a9.7,9.7,0,0,1,0,1.52l-1.12-.46c-.13-.05-.24-.18-.37-.22-2.15-.63-2.15-2.45-2.31-4.18-.05-.45-.1-.91-.14-1.37Q30.06,81,29.63,75.3c-.14-1.74-.32-3.48-.38-5.23,0-1.18.09-2.35.15-3.53a3,3,0,0,0,.05-.42c-.08-1.81-.12-3.62-.29-5.42a27.1,27.1,0,0,0-.6-3.06s0-.07,0-.1c.39-1.82-.61-3.61-.32-5.31s-.16-3.35,0-5a27.49,27.49,0,0,0-.07-3.51c0-1.38.06-2.76.07-4.14q0-3.24,0-6.48c0-.25,0-.5,0-.75,0-2.9,0-5.8.12-8.69.07-1.88.32-3.75.56-5.62.13-1.08.93-1.62,2.32-1.93,1.12-.24,2.19-.65,3.3-.91a16.8,16.8,0,0,1,2.23-.29c2.33-.21,4.67-.39,7-.6,1.83-.17,3.67-.27,5.49-.55,1.43-.21,2.82-.79,4.25-.93,1.67-.17,3.37,0,5.05-.05,1.31,0,2.63-.17,3.94-.09a9.35,9.35,0,0,1,2.16.69Z"/><path class="cls-1" d="M39.88,77.56c-.23-.52-.28-.94-.52-1.14-1.17-1-.74-2.44-1.13-3.64-.15-.44.23-1.09.09-1.75a20.3,20.3,0,0,1-.16-3c-.08-1.48-.22-3-.25-4.44s.1-2.91.09-4.36c0-.77-.24-1.54-.27-2.31,0-1,0-2,0-3.07a69.34,69.34,0,0,0-.8-8.26c-.25-2.33-.12-4.69-.2-7-.06-1.5-.28-3-.29-4.5,0-2,.07-4,.16-6,0-.78.58-1,1.32-1.12,2.16-.2,4.33-.36,6.47-.68s4-.85,6-1.16c1.25-.19,2.54-.07,3.79-.2s2.59-.41,3.89-.63c.17,0,.36-.15.51-.11,2.24.55,4.46-.33,6.72-.11a17.68,17.68,0,0,0,4.75-.6c.65-.12,1,.15,1,.63.11,2.31.16,4.63.23,6.94,0,1.24,0,2.47,0,3.71s0,2.76,0,4.13c0,1.66.22,3.31.26,5,0,1.32-.13,2.64-.06,4,.12,2.29.37,4.58.51,6.86.07,1.2,0,2.4,0,3.6,0,2-.09,4.06-.06,6.09,0,1.69.17,3.37.26,5.06A1.35,1.35,0,0,1,70.91,71a26,26,0,0,0-5.64,1.28c-1.87.59-3.9.68-5.72,1.37a30.92,30.92,0,0,1-6.13,1.14c-1,.16-2,.76-3,.89-2.5.3-5,.42-7.53.68a7.3,7.3,0,0,0-1.77.57C40.68,77.11,40.29,77.35,39.88,77.56ZM69.13,25.79c-.73,0-1.4-.05-2,0-1.75.16-3.48.41-5.23.53-1.54.11-3.09,0-4.63.15-1.09.07-2.16.32-3.23.47-1.9.28-3.79.55-5.69.81l-2.91.36c-1.71.22-3.41.56-5.12.62-1.55.06-1.89.29-1.6,1.8a4.7,4.7,0,0,1,0,.65c0,1.63,0,3.27.07,4.91A26.48,26.48,0,0,1,38.91,39a20.17,20.17,0,0,0,.19,5.75,52.91,52.91,0,0,1,.62,5.78c0,.32-.19.66-.16,1,0,.64.26,1.27.28,1.91.09,1.84.13,3.68.15,5.53,0,1.69-.05,3.39,0,5.08.09,2.77.25,5.53.4,8.3,0,.68.15,1.36.21,1.94L43,74.18c.69,0,1.39,0,2.08-.1,1.19-.09,2.38-.16,3.55-.35,1.61-.27,3.21-.63,4.81-1,.49-.11,1-.33,1.45-.4a21.11,21.11,0,0,0,2.78-.29c2.12-.62,4.18-1.48,6.32-2,1.91-.52,3.89-.78,6-1.19,0-.42,0-1.11,0-1.81,0-.42-.09-.84-.11-1.26-.06-1.11-.12-2.22-.14-3.33,0-1.91-.08-3.82-.07-5.74a18.57,18.57,0,0,0,.1-3.93c-.56-2.51-.24-5-.26-7.5a14.22,14.22,0,0,0,0-3.39,10.7,10.7,0,0,1-.32-2.8c0-1.27-.08-2.54-.08-3.81C69.12,32.06,69.13,28.87,69.13,25.79Z"/><path class="cls-1" d="M56.66,85.9c-1.67.36-2.75-.8-3.56-1.77-.54-.65-.42-2-.27-3.07a4.85,4.85,0,0,1,5.41-3.77,2.61,2.61,0,0,1,2.19,2.34,16.28,16.28,0,0,1,.13,3.57.93.93,0,0,1-.27.67C59.18,84.75,58.33,86.11,56.66,85.9Zm1.66-4.76h0v-.75c0-.7-1-1.36-1.54-1a6.85,6.85,0,0,0-1.45,1.23c-.84,1-.74,2.55.12,3a2,2,0,0,0,2.86-1.51C58.35,81.78,58.32,81.46,58.32,81.14Z"/><path class="cls-1" d="M57.1,19.93l.7,1a2.69,2.69,0,0,1-2.28,1.31c-1.46.05-2.9.35-4.36.38-.48,0-1-.49-1.46-.76.41-.38.77-1,1.23-1.1,1.29-.25,2.62-.24,3.93-.39C55.61,20.3,56.35,20.09,57.1,19.93Z"/><path d="M69.13,25.79c0,3.08,0,6.27,0,9.47,0,1.27.08,2.54.08,3.81a10.7,10.7,0,0,0,.32,2.8,14.22,14.22,0,0,1,0,3.39c0,2.5-.3,5,.26,7.5a18.57,18.57,0,0,1-.1,3.93c0,1.92,0,3.83.07,5.74,0,1.11.08,2.22.14,3.33,0,.42.1.84.11,1.26,0,.7,0,1.39,0,1.81-2.14.41-4.12.67-6,1.19-2.14.57-4.2,1.43-6.32,2a21.11,21.11,0,0,1-2.78.29c-.49.07-1,.29-1.45.4-1.6.34-3.2.7-4.81,1-1.17.19-2.36.26-3.55.35-.69.06-1.39.07-2.08.1l-2.41.12c-.06-.58-.17-1.26-.21-1.94-.15-2.77-.31-5.53-.4-8.3-.06-1.69,0-3.39,0-5.08,0-1.85-.06-3.69-.15-5.53,0-.64-.23-1.27-.28-1.91,0-.31.19-.65.16-1a52.91,52.91,0,0,0-.62-5.78A20.17,20.17,0,0,1,38.91,39a26.48,26.48,0,0,0-.17-2.94c-.05-1.64-.05-3.28-.07-4.91a4.7,4.7,0,0,0,0-.65c-.29-1.51,0-1.74,1.6-1.8,1.71-.06,3.41-.4,5.12-.62l2.91-.36c1.9-.26,3.79-.53,5.69-.81,1.07-.15,2.14-.4,3.23-.47,1.54-.11,3.09,0,4.63-.15,1.75-.12,3.48-.37,5.23-.53C67.73,25.74,68.4,25.79,69.13,25.79Z"/><path class="cls-1" d="M58.32,81.14c0,.32,0,.64,0,1a2,2,0,0,1-2.86,1.51c-.86-.43-1-2-.12-3a6.85,6.85,0,0,1,1.45-1.23c.56-.37,1.54.29,1.54,1v.75Z"/></svg>