<svg id="Layer_1" data-name="Layer 1" xmlns="http://www.w3.org/2000/svg" viewBox="0 0 135 135"><defs><style>.cls-1{fill:#fff;}</style></defs><title>icons</title><path d="M135.76,135.05H0V119.49c4-1.89,6.51-5.37,9-8.73a6.16,6.16,0,0,0,.94-4.39,30.51,30.51,0,0,0-2.54-6.82c-.89-1.9-1.75-3.72-1.54-5.91a2.68,2.68,0,0,1,1.92-2.5,6.87,6.87,0,0,1,6.52,1.72,1.82,1.82,0,0,1,.34,1c.11,1.6.26,3.2.21,4.8a3.23,3.23,0,0,0,1.63,3.06c.68.42,1.35.86,2.05,1.24,3.78,2,7.58,4,11.35,6,2.73,1.48,3.5,1.07,3.4-2-.17-5.18-.42-10.35-.64-15.53,0-1-.09-2,1.59-2.27A27.49,27.49,0,0,1,31,88.46C26,86.64,21,84.78,15.92,82.92c-1.77-.66-1.9-.6-1.82,1.22.09,2.15.24,4.29.37,6.6-.76-.32-1.31-.56-1.88-.77-3.05-1.18-5-.58-7,2a6,6,0,0,0-.8,6.15,30.15,30.15,0,0,0,2.83,5.16c1,1.56,1.83,3.11,1.47,5a4,4,0,0,1-.77,1.21,5.33,5.33,0,0,1-.81-1A6,6,0,0,0,0,104.78V70.84c.7-.24,1.94.52,2-.71s-1.22-.67-1.9-.94l-.13,0V-.72H135.66V111.89a17.58,17.58,0,0,0-2.19,0c-1.18.14-1.45-.42-1.41-1.47.07-1.78,0-3.56,0-5.43h-3.19l-.3,2.36c-4.94-2.28-9.72-4.49-14.5-6.68a9,9,0,0,0-4.94-.87c-8,.79-16.06,1.23-24.1,1.81-3.37.24-6.75.54-10.13.78-2.19.16-4.38.28-6.61.41l-.49-3.55c-4.16.33-8.23.65-12.31,1-1.79.15-2.44,1.41-1.58,3.06a4.76,4.76,0,0,0,.55.72l-2.08.28,0,.38c.57,0,1.15,0,1.72,0l8.17-.71c.42,0,.94-.18,1.24,0,1.16.73,2.25,1.58,3.5,2.49-3.28.51-6.41,1-9.34-1.18l-.1.45L59.34,107l-.09.38a35.2,35.2,0,0,1-4.48,0,35.82,35.82,0,0,1-4.47-1.21l1.54,1.39c-3,0-5.76.91-8.27-1.06a68.16,68.16,0,0,0,6.28,4.1c.81.48,1.95.73,2.39,1.43.63,1,1.35.81,2.15.74,13-1.11,26-2.18,39-3.4,7.78-.72,15.55-1.68,23.32-2.54.82-.09,1.64-.25,2.47-.38l0-.37c-2-.14-4.38,1.06-6-1.36l4.29-.45c-2.15-1-4.65.69-6.89-1.19l2.7-.44,0-.38c-1.92-.18-4.11.62-5.57-1.34,2.64-.79,3.61-.81,5.82.19,4,1.81,8,3.67,11.93,5.52.38.17.73.41,1.28.73l-13.8,1.4c-8.76.9-17.52,1.83-26.29,2.7q-16.8,1.66-33.62,3.25a2.71,2.71,0,0,1-1.51-.12c-2.48-1.52-4.91-3.13-7.1-4.54v-1.73l-1.74.47-3.53-2.39c-1.18-.81-1.71-.61-2.1.79a2.32,2.32,0,0,0-.16.68c0,1.34-.82,1.62-1.91,1.68-.5,0-1,.12-1.48.18l.05.35H36.6c-.4,2.38,1.2,3,2.88,3.75,3.24,1.41,6.37,3,9.61,4.46a6.59,6.59,0,0,0,3.12.56q14.73-1.17,29.44-2.51c12.62-1.18,25.22-2.48,37.84-3.69,3.26-.31,6.53-.46,10.07-.71a9.16,9.16,0,0,0-.78,1.36c-.88,2.36.1,3.74,2.59,3.71,1.43,0,2.87,0,4.25,0a2.25,2.25,0,0,1,.12.42Q135.76,126.21,135.76,135.05ZM32.18,17.42c-.16.16-.46.32-.46.47.08,4,0,8,.32,12,.89,10.44.85,20.89.7,31.35-.05,3.35,0,6.69,0,10,0,.89.17,1.75,1.33,1.76,2.69,0,5.38.12,8.05,0,5.31-.29,10.62-.78,15.93-1.06,8.89-.48,17.78-.86,26.68-1.29,4.07-.2,8.13-.45,12.33-.68V68.63c-.07-6.17-.16-12.34-.2-18.52,0-3.76,0-7.53,0-11.3,0-3.25-.12-6.5-.08-9.75a14.68,14.68,0,0,1,.67-2.38,3.16,3.16,0,0,0-.1-1.36,17,17,0,0,1-.54-1.72,19.6,19.6,0,0,1,0-3.25c.09-1.11-.2-1.61-1.42-1.65-2.71-.09-5.42-.34-8.14-.5-3.76-.21-7.52-.5-11.28-.58-10.92-.24-21.84-.38-32.76-.57-3.1-.06-6.21-.18-9.32-.18a5.86,5.86,0,0,0-1.77.59ZM17.73,19.48c0-2.3-.05-4.61,0-6.91,0-1.21-.58-1.43-1.57-1.36s-2.15-.33-2,1.34c0,.08-.07.16-.12.27l-1.26.08v7l1.27.36a26.87,26.87,0,0,0,.05,3.92,3.88,3.88,0,0,0,1.16,2.38c.53.39,1.59.08,2.4.08l.38-1.29a3.42,3.42,0,0,1,.08,2.09,29.37,29.37,0,0,0-1,10.73c.46,7.14.52,14.31.64,21.47a14.85,14.85,0,0,0,1.11,5.48,9.49,9.49,0,0,1,.64,3.25c0,3.39-.12,6.78,0,10.17A3.51,3.51,0,0,0,20.64,81a2.26,2.26,0,0,1,1.09,2.21,8.88,8.88,0,0,0,.09,1.36c3.06.56,6,1.13,9,1.62a21.06,21.06,0,0,0,4.57.55c10.91-.57,21.84-.38,32.73-1.72,8.08-1,16.24-1.34,24.37-1.91,1.32-.09,1.91-.55,1.82-1.88-.05-.78,0-1.56,0-2.3H84V73.52h-.42v5.73c-4.29.27-8.42.55-12.55.79-3.72.23-7.43.46-11.15.62a3.26,3.26,0,0,1-3.31-2.89c.24,0,.53.09.68,0a10.16,10.16,0,0,0,1-.93L57.1,75.61a4.43,4.43,0,0,0-.86,1.11A6.64,6.64,0,0,0,56,78.46c-.16,2.34.05,2-2.33,2.49a5.43,5.43,0,0,1-1,0l-17.23.64a7.55,7.55,0,0,0-1.06.17,1.82,1.82,0,0,0,1.28.41c7.65-.28,15.3-.5,23-.86,6.35-.29,12.7-.73,19.05-1.1q7.33-.42,14.68-.86c.82,0,1.43.08,1.33,1.09-.08.85.34,1.94-1.25,2-2.11,0-4.23.3-6.34.39-8.24.36-16.42,2.21-24.72,1-.8-.11-1.9.29-2.08-1.09,0-.12-.47-.26-.72-.26-.82,0-1.65.08-2.42.12a4.81,4.81,0,0,1-3.23,2.7c-1.64.1-3.29.16-4.93.23-4.43.2-8.85.41-13.27.54-.52,0-1.48-.39-1.51-.68a29.19,29.19,0,0,1,0-3.84c-2-1-2-1-2-3.62.06-3.25.19-6.5.21-9.75,0-7.3.16-14.61,0-21.91-.21-10.13-.63-20.26-1-30.38,0-1,.29-1.44,1.34-1.45,2.78,0,5.56-.26,8.34-.17,17.71.53,35.42,1.13,53.13,1.7.47,0,.94,0,1.41,0v-.45c-.86-.06-1.72-.17-2.59-.18-3.34-.07-6.69-.06-10-.18C69,14.76,55.85,14.06,42.7,13.84c-7.28-.13-14.58.52-21.87.84a10.87,10.87,0,0,0-1.27.22l.06.42L30,14.71c0,2.36-.05,4.6,0,6.85.32,13.66.7,27.32,1,41,.12,6.32,0,12.65,0,19.18-2.59-.14-5.22-.29-7.85-.4-2-.09-3-.92-3.2-2.93A24,24,0,0,1,19.9,75c.52-11.4.4-22.8-.17-34.2-.26-5.07-.36-10.16-.54-15.23l.34,0,.83,11.74.49,0L20.29,25.1h6V20H19.85l1.24-3.87c-1.61.7-1.25,2.44-2.13,3.63V14.92C17.56,16.32,18.34,18,17.73,19.48ZM35.38,88.56V89c.45,0,.9,0,1.35,0,7.38-.45,14.76-.82,22.13-1.38,8.44-.64,16.88-1.46,25.32-2.18,6-.51,11.92-1,17.88-1.46,2.18-.16,2.2-.06,2.25,2.07.1,4.14.18,8.29.27,12.43,0,.43.05.86.07,1.29h.4a10.54,10.54,0,0,0,.09-1.13c-.11-4.61-.35-9.23-.28-13.84,0-1.63-.72-1.9-1.93-2.07-2.52-.37-5-.77-7.54-1.13a3.37,3.37,0,0,0-.83.07l0,.34,6.2,1.24v.4Zm31.87-.13V88a4,4,0,0,0-.77-.08c-3.85.21-7.71.4-11.56.65-5.55.35-11.09.74-16.64,1.09-.9.06-1.62.23-1.53,1.35l.6,6.89c.11,1.32.84,1.73,2.11,1.61,2.07-.19,4.14-.24,6.21-.38,7.09-.48,14.19-1,21.29-1.46,1-.07,1.58-.49,1.59-1.55,0-2.31.1-4.61.09-6.92,0-.38-.36-.76-.62-1.28,0,2.9,0,5.5,0,8.11,0,.88-.62,1-1.36,1Q53.06,98,39.45,99c-1,.07-1.48-.3-1.56-1.3-.13-1.79-.31-3.56-.47-5.34-.18-2-.18-2,1.83-2.16l21.3-1.27C62.78,88.77,65,88.59,67.25,88.43ZM32.55,74.66l0,.47c.5,0,1,0,1.5,0,2-.1,3.94-.24,5.92-.33,12.46-.6,24.93-1.18,37.39-1.82,1.2-.07,1.59.24,1.59,1.42,0,1.4.17,2.8.27,4.2l.36,0V72.94c5.45-.62,10.92,0,16.24-1.36Zm62.34,4.6A2.6,2.6,0,0,0,98.23,77a37,37,0,0,0,.18-4.08q.16-26.07.3-52.14a17.44,17.44,0,0,0-.24-3.23c-.31-1.68-1.38-2.21-3.24-1.61a2.87,2.87,0,0,0,.76.22c1.5,0,2,.91,2.06,2.16a21.25,21.25,0,0,1,.07,2.26c-.07,4.09-.22,8.18-.24,12.27q-.06,21-.06,42C97.81,78,97.54,78.35,94.89,79.26ZM38.7,94.38l0,.58a14.44,14.44,0,0,0,2.16.25c5-.15,10.06-.34,15.09-.53a1.71,1.71,0,0,0,.83-.12,3.52,3.52,0,0,0,.71-.73,4.1,4.1,0,0,0-.69-.57,2,2,0,0,0-.83-.13c-5.22.25-10.44.5-15.65.79A7.67,7.67,0,0,0,38.7,94.38Zm5.9,11.08h0c2-.12,4-.23,6-.36,1.13-.07,1.59-.67,1.34-1.79-.09-.41-.18-.83-.23-1.25-.11-1.12-.76-1.53-1.82-1.44-3.65.31-7.29.67-10.95.91-1.54.1-1.72,1-1.6,2.18.15,1.72.44,2.06,2,2C41.14,105.67,42.87,105.55,44.6,105.46ZM41.07,75.52c0,1.07,0,2.42,0,3.76,0,.25.42.62.71.69,2.66.64,3.78-.12,4.16-2.76.26-1.78.1-2-1.72-1.86ZM90.62,88.08l-.57,0,.69,11.19.52,0ZM81.74,98.57l.63,0c-.31-3.4-.61-6.8-.92-10.21l-.52,0Zm16.06-.42.53,0-.66-11.19-.55,0ZM86,99c.6-.79-.1-9.85-1-10.79C85.33,91.78,85.66,95.34,86,99ZM83.66,88.78h-.23V98.89l.23,0Zm-4.51-.32h-.29V98.59h.29Zm13.56,10,.52,0Q93,93.17,92.74,87.9l-.55,0C92.36,91.44,92.54,95,92.71,98.46Zm2.68-11.32c-.7,2.34-.23,9.78.46,10.35C95.69,94,95.54,90.54,95.39,87.14ZM88.47,98.23h.34v-10h-.34Zm-21.7-5.15,0-.58L59.57,93l0,.53ZM88,78.17l.3,0V72.91H88Zm2.11-.3.53-.05c-.09-1.62-.17-3.23-.25-4.85l-.52,0Zm-37.2.85c.37-.74.75-1.16.72-1.54s-.52-.61-.81-.91c-.28.37-.71.72-.78,1.13S52.43,78.05,52.89,78.72Zm28.36-.27h.54c-.08-1.59-.16-3.19-.23-4.78l-.31,0Zm11.3-5.51L92,73c.1,1.51.2,3,.31,4.54l.5,0Zm-6.22.47H86v4.65h.31Z"/><path class="cls-1" d="M135.76,135.05q0-8.85,0-17.68a2.25,2.25,0,0,0-.12-.42c-1.38,0-2.82,0-4.25,0-2.49,0-3.47-1.35-2.59-3.71a9.16,9.16,0,0,1,.78-1.36c-3.54.25-6.81.4-10.07.71-12.62,1.21-25.22,2.51-37.84,3.69q-14.72,1.36-29.44,2.51a6.59,6.59,0,0,1-3.12-.56c-3.24-1.42-6.37-3-9.61-4.46C37.8,113,36.2,112.4,36.6,110H33.45l-.05-.35c.49-.06,1-.16,1.48-.18,1.09-.06,1.95-.34,1.91-1.68a2.32,2.32,0,0,1,.16-.68c.39-1.4.92-1.6,2.1-.79l3.53,2.39,1.74-.47V110c2.19,1.41,4.62,3,7.1,4.54a2.71,2.71,0,0,0,1.51.12Q69.75,113,86.55,111.4c8.77-.87,17.53-1.8,26.29-2.7l13.8-1.4c-.55-.32-.9-.56-1.28-.73-4-1.85-7.93-3.71-11.93-5.52-2.21-1-3.18-1-5.82-.19,1.46,2,3.65,1.16,5.57,1.34l0,.38-2.7.44c2.24,1.88,4.74.18,6.89,1.19l-4.29.45c1.66,2.42,4,1.22,6,1.36l0,.37c-.83.13-1.65.29-2.47.38-7.77.86-15.54,1.82-23.32,2.54-13,1.22-26,2.29-39,3.4-.8.07-1.52.27-2.15-.74-.44-.7-1.58-1-2.39-1.43a68.16,68.16,0,0,1-6.28-4.1c2.51,2,5.31,1.06,8.27,1.06l-1.54-1.39a35.82,35.82,0,0,0,4.47,1.21,35.2,35.2,0,0,0,4.48,0l.09-.38-1.71-1.21.1-.45c2.93,2.23,6.06,1.69,9.34,1.18-1.25-.91-2.34-1.76-3.5-2.49-.3-.2-.82-.06-1.24,0l-8.17.71c-.57,0-1.15,0-1.72,0l0-.38,2.08-.28a4.76,4.76,0,0,1-.55-.72c-.86-1.65-.21-2.91,1.58-3.06,4.08-.35,8.15-.67,12.31-1l.49,3.55c2.23-.13,4.42-.25,6.61-.41,3.38-.24,6.76-.54,10.13-.78,8-.58,16.09-1,24.1-1.81a9,9,0,0,1,4.94.87c4.78,2.19,9.56,4.4,14.5,6.68l.3-2.36h3.19c0,1.87,0,3.65,0,5.43,0,1,.23,1.61,1.41,1.47a17.58,17.58,0,0,1,2.19,0V-.72H0A5.16,5.16,0,0,1,1.13-1H136.05q0,67.38,0,134.77A5.85,5.85,0,0,1,135.76,135.05Zm-84.3-16.88c.7,0,1.36,0,2,0,2.86-.24,5.72-.53,8.58-.78,7.79-.69,15.58-1.31,23.37-2.06,9.84-.95,19.67-2,29.52-3q6.18-.61,12.38-1c1.49-.1,1.48-.94,1.3-2-.22-1.41-1.23-1.33-2.25-1.23-7.59.74-15.19,1.45-22.78,2.23-11.48,1.18-23,2.43-34.43,3.59-5.34.54-10.7.92-16,1.42a1.74,1.74,0,0,0-1.22.79A8.42,8.42,0,0,0,51.46,118.17Zm47.33-16.35c3.07,2.06,6.17.29,9.46.68a3.76,3.76,0,0,0-3.61-1.7c-4.45.44-8.91.84-13.37,1.16-6.65.47-13.31.84-20,1.28-2.29.15-4.57.41-7,.62a10.19,10.19,0,0,0,10.47,1.52l-1.24-1.12.13-.41c3.24,2.74,6.6.52,10,.74L83,103.27c3.16,1.74,6.1.43,9.43.56a10.19,10.19,0,0,1-.84-.78,8.16,8.16,0,0,1-.44-.9c3,2.15,5.7.82,8.63.88ZM38,106.41l-.54.18c-.08,1.58-.21,3.15-.21,4.72a1.49,1.49,0,0,0,.7,1.1q5.79,2.78,11.64,5.43a1.3,1.3,0,0,0,1.19-.24,2,2,0,0,0-.48-3l-11-7.4C38.87,106.91,38.44,106.67,38,106.41Zm29.32-6.5-11.67,1c-.69.06-1.43,0-1.41,1.08s.51,1.43,1.48,1.37c2.15-.15,4.3-.27,6.45-.44,1.77-.13,3.53-.33,5.4-.51Zm20.57,7.14c-1.13-.72-2.09-1.82-3.07-1.85a66.94,66.94,0,0,0-7.63.63C80.22,108.3,82.29,108.51,87.9,107.05ZM68,110.93c-2.83-1.59-5.65-.28-8.45-.1a7.64,7.64,0,0,0,3,.69c2,0,4-.19,6-.35,2.21-.17,4.42-.39,6.63-.58-2.52-1.69-5.09-.51-7.72-.62Zm28.26-4.71c-2.46-2.14-7.21-2.46-9.34-.56,1,.47,1.92,1.22,2.81,1.22C91.84,106.86,93.93,106.48,96.28,106.22ZM79.35,107.9c-1.24-.6-2.45-1.6-3.72-1.7a29.14,29.14,0,0,0-5.7.63C72.85,109.18,76,108.91,79.35,107.9Zm-7.2,1.16c-3-2.82-6.24-1.85-9.63-1.32C65.57,110.18,68.83,109.17,72.15,109.06Zm-8.06.63a9.38,9.38,0,0,0-9.3-1.42C57.55,110.61,60.75,109.79,64.09,109.69Zm41.42-4.11c2.65,2.47,5.5,1,8.32.82-.71-.69-1.5-1.54-2.28-1.53A56.77,56.77,0,0,0,105.51,105.58ZM94.78,104c2,2.08,5.09,2.4,8,1C100.46,102.36,97.64,104.09,94.78,104Zm-38.94,5.9c-2.49-2.8-5.43-1.69-8.52-1.63C50,110.78,52.89,110,55.84,109.94Zm46.37-6.37c2.71,2.56,5.6.68,8.42.53C107.93,102,105,103.58,102.21,103.57Zm-11.77,4-.09.44c.65.28,1.31.82,1.94.79,2.31-.12,4.6-.43,6.9-.66l.08-.35c-.68-.34-1.38-1-2-1C95,106.9,92.7,107.26,90.44,107.53Zm.35,1.63c-1.67-1.53-6.27-1.5-8.58-.15C85.05,110.34,87.74,109,90.79,109.16Zm7.73-2.68c2.58,2.36,5.09.84,7.78,1C103.84,104.74,101.28,106.48,98.52,106.48Zm-39.08,5.24c-2.33-1.88-4.94-1.1-7.74-1C54.21,113.08,56.91,111.57,59.44,111.72Zm16.1-2.26c1.07,1.08,3.64,1.12,6.47.2C80.84,108.53,80.57,108.69,75.54,109.46Z"/><path class="cls-1" d="M0,104.78a6,6,0,0,1,7.46,3.7,5.33,5.33,0,0,0,.81,1A4,4,0,0,0,9,108.26c.36-1.9-.5-3.45-1.47-5a30.15,30.15,0,0,1-2.83-5.16,6,6,0,0,1,.8-6.15c2-2.55,4-3.15,7.05-2,.57.21,1.12.45,1.88.77-.13-2.31-.28-4.45-.37-6.6-.08-1.82.05-1.88,1.82-1.22C21,84.78,26,86.64,31,88.46a27.49,27.49,0,0,0,3.24.71c-1.68.29-1.64,1.27-1.59,2.27.22,5.18.47,10.35.64,15.53.1,3.11-.67,3.52-3.4,2-3.77-2-7.57-4-11.35-6-.7-.38-1.37-.82-2.05-1.24a3.23,3.23,0,0,1-1.63-3.06c0-1.6-.1-3.2-.21-4.8a1.82,1.82,0,0,0-.34-1,6.87,6.87,0,0,0-6.52-1.72,2.68,2.68,0,0,0-1.92,2.5c-.21,2.19.65,4,1.54,5.91A30.51,30.51,0,0,1,10,106.37,6.16,6.16,0,0,1,9,110.76c-2.53,3.36-5,6.84-9,8.73v-1.13c2.06-1.29,4.36-2.3,5.64-4.42L0,113.55v-1.7a37.62,37.62,0,0,0,4.67.7,2.17,2.17,0,0,0,1.66-1.15,5.1,5.1,0,0,0-1.71-5.2c-1.59-1.11-3.13-.58-4.62.28ZM14.9,83.14c-.51,1.24.09,1.68.9,2L28.3,90c.46.18.89.44,1.34.66l-.15.36L14.78,85.46c.23,4.2.63,8.19.61,12.18a4.52,4.52,0,0,0,2.83,4.51c4.18,2.16,8.31,4.41,12.47,6.6,1.74.92,2.12.69,2.06-1.32-.18-5.69-.42-11.38-.58-17.08,0-1-.67-1.1-1.33-1.33-3.25-1.1-6.52-2.17-9.75-3.34C19,84.93,17,84,14.9,83.14ZM5.16,94.39c-.73,3.76,1.24,6.49,3.64,9.48C7.83,100.34,5,97.93,5.16,94.39Z"/><path d="M0,106.48c1.49-.86,3-1.39,4.62-.28a5.1,5.1,0,0,1,1.71,5.2,2.17,2.17,0,0,1-1.66,1.15,37.62,37.62,0,0,1-4.67-.7Z"/><path d="M0,113.55l5.64.39c-1.28,2.12-3.58,3.13-5.64,4.42Z"/><path class="cls-1" d="M17.73,19.48c.61-1.45-.17-3.16,1.23-4.56v4.79c.88-1.19.52-2.93,2.13-3.63L19.85,20H26.3V25.1h-6l.56,12.15-.49,0-.83-11.74-.34,0c.18,5.07.28,10.16.54,15.23.57,11.4.69,22.8.17,34.2A24,24,0,0,0,20,78.39c.2,2,1.19,2.84,3.2,2.93,2.63.11,5.26.26,7.85.4,0-6.53.1-12.86,0-19.18-.27-13.66-.65-27.32-1-41-.05-2.25,0-4.49,0-6.85l-10.41.61-.06-.42a10.87,10.87,0,0,1,1.27-.22c7.29-.32,14.59-1,21.87-.84,13.15.22,26.28.92,39.42,1.39,3.34.12,6.69.11,10,.18.87,0,1.73.12,2.59.18V16c-.47,0-.94,0-1.41,0-17.71-.57-35.42-1.17-53.13-1.7-2.78-.09-5.56.14-8.34.17-1.05,0-1.38.43-1.34,1.45.36,10.12.78,20.25,1,30.38.16,7.3,0,14.61,0,21.91,0,3.25-.15,6.5-.21,9.75-.05,2.65,0,2.65,2,3.62a29.19,29.19,0,0,0,0,3.84c0,.29,1,.7,1.51.68,4.42-.13,8.84-.34,13.27-.54,1.64-.07,3.29-.13,4.93-.23a4.81,4.81,0,0,0,3.23-2.7c.77,0,1.6-.11,2.42-.12.25,0,.7.14.72.26.18,1.38,1.28,1,2.08,1.09,8.3,1.16,16.48-.69,24.72-1,2.11-.09,4.23-.36,6.34-.39,1.59,0,1.17-1.12,1.25-2,.1-1-.51-1.14-1.33-1.09q-7.33.45-14.68.86c-6.35.37-12.7.81-19.05,1.1-7.65.36-15.3.58-23,.86a1.82,1.82,0,0,1-1.28-.41,7.55,7.55,0,0,1,1.06-.17L52.69,81a5.43,5.43,0,0,0,1,0c2.38-.53,2.17-.15,2.33-2.49a6.64,6.64,0,0,1,.23-1.74,4.43,4.43,0,0,1,.86-1.11l1.22,1.21a10.16,10.16,0,0,1-1,.93c-.15.11-.44,0-.68,0a3.26,3.26,0,0,0,3.31,2.89c3.72-.16,7.43-.39,11.15-.62,4.13-.24,8.26-.52,12.55-.79V73.52H84v5.39H94.28c0,.74,0,1.52,0,2.3.09,1.33-.5,1.79-1.82,1.88C84.34,83.66,76.18,84,68.1,85c-10.89,1.34-21.82,1.15-32.73,1.72a21.06,21.06,0,0,1-4.57-.55c-3-.49-5.92-1.06-9-1.62a8.88,8.88,0,0,1-.09-1.36A2.26,2.26,0,0,0,20.64,81a3.51,3.51,0,0,1-1.16-2.41c-.09-3.39.08-6.78,0-10.17a9.49,9.49,0,0,0-.64-3.25,14.85,14.85,0,0,1-1.11-5.48c-.12-7.16-.18-14.33-.64-21.47a29.37,29.37,0,0,1,1-10.73,3.42,3.42,0,0,0-.08-2.09l-.38,1.29c-.81,0-1.87.31-2.4-.08a3.88,3.88,0,0,1-1.16-2.38,26.87,26.87,0,0,1-.05-3.92l-1.27-.36v-7l1.26-.08c0-.11.12-.19.12-.27-.17-1.67,1.05-1.28,2-1.34s1.61.15,1.57,1.36C17.68,14.87,17.73,17.18,17.73,19.48Zm.91,10.1-.42,0a34.91,34.91,0,0,0-.59,5c0,3.05.43,6.09.51,9.15.15,5.69.13,11.38.28,17.07a23,23,0,0,0,.68,3.73l.49-.07C20,52.77,19,41.18,18.64,29.58ZM32.42,82.1H22.05c.32.74.49,1.83.89,1.93,3.11.72,6.25,1.25,9.48,1.86Z"/><path class="cls-1" d="M32.14,17.46a5.86,5.86,0,0,1,1.77-.59c3.11,0,6.22.12,9.32.18,10.92.19,21.84.33,32.76.57,3.76.08,7.52.37,11.28.58,2.72.16,5.43.41,8.14.5,1.22,0,1.51.54,1.42,1.65a19.6,19.6,0,0,0,0,3.25,17,17,0,0,0,.54,1.72,3.16,3.16,0,0,1,.1,1.36,14.68,14.68,0,0,0-.67,2.38c0,3.25.07,6.5.08,9.75,0,3.77-.06,7.54,0,11.3,0,6.18.13,12.35.2,18.52V70c-4.2.23-8.26.48-12.33.68-8.9.43-17.79.81-26.68,1.29-5.31.28-10.62.77-15.93,1.06-2.67.14-5.36,0-8.05,0-1.16,0-1.32-.87-1.33-1.76,0-3.35-.06-6.69,0-10,.15-10.46.19-20.91-.7-31.35-.34-4-.24-8-.32-12,0-.15.3-.31.47-.47a5.5,5.5,0,0,1,.11.69c.38,8.8.9,17.6,1.07,26.41s0,17.53,0,26.3c0,.54.08,1.07.15,1.89l62.71-3.25V27.16H96l-.38,1.3-.41-.74a17.94,17.94,0,0,0-.27,3.7q0,8-.1,16c0,6.12,0,12.25-.13,18.37A1.79,1.79,0,0,1,94,67.11c-2.74,1.5-5.77,1-8.67,1.5l-.08-.47L93.61,67l-1.39-1.9.23-.19L94,66c.17-13,.33-25.83.49-38.74l-1.53,1.29c.17,6,.49,11.92.45,17.79a95.87,95.87,0,0,1-1.73,17.55,3,3,0,0,1-.18-1.43c.41-4.55,1-9.09,1.21-13.65a90.06,90.06,0,0,0-1.2-22.53c-.53-2.63-.73-3-3.48-3.25-3-.27-5.91-.62-8.87-.69-12.3-.28-24.6-.47-36.9-.69-2.47,0-4.87.23-6.88,1.89l0,0c.31-.46.53-1.12,1-1.33a8.34,8.34,0,0,1,3.06-1c2.62-.14,5.26-.12,7.89-.06,14.66.37,29.35,0,44,1.49a1.4,1.4,0,0,0,1.66-.95l0,0c.87-.64,1.39-.28,1.65.63A5.81,5.81,0,0,1,94.8,24c0,1,.39,1.24,1.47.87,0-1.39,0-2.8,0-4.2,0-.84-.19-1.34-1.14-1.35-1.45,0-2.91-.11-4.36-.19-6.76-.34-13.52-.82-20.29-1-9.21-.26-18.42-.3-27.63-.44Zm61.78,4.83-.64-.13-1.12,2.56,2.09.56Z"/><path class="cls-1" d="M35.38,88.56l65.35-5v-.4L94.53,82l0-.34a3.37,3.37,0,0,1,.83-.07c2.51.36,5,.76,7.54,1.13,1.21.17,2,.44,1.93,2.07-.07,4.61.17,9.23.28,13.84a10.54,10.54,0,0,1-.09,1.13h-.4c0-.43-.06-.86-.07-1.29-.09-4.14-.17-8.29-.27-12.43,0-2.13-.07-2.23-2.25-2.07-6,.44-11.92,1-17.88,1.46-8.44.72-16.88,1.54-25.32,2.18-7.37.56-14.75.93-22.13,1.38-.45,0-.9,0-1.35,0Z"/><path class="cls-1" d="M67.25,88.43c-2.23.16-4.47.34-6.7.47l-21.3,1.27c-2,.12-2,.13-1.83,2.16.16,1.78.34,3.55.47,5.34.08,1,.54,1.37,1.56,1.3q13.61-1,27.2-1.87c.74,0,1.36-.17,1.36-1,0-2.61,0-5.21,0-8.11.26.52.61.9.62,1.28,0,2.31-.06,4.61-.09,6.92,0,1.06-.58,1.48-1.59,1.55-7.1.47-14.2,1-21.29,1.46-2.07.14-4.14.19-6.21.38-1.27.12-2-.29-2.11-1.61L36.75,91c-.09-1.12.63-1.29,1.53-1.35,5.55-.35,11.09-.74,16.64-1.09,3.85-.25,7.71-.44,11.56-.65a4,4,0,0,1,.77.08Z"/><path class="cls-1" d="M32.55,74.66l63.24-3.08c-5.32,1.34-10.79.74-16.24,1.36v5.62l-.36,0c-.1-1.4-.27-2.8-.27-4.2,0-1.18-.39-1.49-1.59-1.42-12.46.64-24.93,1.22-37.39,1.82-2,.09-3.95.23-5.92.33-.5,0-1,0-1.5,0Z"/><path class="cls-1" d="M94.89,79.26c2.65-.91,2.92-1.31,2.93-4.45q0-21,.06-42c0-4.09.17-8.18.24-12.27a21.25,21.25,0,0,0-.07-2.26c-.11-1.25-.56-2.21-2.06-2.16a2.87,2.87,0,0,1-.76-.22c1.86-.6,2.93-.07,3.24,1.61a17.44,17.44,0,0,1,.24,3.23q-.13,26.07-.3,52.14A37,37,0,0,1,98.23,77,2.6,2.6,0,0,1,94.89,79.26Z"/><path class="cls-1" d="M38.7,94.38a7.67,7.67,0,0,1,1.65-.46c5.21-.29,10.43-.54,15.65-.79a2,2,0,0,1,.83.13,4.1,4.1,0,0,1,.69.57,3.52,3.52,0,0,1-.71.73,1.71,1.71,0,0,1-.83.12c-5,.19-10.06.38-15.09.53A14.44,14.44,0,0,1,38.73,95Zm15.39-.25.07.14H42v.33Z"/><path class="cls-1" d="M44.6,105.46c-1.73.09-3.46.21-5.2.26-1.57,0-1.86-.29-2-2-.12-1.23.06-2.08,1.6-2.18,3.66-.24,7.3-.6,10.95-.91,1.06-.09,1.71.32,1.82,1.44.05.42.14.84.23,1.25.25,1.12-.21,1.72-1.34,1.79-2,.13-4,.24-6,.36Zm6.68-.95c.2-3.22,0-3.46-2.89-3.14q-.49.06-1,.09c-2.82.23-5.63.48-8.45.68-1,.07-1,.73-1,1.48s.08,1.48,1.1,1.43C43.14,104.88,47.23,104.69,51.28,104.51Z"/><path class="cls-1" d="M41.07,75.52l3.19-.17c1.82-.1,2,.08,1.72,1.86-.38,2.64-1.5,3.4-4.16,2.76-.29-.07-.7-.44-.71-.69C41,77.94,41.07,76.59,41.07,75.52Zm.58,3.79c3.52.27,4.18-.35,3.62-3.42l-3.62.32Z"/><path class="cls-1" d="M90.62,88.08l.64,11.19-.52,0-.69-11.19Z"/><path class="cls-1" d="M81.74,98.57l-.81-10.13.52,0c.31,3.41.61,6.81.92,10.21Z"/><path class="cls-1" d="M97.8,98.15,97.12,87l.55,0,.66,11.19Z"/><path class="cls-1" d="M86,99c-.33-3.67-.66-7.23-1-10.79C85.89,89.16,86.59,98.22,86,99Z"/><path class="cls-1" d="M83.66,88.78V98.86l-.23,0V88.78Z"/><path class="cls-1" d="M79.15,88.46V98.58h-.29V88.47Z"/><path class="cls-1" d="M92.71,98.46c-.17-3.51-.35-7-.52-10.53l.55,0q.26,5.26.49,10.53Z"/><path class="cls-1" d="M95.39,87.14c.15,3.4.3,6.81.46,10.35C95.16,96.92,94.69,89.48,95.39,87.14Z"/><ellipse class="cls-1" cx="88.64" cy="93.22" rx="0.24" ry="7.09"/><path class="cls-1" d="M66.77,93.08l-7.16.4,0-.53,7.17-.45Z"/><path class="cls-1" d="M88,78.17V72.91h.3v5.24Z"/><path class="cls-1" d="M90.09,77.87,89.85,73l.52,0c.08,1.62.16,3.23.25,4.85Z"/><path class="cls-1" d="M52.89,78.72c-.46-.67-.92-1-.87-1.32s.5-.76.78-1.13c.29.3.79.58.81.91S53.26,78,52.89,78.72Z"/><path class="cls-1" d="M81.25,78.45V73.68l.31,0c.07,1.59.15,3.19.23,4.78Z"/><path class="cls-1" d="M92.55,72.94l.29,4.53-.5,0c-.11-1.51-.21-3-.31-4.54Z"/><path class="cls-1" d="M86.33,73.41v4.65H86V73.42Z"/><path d="M51.46,118.17a8.42,8.42,0,0,1,.43-2.09,1.74,1.74,0,0,1,1.22-.79c5.34-.5,10.7-.88,16-1.42,11.48-1.16,22.95-2.41,34.43-3.59,7.59-.78,15.19-1.49,22.78-2.23,1-.1,2-.18,2.25,1.23.18,1.07.19,1.91-1.3,2q-6.19.43-12.38,1c-9.85,1-19.68,2-29.52,3-7.79.75-15.58,1.37-23.37,2.06-2.86.25-5.72.54-8.58.78C52.82,118.22,52.16,118.17,51.46,118.17Z"/><path d="M98.79,101.82l1,1.21c-2.93-.06-5.67,1.27-8.63-.88a8.16,8.16,0,0,0,.44.9,10.19,10.19,0,0,0,.84.78c-3.33-.13-6.27,1.18-9.43-.56l.72,1.32c-3.41-.22-6.77,2-10-.74l-.13.41,1.24,1.13a10.22,10.22,0,0,1-10.47-1.53c2.41-.21,4.69-.47,7-.62,6.66-.44,13.32-.81,20-1.28,4.46-.32,8.92-.72,13.37-1.16a3.76,3.76,0,0,1,3.61,1.7C105,102.11,101.86,103.88,98.79,101.82Z"/><path d="M38,106.41c.43.26.86.5,1.27.78l11,7.4a2,2,0,0,1,.48,3,1.3,1.3,0,0,1-1.19.24q-5.85-2.66-11.64-5.43a1.49,1.49,0,0,1-.7-1.1c0-1.57.13-3.14.21-4.72Z"/><path d="M67.33,99.91l.25,2.45c-1.87.18-3.63.38-5.4.51-2.15.17-4.3.29-6.45.44-1,.06-1.47-.31-1.48-1.37s.72-1,1.41-1.08Z"/><path d="M87.9,107.05c-5.61,1.46-7.68,1.25-10.7-1.22a66.94,66.94,0,0,1,7.63-.63C85.81,105.23,86.77,106.33,87.9,107.05Z"/><path d="M68,110.93l-.47-1c2.63.11,5.2-1.07,7.72.62-2.21.19-4.42.41-6.63.58-2,.16-4,.32-6,.35a7.64,7.64,0,0,1-3-.69C62.37,110.65,65.19,109.34,68,110.93Z"/><path d="M96.28,106.22c-2.35.26-4.44.64-6.53.66-.89,0-1.79-.75-2.81-1.22C89.07,103.76,93.82,104.08,96.28,106.22Z"/><path d="M79.35,107.9c-3.37,1-6.5,1.28-9.42-1.07a29.14,29.14,0,0,1,5.7-.63C76.9,106.3,78.11,107.3,79.35,107.9Z"/><path d="M72.15,109.06c-3.32.11-6.58,1.12-9.63-1.32C65.91,107.21,69.17,106.24,72.15,109.06Z"/><path d="M64.09,109.69c-3.34.1-6.54.92-9.3-1.42A9.38,9.38,0,0,1,64.09,109.69Z"/><path d="M105.51,105.58a56.77,56.77,0,0,1,6-.71c.78,0,1.57.84,2.28,1.53C111,106.56,108.16,108.05,105.51,105.58Z"/><path d="M94.78,104c2.86,0,5.68-1.68,8,1C99.87,106.44,96.75,106.12,94.78,104Z"/><path d="M55.84,109.94c-3,.06-5.84.84-8.52-1.63C50.41,108.25,53.35,107.14,55.84,109.94Z"/><path d="M102.21,103.57c2.81,0,5.72-1.58,8.42.53C107.81,104.25,104.92,106.13,102.21,103.57Z"/><path d="M90.44,107.53c2.26-.27,4.51-.63,6.78-.75.67,0,1.37.63,2,1l-.08.35c-2.3.23-4.59.54-6.9.66-.63,0-1.29-.51-1.94-.79Z"/><path d="M90.79,109.16c-3.05-.17-5.74,1.18-8.58-.15C84.52,107.66,89.12,107.63,90.79,109.16Z"/><path d="M98.52,106.48c2.76,0,5.32-1.74,7.78,1C103.61,107.32,101.1,108.84,98.52,106.48Z"/><path d="M59.44,111.72c-2.53-.15-5.23,1.36-7.74-1C54.5,110.62,57.11,109.84,59.44,111.72Z"/><path d="M75.54,109.46c5-.77,5.3-.93,6.47.2C79.18,110.58,76.61,110.54,75.54,109.46Z"/><path d="M14.9,83.14C17,84,19,84.93,21.09,85.68c3.23,1.17,6.5,2.24,9.75,3.34.66.23,1.3.34,1.33,1.33.16,5.7.4,11.39.58,17.08.06,2-.32,2.24-2.06,1.32-4.16-2.19-8.29-4.44-12.47-6.6a4.52,4.52,0,0,1-2.83-4.51c0-4-.38-8-.61-12.18L29.49,91l.15-.36c-.45-.22-.88-.48-1.34-.66L15.8,85.14C15,84.82,14.39,84.38,14.9,83.14Z"/><path d="M5.16,94.39c-.15,3.54,2.67,6,3.64,9.48C6.4,100.88,4.43,98.15,5.16,94.39Z"/><path d="M18.64,29.58c.4,11.6,1.35,23.19.95,34.81l-.49.07a23,23,0,0,1-.68-3.73c-.15-5.69-.13-11.38-.28-17.07-.08-3.06-.47-6.1-.51-9.15a34.91,34.91,0,0,1,.59-5Z"/><path d="M32.42,82.1v3.79c-3.23-.61-6.37-1.14-9.48-1.86-.4-.1-.57-1.19-.89-1.93Z"/><path d="M32.14,17.46l10.72.19c9.21.14,18.42.18,27.63.44,6.77.19,13.53.67,20.29,1,1.45.08,2.91.16,4.36.19,1,0,1.16.51,1.14,1.35,0,1.4,0,2.81,0,4.2-1.08.37-1.48.12-1.47-.87a5.81,5.81,0,0,0-.28-1.52c-.26-.91-.78-1.27-1.66-.62l-1-1.72c-.88,0-2.34-.37-2.64.07-.9,1.31-2,.73-3,.68-4.74-.22-9.48-.5-14.22-.75a13.33,13.33,0,0,0-1.41.08v.4c1.19.07,2.39.12,3.57.21,5.15.4,10.29.84,15.43,1.2a24,24,0,0,0,3.27-.21,1.4,1.4,0,0,1-1.66.95c-14.62-1.53-29.31-1.12-44-1.49-2.63-.06-5.27-.08-7.89.06a8.34,8.34,0,0,0-3.06,1c-.43.21-.65.87-1,1.33a4.27,4.27,0,0,0-.45,1.33c0,2.12.11,4.24.06,6.35-.25,10.69-.8,21.36-.24,32.07.23,4.33,2.07,5.49,5.51,5.6a367.59,367.59,0,0,0,40.38-.67c2.72-.21,5.42-.69,8.11-1.11A3.61,3.61,0,0,0,91.59,65a12.25,12.25,0,0,1-3,1.49,80.6,80.6,0,0,1-10.77,1.41c-11.48.34-23,.43-34.46.58a30.55,30.55,0,0,1-5.06-.38,3.13,3.13,0,0,1-2.87-3.39q-.06-12.78-.07-25.56c0-5.18,0-10.35,0-15.53,2-1.66,4.41-1.93,6.88-1.89,12.3.22,24.6.41,36.9.69,3,.07,5.92.42,8.87.69,2.75.26,3,.62,3.48,3.25a90.06,90.06,0,0,1,1.2,22.53c-.22,4.56-.8,9.1-1.21,13.65a3,3,0,0,0,.18,1.43,95.87,95.87,0,0,0,1.73-17.55c0-5.87-.28-11.75-.45-17.79l1.53-1.29C94.28,40.21,94.12,53.05,94,66L92.45,65l-.23.19L93.61,67l-8.41,1.1.08.47c2.9-.46,5.93,0,8.67-1.5a1.79,1.79,0,0,0,.74-1.33c.08-6.12.09-12.25.13-18.37q0-8,.1-16a17.94,17.94,0,0,1,.27-3.7l.41.74.38-1.3h.21v42.3L33.48,72.71c-.07-.82-.15-1.35-.15-1.89,0-8.77.21-17.54,0-26.3s-.69-17.61-1.07-26.41a5.5,5.5,0,0,0-.11-.69ZM88.87,27.2c.38,3.93.91,7.86,1.1,11.81s0,7.86,0,11.8l.49,0C90.79,42.87,91.05,35,88.87,27.2Z"/><path d="M14.59,119.85c.22-.64.22-.64,1.76-.51l-.68.49,0-.07,0,.07c-.21,0-.41,0-.61,0l0-.06,0,.07h-.62l0-.1Z"/><polygon class="cls-1" points="14.59 119.85 14.57 119.75 14.54 119.85 14.59 119.85"/><polygon class="cls-1" points="15.16 119.84 15.14 119.77 15.11 119.83 15.16 119.84"/><polygon class="cls-1" points="15.72 119.83 15.69 119.77 15.67 119.83 15.72 119.83"/><path d="M54.09,94.13,42,94.6v-.33H54.16Z"/><path d="M51.28,104.51c-4.05.18-8.14.37-12.22.54-1,0-1.06-.68-1.1-1.43s-.05-1.41,1-1.48c2.82-.2,5.63-.45,8.45-.68q.49,0,1-.09C51.24,101.05,51.48,101.29,51.28,104.51Z"/><path d="M41.65,79.31v-3.1l3.62-.32C45.83,79,45.17,79.58,41.65,79.31Z"/><path class="cls-1" d="M35.33,23.58c0,5.18,0,10.35,0,15.53q0,12.78.07,25.56a3.13,3.13,0,0,0,2.87,3.39,30.55,30.55,0,0,0,5.06.38c11.49-.15,23-.24,34.46-.58a80.6,80.6,0,0,0,10.77-1.41,12.25,12.25,0,0,0,3-1.49,3.61,3.61,0,0,1-2.86,2.21c-2.69.42-5.39.9-8.11,1.11A367.59,367.59,0,0,1,40.24,69c-3.44-.11-5.28-1.27-5.51-5.6-.56-10.71,0-21.38.24-32.07.05-2.11-.08-4.23-.06-6.35a4.27,4.27,0,0,1,.45-1.33Z"/><path class="cls-1" d="M92.9,21.79a24,24,0,0,1-3.27.21c-5.14-.36-10.28-.8-15.43-1.2-1.18-.09-2.38-.14-3.57-.21v-.4A13.33,13.33,0,0,1,72,20.11c4.74.25,9.48.53,14.22.75,1,.05,2.09.63,3-.68.3-.44,1.76-.07,2.64-.07l1,1.72Z"/><path class="cls-1" d="M88.87,27.2c2.18,7.76,1.92,15.67,1.64,23.58l-.49,0c0-3.94.14-7.88,0-11.8S89.25,31.13,88.87,27.2Z"/></svg>