<svg id="Layer_1" data-name="Layer 1" xmlns="http://www.w3.org/2000/svg" viewBox="0 0 140 133"><defs><style>.cls-1{fill:#fff;}</style></defs><title>metal</title><path class="cls-1" d="M140.11,114.51c-.91,1.65-2.48,1.94-4.17,2.27-7.53,1.49-15,3.09-22.53,4.67-2.83.59-5.63,1.26-8.46,1.84a12.16,12.16,0,0,1-2.56.17c-2.61,0-4-2-3.5-4.55,1.47-6.93,2.89-13.86,4.32-20.8.31-1.5.48-3,.9-4.49a4.46,4.46,0,0,1,3.65-2.92c4.22-.93,8.5-1.65,12.76-2.44a2.31,2.31,0,0,1,.78.06,13.68,13.68,0,0,0,3,.64,4.75,4.75,0,0,1,4.46,2.53c1.65,2.85,3.25,5.73,4.88,8.59,1.28,2.23,2.66,4.41,3.86,6.68,1,1.9,1.78,3.9,2.66,5.86Zm-9.25-3.06-8.07-15c-.93.29-1.58.54-2.26.7-3.07.71-6.15,1.38-9.21,2.14a2.27,2.27,0,0,0-1.45,1,38.22,38.22,0,0,0-1.45,5.12c-.47,2.23-.6,4.5-1.72,6.61-.68,1.28-.75,2.88-1.17,4.66Z"/><path class="cls-1" d="M81,92.78A18.46,18.46,0,0,1,77.52,91Q57.17,74.94,36.89,58.75l-7.08-5.67a2.93,2.93,0,0,1-1-3.63q3.87-9.53,7.79-19a6,6,0,0,1,4.62-3.58C47.13,25.58,53,24.2,58.89,23.27c1.43-.22,3.34.8,4.62,1.78,8.59,6.54,17,13.26,25.58,19.85,5.76,4.44,11.6,8.77,17.37,13.19a6.19,6.19,0,0,1,1.79,2.12c3.16,6.54,6.25,13.11,9.35,19.67,1.38,2.91.25,5.15-3,5.79C107.71,87,100.82,88.2,94,89.58c-3.53.7-7,1.66-10.52,2.5-.74.17-1.5.3-2.24.45ZM77.55,82.67c1.67-.36,1.48-1.53,1.55-2.58a5.76,5.76,0,0,1,.15-.94c.71-2.8,1.44-5.59,2.16-8.38A3.42,3.42,0,0,0,80,66.86q-6.67-5.09-13.24-10.34c-8.23-6.61-16.42-13.28-24.68-20C40.53,40,39,43.36,37.52,46.67c-1.13,2.46-1.18,2.5.82,4.2,5.25,4.49,10.47,9,15.83,13.39,7,5.71,14.11,11.27,21.18,16.88C76.13,81.76,77,82.27,77.55,82.67ZM97.89,59.79c-3.09-2.52-6-5.06-9-7.34-5.37-4-10.85-7.81-16.28-11.71-4.65-3.34-9.29-6.7-14-10a1.9,1.9,0,0,0-1.36-.12c-2.59.61-5.17,1.27-7.75,1.93-.44.11-.87.26-1.45.44l.67.59Q66.91,48,85.09,62.49a3.26,3.26,0,0,0,3.19.39c2.74-.76,5.46-1.57,8.18-2.39A9.9,9.9,0,0,0,97.89,59.79Zm12.18,19.7c-.29-.68-.52-1.26-.79-1.82-1.63-3.42-3.4-6.78-4.86-10.27-.77-1.87-1.21-2-3.07-1.48q-6,1.56-12,3.27a1.79,1.79,0,0,0-.91,1.13c-.8,3-1.47,6.05-2.31,9-.49,1.74-1.23,3.4-1.93,5.3Z"/><path class="cls-1" d="M20.63,66.74c1.33,1,2.67,2,4,3.05s2.37,2,3.52,3.11c4.62,4.31,9.18,8.7,13.86,12.95,5.58,5.07,11.28,10,16.93,15,.33.3.68.57.77.64,2.61-.86,5-1.67,7.38-2.43q4.77-1.52,9.56-3,.7-.21,1.44-.36c2.42-.5,3.39.06,4.26,2.36l5,12.87c1.19,3.08,2.42,6.13,3.54,9.23,1.29,3.6.46,5.31-3.31,6.12-9.47,2.05-19,3.93-28.49,5.86-1.59.32-3.19.56-4.8.78a4,4,0,0,1-3.31-1.19q-8.38-7.39-16.84-14.71-9.83-8.52-19.72-17c-4-3.4-8-6.75-12-10.1-1.1-.92-.88-2-.43-3.06q3.87-9.52,7.73-19.06c.53-1.29,1-2.6,1.64-3.85a3.64,3.64,0,0,1,2.61-1.9c4-1,7.89-2.26,11.82-3.42A4.68,4.68,0,0,1,30.08,60c1.34,1.73.08,4.41-2.28,4.82-1.73.29-3.48.5-5.2.87A8.84,8.84,0,0,0,20.63,66.74Zm-5.57,4.45c-1.7,4.21-3.35,8.45-5.13,12.63-.77,1.8-.79,2.89.9,4.51a422,422,0,0,0,32.58,28.35A18.8,18.8,0,0,1,45,118.27l6.13,6c.4-1.24.77-2.2,1-3.19,1.13-4.26,2.21-8.54,3.34-12.8a2.64,2.64,0,0,0-.86-3c-7.81-6.92-15.54-13.92-23.34-20.84C26.12,79.81,21.29,74.7,15.06,71.19Zm43,54.87L85,120.86c-2.27-5.77-4.51-11.46-6.77-17.18-4.81,1.39-9.51,2.68-14.14,4.14a3.31,3.31,0,0,0-1.68,1.9,66.12,66.12,0,0,0-1.88,6.35C59.66,119.28,58.93,122.53,58.09,126.06Z"/><path class="cls-1" d="M110.93,43.33a3.74,3.74,0,0,1,2.82-3.55,43.65,43.65,0,0,0,5.54-2.39,3.16,3.16,0,0,0,1.44-1.71,41.81,41.81,0,0,0,1.41-5.74c.16-1,.32-1.81,1.32-2.11a2.18,2.18,0,0,1,2.6.94,8.7,8.7,0,0,1,.53.94A19.53,19.53,0,0,1,128,32.5c1.16,3.68,4.11,5.07,7.35,6.49,1.41.62,2.55,2.62,3.08,4.24.42,1.31-1,2.41-2.32,3a30.44,30.44,0,0,1-4.21,1.37,6.64,6.64,0,0,0-4.48,4.33,24.35,24.35,0,0,1-1,2.91c-.35.6-1.38,1.45-1.71,1.3a6.2,6.2,0,0,1-2.43-2c-.46-.65-.38-1.65-.67-2.45a8.51,8.51,0,0,0-5.9-5.48,19,19,0,0,1-3.61-1.51A4,4,0,0,1,110.93,43.33Zm14.49-4.72A7.33,7.33,0,0,1,121.3,43l4.11,4,4.2-3.36Z"/><path class="cls-1" d="M95.48,2.78A6.91,6.91,0,0,1,97,4.27a34.58,34.58,0,0,1,2.44,4.82c1.24,3.08,4,3.8,6.73,4.85a15.71,15.71,0,0,1,3.31,1.87c.84.59.59,1.35,0,2.09a7.84,7.84,0,0,1-5.25,2.77,6.15,6.15,0,0,0-4.83,3.48,15.76,15.76,0,0,0-1.27,3.11c-.29,1.07-.52,2.06-1.83,2.15a3.34,3.34,0,0,1-2.68-2.16c-.28-.9-.54-1.81-.76-2.73a5.91,5.91,0,0,0-4.59-4.62A19.24,19.24,0,0,1,83.54,18a3.07,3.07,0,0,1-1-2.41c0-.56.89-1.27,1.54-1.57,1.25-.58,2.67-.79,3.92-1.37,3.19-1.47,4.61-4.16,4.8-7.56C92.9,3.38,93.49,2.68,95.48,2.78Zm1.44,17.43,4.17-3.35L97,11.91,92.8,16.09Z"/><path d="M130.86,111.45l-25.33,5.21c.42-1.78.49-3.38,1.17-4.66,1.12-2.11,1.25-4.38,1.72-6.61a38.22,38.22,0,0,1,1.45-5.12,2.27,2.27,0,0,1,1.45-1c3.06-.76,6.14-1.43,9.21-2.14.68-.16,1.33-.41,2.26-.7Z"/><path d="M77.55,82.67c-.58-.4-1.42-.91-2.2-1.53C68.28,75.53,61.17,70,54.17,64.26c-5.36-4.37-10.58-8.9-15.83-13.39-2-1.7-2-1.74-.82-4.2,1.52-3.31,3-6.64,4.58-10.12,8.26,6.69,16.45,13.36,24.68,20Q73.34,61.79,80,66.86a3.42,3.42,0,0,1,1.39,3.91c-.72,2.79-1.45,5.58-2.16,8.38a5.76,5.76,0,0,0-.15.94C79,81.14,79.22,82.31,77.55,82.67Z"/><path d="M97.89,59.79a9.9,9.9,0,0,1-1.43.7c-2.72.82-5.44,1.63-8.18,2.39a3.26,3.26,0,0,1-3.19-.39Q66.93,48,48.71,33.56L48,33c.58-.18,1-.33,1.45-.44,2.58-.66,5.16-1.32,7.75-1.93a1.9,1.9,0,0,1,1.36.12c4.68,3.32,9.32,6.68,14,10,5.43,3.9,10.91,7.73,16.28,11.71C91.92,54.73,94.8,57.27,97.89,59.79Z"/><path d="M110.07,79.49,84.19,84.66c.7-1.9,1.44-3.56,1.93-5.3.84-3,1.51-6,2.31-9a1.79,1.79,0,0,1,.91-1.13q6-1.71,12-3.27c1.86-.47,2.3-.39,3.07,1.48,1.46,3.49,3.23,6.85,4.86,10.27C109.55,78.23,109.78,78.81,110.07,79.49Z"/><path d="M15.06,71.19c6.23,3.51,11.06,8.62,16.28,13.26,7.8,6.92,15.53,13.92,23.34,20.84a2.64,2.64,0,0,1,.86,3c-1.13,4.26-2.21,8.54-3.34,12.8-.26,1-.63,2-1,3.19l-6.13-6a18.8,18.8,0,0,0-1.63-1.59A422,422,0,0,1,10.83,88.33c-1.69-1.62-1.67-2.71-.9-4.51C11.71,79.64,13.36,75.4,15.06,71.19Z"/><path d="M58.09,126.06c.84-3.53,1.57-6.78,2.39-10a66.12,66.12,0,0,1,1.88-6.35,3.31,3.31,0,0,1,1.68-1.9c4.63-1.46,9.33-2.75,14.14-4.14,2.26,5.72,4.5,11.41,6.77,17.18Z"/><path d="M125.42,38.61l4.19,5L125.41,47l-4.11-4A7.33,7.33,0,0,0,125.42,38.61Z"/><path d="M96.92,20.21,92.8,16.09,97,11.91l4.08,4.95Z"/></svg>