<?xml version="1.0" encoding="utf-8"?>
<!-- Generator: Adobe Illustrator 23.1.1, SVG Export Plug-In . SVG Version: 6.00 Build 0)  -->
<svg version="1.1" id="Layer_1" xmlns="http://www.w3.org/2000/svg" xmlns:xlink="http://www.w3.org/1999/xlink" x="0px" y="0px"
	 viewBox="0 0 93 118" style="enable-background:new 0 0 93 118;" xml:space="preserve">
<style type="text/css">
	.st0{fill:#FFFFFF;}
	.st1{stroke:#FFFFFF;stroke-miterlimit:10;}
	.st2{stroke:#FFFFFF;stroke-width:2;stroke-miterlimit:10;}
</style>
<path class="st0" d="M87.36,74.78c0.61,0,1.1,0,1.64,0c0,9.3,0,18.53,0,27.86c-0.54,0-1.05,0-1.64,0c0,0.34,0,0.6,0,0.86
	c0,2.72,0.01,5.44,0,8.16c-0.01,2.21-1.52,3.74-3.73,3.74c-24.43,0-48.86,0.01-73.29,0c-2.3,0-3.82-1.51-3.82-3.8
	c0-6.61,0.02-13.22,0.02-19.82c0-7.87-0.02-15.74-0.03-23.62c0-2.43,0-4.86,0-7.29c0-0.26,0-0.51,0-0.81
	c-0.37-0.04-0.66-0.06-0.95-0.09c-0.04-0.06-0.09-0.09-0.09-0.13c-0.13-1.29-0.13-1.29-1.49-1.34c-0.14,0-0.28-0.03-0.48-0.05
	c0-0.93,0-1.84,0-2.89c0.34,0,0.68,0,1.03,0c0.97-0.01,0.97-0.01,0.82-1.13c-0.59,0-1.19,0-1.85,0c0-1.03,0-1.97,0-2.99
	c0.62,0,1.22,0,1.88,0c0.03-0.53,0.05-0.97,0.08-1.46c0.33-0.04,0.63-0.07,1.04-0.12c0-0.67,0.02-1.36-0.02-2.04
	c-0.01-0.12-0.21-0.28-0.35-0.33c-0.19-0.07-0.41-0.05-0.71-0.07c0-1.41-0.04-2.79,0.04-4.16c0.01-0.2,0.55-0.37,0.98-0.64
	c0-0.38,0-0.99,0-1.6c-1.02-0.29-1.02-0.29-1.02-1.43c0-1.07,0-2.13,0-3.23c0.38-0.04,0.68-0.06,1.08-0.1
	c0-0.53,0.09-1.07-0.04-1.55c-0.07-0.25-0.53-0.4-0.97-0.7c0-2.34,0-4.92,0-7.54c0.31-0.03,0.61-0.06,0.96-0.09c0-0.71,0-1.4,0-2.17
	c-0.56,0-1.08-0.01-1.6,0c-0.36,0.01-0.52-0.11-0.51-0.49c0.02-0.57,0.01-1.13,0.01-1.81c0.75,0,1.42,0,2.09,0
	c0.01-0.08,0.02-0.16,0.04-0.23c-0.2-0.05-0.39-0.12-0.59-0.16c-1.21-0.21-1.51-0.54-1.51-1.74c0-1.22,0-2.43,0-3.65
	c0-1.06,0.28-1.4,1.31-1.6c0.26-0.05,0.53-0.1,0.79-0.15c0-0.08-0.01-0.16-0.01-0.23c-0.68,0-1.36,0-2.08,0c0-0.82,0-1.52,0-2.3
	c0.68,0,1.34,0,2.06,0c0.02-0.3,0.05-0.53,0.05-0.76c0.01-1.17,0-2.34,0.01-3.51c0.02-2.29,1.54-3.81,3.82-3.81
	c3.98,0,7.97,0.03,11.95,0.03c14.15-0.01,28.3-0.02,42.44-0.03c6.25,0,12.5,0.04,18.75-0.02c2.21-0.02,3.93,1.75,3.92,3.89
	c-0.06,9.64-0.03,19.27-0.03,28.91c0,10.04,0,20.09,0,30.13c0,2.38,0,4.77,0,7.15C87.36,74.1,87.36,74.38,87.36,74.78z M7.16,60.01
	c0,2.47,0,4.85,0,7.23c0,14.74,0,29.48,0,44.23c0,2.1,1.17,3.27,3.28,3.27c2.7,0,5.39,0,8.09,0c21.57,0,43.13-0.02,64.7,0.03
	c2.37,0.01,3.62-1.62,3.54-3.51c-0.11-2.57-0.03-5.15-0.03-7.73c0-0.28,0-0.55,0-0.83c-0.51,0-0.91,0-1.39,0c0,1.04,0,2.02,0,3.04
	c-7.06,0-14.02,0-21.03,0c0-0.42,0-0.78,0-1.13c0-8.64-0.01-17.27,0.01-25.91c0-0.34,0.12-0.78,0.35-1.01
	c1.77-1.83,3.59-3.62,5.38-5.44c0.39-0.4,0.8-0.59,1.38-0.58c4.37,0.02,8.73,0,13.1,0c0.26,0,0.51,0.03,0.86,0.05c0,1.04,0,2.03,0,3
	c0.49,0,0.88,0,1.31,0c0.02-0.26,0.04-0.47,0.04-0.68c0-2.52,0-5.05,0-7.57c0-9.78,0-19.56,0-29.34c0-9.85,0.01-19.7-0.03-29.55
	c0-0.65-0.25-1.37-0.59-1.93c-0.63-1.04-1.7-1.28-2.86-1.28c-6.13,0.01-12.25,0.01-18.38,0C50.56,4.35,36.22,4.33,21.88,4.31
	c-3.69,0-7.39,0.03-11.08,0.06c-0.4,0-0.82,0-1.21,0.08C8.42,4.7,7.47,5.38,7.32,6.55c-0.19,1.41-0.04,2.87-0.04,4.33
	c0.32,0.03,0.64,0.05,0.98,0.08c0.04,0.35,0.07,0.66,0.11,1.08c0.77,0,1.54,0,2.36,0c0,0.5-0.03,0.88,0.01,1.25
	c0.04,0.49-0.18,0.62-0.63,0.59c-0.57-0.03-1.14-0.01-1.7-0.01c-0.18,0.55-0.04,0.75,0.5,0.75c1.31-0.02,2.62-0.01,3.94-0.01
	c0.44,0,0.88,0,1.37,0c0,0.49,0,0.87,0,1.27c0.27,0.04,0.49,0.08,0.78,0.12c0,1.04-0.03,2.07,0.01,3.09c0.03,0.59-0.04,1.03-0.77,1
	c-0.02,0.45-0.04,0.84-0.06,1.27c-1.8,0-3.51,0.01-5.23-0.01c-0.56-0.01-0.73,0.19-0.5,0.78c0.75,0,1.5,0,2.24,0
	c0,0.64,0,1.2,0,1.84c-0.81,0-1.56,0-2.31,0c-0.03,0.4-0.06,0.73-0.08,1.06c-0.38,0.03-0.71,0.05-1.06,0.07c0,0.43,0,0.82,0,1.3
	c2.34,0,4.64,0,6.94,0c0,2.65,0,5.22,0,7.89c-2.34,0-4.64,0-6.94,0c0,0.71,0,1.32,0,2.03c2.35,0,4.64,0,6.95,0c0,1.55,0,3.01,0,4.58
	c-2.34,0-4.66,0-6.96,0c0,0.71,0,1.29,0,1.97c2.34,0,4.64,0,6.93,0c0,1.56,0,3.03,0,4.61c-2.34,0-4.64,0-6.92,0
	c0,0.86,0,1.61,0,2.44c2.34,0,4.62,0,6.91,0c0,3.4,0,6.72,0,10.09C11.79,60.01,9.52,60.01,7.16,60.01z M84.7,105.11
	c0-10.12,0-20.15,0-30.19c-0.06-0.03-0.12-0.06-0.18-0.09c-1.36,1.4-2.71,2.81-4.09,4.19c-5,5.01-10.01,10.01-14.99,15.04
	c-0.25,0.25-0.43,0.69-0.43,1.04c-0.03,3.08-0.02,6.15-0.02,9.23c0,0.25,0,0.5,0,0.77c3.45,0,6.8,0,10.21,0c0-4.68,0-9.29,0-13.93
	c1.07,0,2.07,0,3.16,0c0,4.68,0,9.29,0,13.93C80.51,105.11,82.58,105.11,84.7,105.11z M88.41,101.95c0-8.83,0-17.64,0-26.45
	c-1.04,0-2,0-2.99,0c0,8.85,0,17.63,0,26.45C86.44,101.95,87.39,101.95,88.41,101.95z M6.07,59.32c0.33,0,0.56,0,0.8,0
	c1.95,0,3.91-0.05,5.86,0.02c0.71,0.03,0.9-0.12,0.88-0.82c-0.06-2.33-0.06-4.66-0.09-7c0-0.3,0-0.61,0-0.91c-2.54,0-5,0-7.46,0
	C6.07,53.53,6.07,56.39,6.07,59.32z M84.68,72.37c-0.56-0.05-1.05-0.15-1.52,0.33c-5.94,5.96-11.89,11.91-17.84,17.86
	c-0.13,0.13-0.3,0.3-0.3,0.45C64.98,91.8,65,92.6,65,93.53c0.24-0.22,0.36-0.33,0.47-0.44C71.64,86.93,77.8,80.75,84,74.61
	C84.66,73.96,84.88,73.31,84.68,72.37z M6.08,27.09c0,2.22,0,4.35,0,6.47c0.11,0.04,0.18,0.08,0.24,0.08c2.24,0,4.48,0,6.72,0.01
	c0.51,0,0.5-0.31,0.5-0.66c0-1.57,0-3.14,0-4.72c0-0.39,0-0.79,0-1.19C10.99,27.09,8.57,27.09,6.08,27.09z M75.93,72.32
	c-1.48,0-2.95-0.02-4.41,0.02c-0.34,0.01-0.74,0.17-0.98,0.4c-1.78,1.73-3.52,3.49-5.27,5.25c-0.11,0.11-0.26,0.27-0.26,0.41
	C64.99,80,65,81.61,65,83.23C68.65,79.58,72.26,75.98,75.93,72.32z M79.57,72.32c-0.51,0-0.96,0.05-1.4-0.01
	c-0.84-0.11-1.41,0.24-1.98,0.82c-3.57,3.6-7.17,7.17-10.75,10.76c-0.18,0.18-0.4,0.41-0.42,0.63C64.97,85.29,65,86.07,65,86.9
	C69.88,82.02,74.69,77.21,79.57,72.32z M65.04,89.73c5.8-5.79,11.59-11.57,17.38-17.36c-1.07-0.2-1.91,0-2.75,0.86
	c-4.55,4.65-9.14,9.26-13.79,13.8C65,87.89,64.88,88.72,65.04,89.73z M77.69,105.08c0-4.45,0-8.86,0-13.26c-0.67,0-1.25,0-1.88,0
	c0,4.45,0,8.85,0,13.26C76.47,105.08,77.06,105.08,77.69,105.08z M13.53,37c-2.54,0-4.98,0-7.45,0c0,1.11,0,2.16,0,3.25
	c2.39,0,4.7,0.01,7.01-0.02c0.15,0,0.41-0.25,0.42-0.4C13.55,38.91,13.53,37.98,13.53,37z M6.03,43.56c0,0.92,0.02,1.77-0.01,2.63
	c-0.02,0.49,0.14,0.67,0.65,0.66c1.48-0.03,2.96-0.01,4.43-0.01c0.78,0,1.56,0,2.38,0c0-1.14,0-2.19,0-3.28
	C11,43.56,8.57,43.56,6.03,43.56z M13.46,15.91c0.06-0.06,0.12-0.13,0.17-0.19c-0.15-0.16-0.3-0.47-0.46-0.47
	c-1.59-0.04-3.18-0.02-4.8-0.02c0,1.88,0,3.67,0,5.53c1.63,0,3.2,0.01,4.77-0.02c0.13,0,0.26-0.24,0.4-0.37
	c-0.14-0.12-0.26-0.3-0.41-0.34c-0.24-0.07-0.51-0.04-0.77-0.05c0-1.37,0-2.67,0-4.01C12.76,15.95,13.11,15.93,13.46,15.91z
	 M6.44,20.89c0-1.96,0-3.87,0-5.79c-1.27,0.04-1.42,0.19-1.42,1.34c0,1.02,0,2.05,0,3.07C5.02,20.69,5.13,20.8,6.44,20.89z
	 M7.66,11.63C7,11.39,7.15,11.94,7.15,12.21c-0.01,3.89,0,7.77,0.03,11.66c0,0.19,0.15,0.37,0.23,0.56
	c0.08-0.19,0.24-0.37,0.24-0.56C7.66,19.79,7.66,15.72,7.66,11.63z M13.03,16.66c0,0.92,0,1.8,0,2.66c0.46,0,0.86,0,1.26,0
	c0-0.92,0-1.78,0-2.66C13.84,16.66,13.45,16.66,13.03,16.66z M5.49,53.7c-0.1-0.6-0.12-1.14-0.32-1.6
	c-0.05-0.11-0.91-0.08-0.95,0.03c-0.16,0.48-0.15,1.02-0.2,1.57C4.55,53.7,4.92,53.7,5.49,53.7z M4.15,56.19
	c-0.31,1.64-0.18,1.82,1.21,1.6c0-0.52,0-1.04,0-1.6C4.93,56.19,4.56,56.19,4.15,56.19z M6.49,23.48c-0.02-0.34-0.03-0.63-0.04-0.92
	c-0.52,0-0.96,0-1.41,0c0,0.33,0,0.6,0,0.92C5.51,23.48,5.94,23.48,6.49,23.48z M6.47,13.42c0-0.37,0-0.64,0-0.92
	c-0.52,0-0.97,0-1.42,0c0,0.32,0,0.6,0,0.92C5.53,13.42,5.97,13.42,6.47,13.42z M10.24,13.22c-0.26-0.3-0.36-0.54-0.5-0.56
	c-0.37-0.05-0.76-0.04-1.13,0c-0.1,0.01-0.19,0.2-0.28,0.3c0.11,0.09,0.21,0.24,0.33,0.25C9.1,13.24,9.55,13.22,10.24,13.22z
	 M9.21,22.63c-0.32,0.15-0.6,0.28-0.88,0.41c0.3,0.09,0.6,0.25,0.9,0.25c0.27,0,0.54-0.17,0.81-0.27
	C9.78,22.9,9.52,22.78,9.21,22.63z"/>
<path d="M7.16,60.01c2.36,0,4.62,0,6.96,0c0-3.36,0-6.68,0-10.09c-2.29,0-4.57,0-6.91,0c0-0.83,0-1.58,0-2.44c2.28,0,4.58,0,6.92,0
	c0-1.57,0-3.04,0-4.61c-2.29,0-4.59,0-6.93,0c0-0.68,0-1.26,0-1.97c2.3,0,4.61,0,6.96,0c0-1.57,0-3.02,0-4.58c-2.31,0-4.6,0-6.95,0
	c0-0.71,0-1.32,0-2.03c2.3,0,4.6,0,6.94,0c0-2.67,0-5.24,0-7.89c-2.3,0-4.6,0-6.94,0c0-0.48,0-0.87,0-1.3
	c0.35-0.02,0.68-0.04,1.06-0.07c0.03-0.33,0.05-0.66,0.08-1.06c0.75,0,1.5,0,2.31,0c0-0.64,0-1.19,0-1.84c-0.74,0-1.49,0-2.24,0
	c-0.23-0.6-0.06-0.79,0.5-0.78c1.71,0.02,3.43,0.01,5.23,0.01c0.02-0.43,0.04-0.83,0.06-1.27c0.74,0.04,0.8-0.4,0.77-1
	c-0.04-1.02-0.01-2.04-0.01-3.09c-0.29-0.05-0.51-0.08-0.78-0.12c0-0.4,0-0.78,0-1.27c-0.48,0-0.93,0-1.37,0
	c-1.31,0-2.62-0.01-3.94,0.01c-0.53,0.01-0.68-0.2-0.5-0.75c0.57,0,1.14-0.02,1.7,0.01c0.45,0.02,0.67-0.1,0.63-0.59
	c-0.03-0.38-0.01-0.76-0.01-1.25c-0.81,0-1.58,0-2.36,0c-0.04-0.42-0.07-0.73-0.11-1.08c-0.34-0.03-0.66-0.05-0.98-0.08
	c0-1.46-0.14-2.92,0.04-4.33c0.16-1.17,1.1-1.85,2.27-2.09c0.39-0.08,0.81-0.08,1.21-0.08c3.69-0.02,7.39-0.06,11.08-0.06
	c14.34,0.01,28.67,0.04,43.01,0.05c6.13,0.01,12.25,0,18.38,0c1.16,0,2.23,0.25,2.86,1.28c0.34,0.56,0.58,1.28,0.59,1.93
	c0.04,9.85,0.03,19.7,0.03,29.55c0,9.78,0,19.56,0,29.34c0,2.52,0,5.05,0,7.57c0,0.21-0.02,0.42-0.04,0.68c-0.42,0-0.81,0-1.31,0
	c0-0.97,0-1.96,0-3c-0.35-0.02-0.61-0.05-0.86-0.05c-4.37,0-8.73,0.02-13.1,0c-0.58,0-0.98,0.19-1.38,0.58
	c-1.79,1.82-3.6,3.6-5.38,5.44c-0.23,0.24-0.35,0.67-0.35,1.01c-0.02,8.64-0.01,17.27-0.01,25.91c0,0.36,0,0.71,0,1.13
	c7.01,0,13.97,0,21.03,0c0-1.02,0-2.01,0-3.04c0.48,0,0.88,0,1.39,0c0,0.28,0,0.56,0,0.83c0,2.58-0.08,5.16,0.03,7.73
	c0.08,1.89-1.17,3.51-3.54,3.51c-21.57-0.05-43.13-0.03-64.7-0.03c-2.7,0-5.39,0-8.09,0c-2.1,0-3.28-1.17-3.28-3.27
	c0-14.74,0-29.48,0-44.23C7.16,64.86,7.16,62.48,7.16,60.01z M32.33,7.25c-0.14-0.02-0.23-0.05-0.32-0.05
	c-3.24,0-6.49-0.01-9.73,0.01c-0.25,0-0.54,0.16-0.73,0.34c-1.12,1.04-2.21,2.11-3.33,3.14c-0.37,0.34-0.5,0.69-0.5,1.18
	c0.01,7.97,0.01,15.94,0.01,23.9c0,3.58-0.01,7.16-0.01,10.73c0,0.95,0,0.95,0.92,0.95c1.43-0.01,2.86-0.06,4.29-0.05
	c2.88,0.01,5.76,0.04,8.64,0.05c0.25,0,0.5-0.03,0.76-0.05C32.33,33.99,32.33,20.66,32.33,7.25z M74.74,17.53
	c0,14.12,0,28.18,0,42.25c-0.35,0.05-0.64,0.09-0.93,0.14c0,1.88,0,3.7,0,5.51c1.71,0,3.37,0,5.01,0c0-1.89,0-3.71,0-5.53
	c-0.34-0.04-0.61-0.07-0.91-0.11c0-14.12,0-28.19,0-42.26c0.36-0.03,0.63-0.06,0.91-0.08c0-1.89,0-3.74,0-5.57
	c-1.71,0-3.37,0-5.03,0c0,1.88,0,3.71,0,5.58C74.1,17.47,74.38,17.5,74.74,17.53z M72.84,17.46c0-1.89,0-3.74,0-5.64
	c-1.58,0-3.1-0.01-4.62,0.02c-0.13,0-0.36,0.25-0.36,0.38c-0.02,1.73-0.02,3.47-0.02,5.22c0.35,0.04,0.63,0.07,0.95,0.11
	c0.01,0.26,0.04,0.49,0.04,0.73c0.02,10.21,0.04,20.41,0.05,30.62c0,3.29-0.04,6.58-0.05,9.86c0,0.64,0.1,1.32-0.92,1.08
	c0,1.92,0,3.76,0,5.6c1.68,0,3.3,0,4.98,0c0-1.73,0.01-3.42-0.02-5.1c0-0.15-0.26-0.41-0.41-0.43c-0.43-0.04-0.49-0.28-0.49-0.63
	c-0.02-1.91-0.08-3.81-0.07-5.72c0-2.88,0.07-5.76,0.07-8.64c0.01-8.92,0-17.84,0.01-26.76c0-0.21,0.03-0.41,0.04-0.64
	C72.3,17.5,72.53,17.48,72.84,17.46z M79.5,20.42c0,7.55,0,15.03,0,22.52c2.01,0,3.96,0,5.91,0c0-7.55,0-15.02,0-22.52
	C83.43,20.42,81.5,20.42,79.5,20.42z M50.19,47.44c3.05,0,6.11,0.01,9.16-0.01c0.3,0,0.69-0.09,0.89-0.28
	c1.74-1.69,3.45-3.42,5.15-5.15c0.19-0.19,0.33-0.53,0.33-0.8c0.02-6.13,0.02-12.26,0-18.39c0-0.29-0.14-0.66-0.34-0.87
	c-1.65-1.69-3.32-3.36-5.01-5c-0.24-0.23-0.64-0.39-0.98-0.41c-0.93-0.04-1.86,0.02-2.78,0.02c-5.17-0.01-10.35-0.03-15.52-0.02
	c-0.31,0-0.7,0.18-0.92,0.4c-1.65,1.61-3.28,3.24-4.9,4.89c-0.23,0.23-0.43,0.6-0.43,0.91c-0.03,6.17-0.02,12.35-0.01,18.52
	c0,0.25,0.13,0.56,0.31,0.73c1.62,1.65,3.27,3.27,4.88,4.93c0.36,0.37,0.71,0.55,1.24,0.54C44.22,47.43,47.21,47.44,50.19,47.44z
	 M56.43,68.27c-11.41,0-22.72,0-34.04,0c0,1.03,0,2,0,3.06c11.35,0,22.66,0,33.99,0c0.03,0.36,0.05,0.64,0.08,0.94
	c1.88,0,3.72,0,5.57,0c0-1.71,0-3.36,0-5.03c-1.89,0-3.72,0-5.59,0C56.43,67.57,56.43,67.88,56.43,68.27z M22.37,93.67
	c11.38,0,22.69,0,33.99,0c0.04,0.37,0.07,0.65,0.1,0.95c1.87,0,3.7,0,5.61,0c0-1.6,0.01-3.17-0.03-4.73c0-0.12-0.36-0.32-0.56-0.32
	c-0.98-0.03-1.96-0.01-2.93-0.01c-0.7,0-1.4,0-2.1,0c-0.04,0.38-0.07,0.66-0.11,1.03c-11.35,0-22.66,0-33.99,0
	C22.37,91.62,22.37,92.57,22.37,93.67z M22.35,101.9c12.26,0,24.43,0,36.59,0c0-1.02,0-1.99,0-2.98c-0.29-0.02-0.52-0.04-0.76-0.04
	c-10.5,0-20.99,0-31.49,0.01c-1.24,0-2.48,0.05-3.72,0.05c-0.44,0-0.66,0.14-0.64,0.62C22.37,100.32,22.35,101.08,22.35,101.9z
	 M44.81,58.12c-0.01,0-0.01,0-0.02,0c0,1.22-0.02,2.43,0,3.65c0.04,2.09,1.53,3.62,3.61,3.65c2.41,0.03,4.82,0.04,7.23,0
	c2-0.03,3.59-1.58,3.62-3.52c0.04-2.48,0.04-4.96,0-7.44c-0.03-1.86-1.45-3.42-3.24-3.46c-2.65-0.07-5.3-0.08-7.94,0
	c-1.85,0.05-3.19,1.49-3.25,3.34C44.77,55.59,44.81,56.85,44.81,58.12z M10.86,76.36c0,3.89,0,7.7,0,11.52c3.87,0,7.67,0,11.49,0
	c0-3.86,0-7.68,0-11.52C18.5,76.36,14.72,76.36,10.86,76.36z M43.51,7.24c-2.94,0-5.79,0-8.69,0c0,2,0,3.97,0,5.99
	c2.91,0,5.78,0,8.69,0C43.51,11.22,43.51,9.26,43.51,7.24z M45.14,79.07c-0.41,0-0.72-0.03-1.02,0.01
	c-0.67,0.07-1.09-0.12-1.48-0.76c-1.35-2.21-4.48-3.06-6.82-1.96c-2.1,0.98-3.48,3.31-3.23,5.43c0.31,2.62,1.94,4.48,4.39,5
	c2.36,0.5,4.65-0.55,5.91-2.66c0.13-0.22,0.49-0.39,0.77-0.43c0.48-0.07,0.97-0.02,1.49-0.02C45.14,82.07,45.14,80.61,45.14,79.07z
	 M45.63,10.5c2.97,0,5.86,0,8.81,0c0-1.11,0-2.17,0-3.26c-0.42-0.03-0.81-0.05-1.2-0.08c-0.03-0.45-0.06-0.84-0.09-1.21
	c-0.81,0-1.54,0-2.29,0c-0.03,0.44-0.05,0.83-0.08,1.2c-0.55,0-1.01,0-1.51,0c-0.02-0.43-0.05-0.83-0.07-1.19c-0.83,0-1.58,0-2.33,0
	c-0.02,0.44-0.04,0.81-0.07,1.21c-0.42,0.02-0.79,0.04-1.18,0.06C45.63,8.32,45.63,9.36,45.63,10.5z M60.1,5.95
	c-0.8,0-1.57,0-2.35,0c-0.02,0.43-0.04,0.81-0.06,1.21c-0.41,0.03-0.78,0.05-1.22,0.08c0,0.8,0,1.56,0,2.31c0,0.99,0,0.99,1.02,0.99
	c2.36,0,4.71,0,7.07,0c0.23,0,0.46,0,0.7,0c0-1.16,0-2.23,0-3.35c-0.4,0-0.73,0-1.11,0c-0.06-0.44-0.11-0.85-0.16-1.26
	c-0.78,0-1.5,0-2.26,0c-0.03,0.44-0.05,0.83-0.07,1.21c-0.55,0-1.01,0-1.5,0C60.14,6.73,60.12,6.35,60.1,5.95z M48.5,112.66
	c0-1.92,0-3.77,0-5.61c-3.91,0-7.76,0-11.62,0c0,1.89,0,3.74,0,5.61C40.77,112.66,44.62,112.66,48.5,112.66z M38.32,59.33
	c-5.37,0-10.64,0-15.91,0c0,1.03,0,1.99,0,3.01c2.39,0,4.72,0,7.06,0c2.72,0,5.43,0.01,8.15-0.02c0.24,0,0.66-0.21,0.67-0.35
	C38.35,61.1,38.32,60.22,38.32,59.33z M64.35,112.68c3.93,0,7.78,0,11.7,0c0-1.79,0.01-3.52-0.02-5.25c0-0.14-0.28-0.38-0.43-0.39
	c-1.31-0.03-2.61-0.01-3.92,0c-1.26,0.01-2.52,0.01-3.77,0.01c-1.18,0-2.36,0-3.56,0C64.35,108.97,64.35,110.79,64.35,112.68z
	 M34.04,107.04c-3.92,0-7.79,0-11.64,0c0,1.91,0,3.75,0,5.6c3.91,0,7.76,0,11.64,0C34.04,110.77,34.04,108.94,34.04,107.04z
	 M33.79,53.73c0.01-1.96-1.44-3.45-3.4-3.48c-1.96-0.03-3.58,1.5-3.59,3.4c-0.01,1.92,1.55,3.5,3.48,3.53
	C32.24,57.21,33.77,55.7,33.79,53.73z M22.31,57.18c1.97,0,3.49-1.51,3.5-3.47c0.01-1.87-1.56-3.48-3.37-3.47
	c-2.09,0.01-3.51,1.38-3.52,3.4C18.89,55.68,20.33,57.18,22.31,57.18z M80.83,56.65c0,2.98,0,5.87,0,8.8c1.09,0,2.14,0,3.22,0
	c0-0.63,0-1.23,0-1.82c-0.46-0.02-0.85-0.04-1.24-0.06c0-0.39,0-0.71,0-1.07c0.44-0.03,0.84-0.05,1.24-0.08c0-0.95,0-1.86,0-2.78
	c-0.46-0.03-0.85-0.05-1.23-0.07c0-0.38,0-0.68,0-0.85c0.4-0.47,1.15,0.23,1.28-0.58c0.08-0.48,0.01-0.98,0.01-1.5
	C82.97,56.65,81.93,56.65,80.83,56.65z M53.13,108.62c0.01,1.72,1.37,3.03,3.12,3.03c1.61,0,3.03-1.46,3-3.1
	c-0.02-1.66-1.42-3.04-3.08-3.03C54.44,105.53,53.12,106.88,53.13,108.62z M19.07,63.39c0-1.71-1.38-3.09-3.08-3.08
	c-1.57,0.01-3.07,1.52-3.06,3.08c0.01,1.65,1.39,3.03,3.06,3.05C17.72,66.46,19.07,65.12,19.07,63.39z M15.78,95.66
	c1.72,0.01,3.12-1.36,3.11-3.05c-0.01-1.67-1.45-3.08-3.12-3.07c-1.62,0.01-2.99,1.38-3,3.01C12.75,94.33,14.03,95.65,15.78,95.66z
	 M15.8,104c1.68,0.02,3.06-1.32,3.09-3c0.03-1.62-1.43-3.11-3.08-3.14c-1.62-0.03-2.98,1.39-3.06,3.05
	C12.66,102.58,14.24,104.06,15.8,104z M52.39,81.35c-0.01,1.71,1.32,3.1,2.96,3.1c1.74,0,3.1-1.34,3.1-3.06
	c0-1.69-1.34-3.05-3.02-3.05C53.72,78.33,52.4,79.64,52.39,81.35z M85.49,50.21c0-1.73-1.35-3.12-3.07-3.06
	c-1.78,0.06-2.93,1.22-3.03,3.05c-0.09,1.65,1.4,3.08,3.08,3.07C84.16,53.25,85.5,51.91,85.49,50.21z M19.08,71.74
	c0.02-1.69-1.37-3.11-3.06-3.12c-1.62-0.01-3.06,1.42-3.09,3.05c-0.02,1.64,1.37,3.07,3.02,3.08
	C17.72,74.77,19.06,73.48,19.08,71.74z M10.87,112.83c1.23,0,2.28-1.04,2.29-2.27c0.01-1.2-1.09-2.28-2.3-2.28
	c-1.18,0.01-2.22,1.05-2.23,2.26C8.62,111.8,9.62,112.83,10.87,112.83z M83,108.28c-1.17,0-2.22,1.05-2.24,2.24
	c-0.02,1.26,0.99,2.31,2.22,2.31c1.26,0.01,2.27-0.99,2.29-2.25C85.28,109.36,84.22,108.28,83,108.28z M83.02,9.8
	c1.29,0,2.27-0.96,2.29-2.23c0.02-1.24-1.01-2.27-2.26-2.26c-1.25,0-2.27,1.03-2.26,2.28C80.79,8.79,81.8,9.8,83.02,9.8z
	 M10.95,9.81c1.25,0,2.25-1.02,2.24-2.28c-0.01-1.22-1.02-2.21-2.24-2.22c-1.27,0-2.27,0.98-2.28,2.25
	C8.65,8.79,9.67,9.8,10.95,9.81z"/>
<path d="M84.7,105.11c-2.12,0-4.19,0-6.34,0c0-4.64,0-9.25,0-13.93c-1.09,0-2.09,0-3.16,0c0,4.64,0,9.25,0,13.93
	c-3.41,0-6.76,0-10.21,0c0-0.27,0-0.52,0-0.77c0-3.08-0.01-6.15,0.02-9.23c0-0.35,0.18-0.79,0.43-1.04
	c4.98-5.02,9.99-10.02,14.99-15.04c1.38-1.38,2.73-2.79,4.09-4.19c0.06,0.03,0.12,0.06,0.18,0.09C84.7,84.95,84.7,94.99,84.7,105.11
	z"/>
<path d="M88.41,101.95c-1.02,0-1.97,0-2.99,0c0-8.81,0-17.6,0-26.45c0.99,0,1.95,0,2.99,0C88.41,84.31,88.41,93.11,88.41,101.95z"/>
<path d="M6.07,59.32c0-2.94,0-5.79,0-8.71c2.47,0,4.92,0,7.46,0c0,0.3,0,0.61,0,0.91c0.02,2.33,0.02,4.67,0.09,7
	c0.02,0.7-0.18,0.85-0.88,0.82c-1.95-0.07-3.91-0.02-5.86-0.02C6.64,59.32,6.4,59.32,6.07,59.32z"/>
<path d="M84.68,72.37c0.2,0.94-0.02,1.59-0.68,2.24c-6.2,6.14-12.36,12.32-18.53,18.48c-0.11,0.11-0.23,0.22-0.47,0.44
	c0-0.93-0.02-1.73,0.01-2.52c0.01-0.16,0.17-0.32,0.3-0.45c5.95-5.95,11.9-11.9,17.84-17.86C83.63,72.22,84.12,72.32,84.68,72.37z"
	/>
<path d="M6.08,27.09c2.49,0,4.91,0,7.45,0c0,0.4,0,0.79,0,1.19c0,1.57,0,3.14,0,4.72c0,0.35,0.02,0.66-0.5,0.66
	c-2.24-0.01-4.48-0.01-6.72-0.01c-0.07,0-0.13-0.04-0.24-0.08C6.08,31.44,6.08,29.31,6.08,27.09z"/>
<path d="M75.93,72.32c-3.67,3.66-7.27,7.26-10.93,10.91c0-1.61-0.01-3.22,0.01-4.83c0-0.14,0.15-0.29,0.26-0.41
	c1.75-1.76,3.49-3.52,5.27-5.25c0.24-0.23,0.65-0.39,0.98-0.4C72.98,72.29,74.45,72.32,75.93,72.32z"/>
<path d="M79.57,72.32c-4.89,4.89-9.69,9.7-14.57,14.58c0-0.84-0.03-1.61,0.02-2.38c0.01-0.22,0.24-0.45,0.42-0.63
	c3.58-3.59,7.18-7.16,10.75-10.76c0.58-0.58,1.15-0.94,1.98-0.82C78.61,72.37,79.06,72.32,79.57,72.32z"/>
<path d="M65.04,89.73c-0.15-1.01-0.03-1.85,0.83-2.7c4.65-4.54,9.24-9.15,13.79-13.8c0.84-0.86,1.69-1.07,2.75-0.86
	C76.62,78.16,70.84,83.94,65.04,89.73z"/>
<path d="M77.69,105.08c-0.64,0-1.22,0-1.88,0c0-4.41,0-8.81,0-13.26c0.64,0,1.22,0,1.88,0C77.69,96.23,77.69,100.63,77.69,105.08z"
	/>
<path d="M13.53,37c0,0.98,0.02,1.9-0.02,2.83c-0.01,0.14-0.27,0.4-0.42,0.4c-2.31,0.03-4.62,0.02-7.01,0.02c0-1.09,0-2.14,0-3.25
	C8.55,37,10.99,37,13.53,37z"/>
<path d="M6.03,43.56c2.54,0,4.96,0,7.45,0c0,1.08,0,2.14,0,3.28c-0.82,0-1.6,0-2.38,0c-1.48,0-2.96-0.02-4.43,0.01
	c-0.51,0.01-0.66-0.17-0.65-0.66C6.06,45.33,6.03,44.48,6.03,43.56z"/>
<path d="M13.46,15.91c-0.35,0.02-0.7,0.04-1.1,0.06c0,1.33,0,2.63,0,4.01c0.26,0.01,0.53-0.01,0.77,0.05
	c0.16,0.04,0.28,0.22,0.41,0.34c-0.13,0.13-0.26,0.37-0.4,0.37c-1.57,0.03-3.14,0.02-4.77,0.02c0-1.86,0-3.65,0-5.53
	c1.62,0,3.21-0.01,4.8,0.02c0.16,0,0.3,0.31,0.46,0.47C13.58,15.79,13.52,15.85,13.46,15.91z"/>
<path d="M6.44,20.89c-1.31-0.09-1.42-0.19-1.42-1.38c0-1.02,0-2.05,0-3.07c0-1.15,0.15-1.3,1.42-1.34
	C6.44,17.01,6.44,18.93,6.44,20.89z"/>
<path d="M7.66,11.63c0,4.09,0,8.17-0.01,12.24c0,0.19-0.16,0.37-0.24,0.56c-0.08-0.19-0.23-0.37-0.23-0.56
	c-0.02-3.89-0.03-7.77-0.03-11.66C7.15,11.94,7,11.39,7.66,11.63z"/>
<path d="M13.03,16.66c0.42,0,0.81,0,1.26,0c0,0.88,0,1.75,0,2.66c-0.4,0-0.79,0-1.26,0C13.03,18.46,13.03,17.57,13.03,16.66z"/>
<path d="M5.49,53.7c-0.57,0-0.95,0-1.47,0c0.05-0.55,0.04-1.09,0.2-1.57c0.04-0.11,0.91-0.15,0.95-0.03
	C5.37,52.57,5.39,53.1,5.49,53.7z"/>
<path d="M4.15,56.19c0.41,0,0.78,0,1.21,0c0,0.56,0,1.08,0,1.6C3.97,58.01,3.84,57.83,4.15,56.19z"/>
<path d="M6.49,23.48c-0.55,0-0.98,0-1.45,0c0-0.32,0-0.59,0-0.92c0.45,0,0.89,0,1.41,0C6.46,22.85,6.48,23.14,6.49,23.48z"/>
<path d="M6.47,13.42c-0.5,0-0.94,0-1.42,0c0-0.32,0-0.59,0-0.92c0.45,0,0.9,0,1.42,0C6.47,12.78,6.47,13.05,6.47,13.42z"/>
<path d="M10.24,13.22c-0.7,0-1.14,0.02-1.58-0.01c-0.11-0.01-0.22-0.16-0.33-0.25c0.09-0.1,0.18-0.29,0.28-0.3
	c0.37-0.04,0.76-0.05,1.13,0C9.88,12.68,9.98,12.91,10.24,13.22z"/>
<path d="M9.21,22.63c0.31,0.15,0.57,0.27,0.83,0.39c-0.27,0.1-0.54,0.27-0.81,0.27c-0.3,0-0.6-0.16-0.9-0.25
	C8.61,22.91,8.89,22.78,9.21,22.63z"/>
<path class="st0" d="M32.33,7.25c0,13.4,0,26.73,0,40.15c-0.26,0.02-0.51,0.05-0.76,0.05c-2.88-0.02-5.76-0.05-8.64-0.05
	c-1.43,0-2.86,0.04-4.29,0.05c-0.91,0.01-0.92,0-0.92-0.95c0-3.58,0.01-7.16,0.01-10.73c0-7.97,0-15.94-0.01-23.9
	c0-0.49,0.13-0.85,0.5-1.18c1.12-1.03,2.21-2.11,3.33-3.14c0.19-0.17,0.48-0.33,0.73-0.34c3.24-0.02,6.49-0.01,9.73-0.01
	C32.1,7.21,32.19,7.23,32.33,7.25z M31.71,13.91c-0.07-0.03-0.14-0.06-0.21-0.09c-1.37,1.38-2.73,2.77-4.11,4.15
	c-2.86,2.86-5.73,5.72-8.57,8.6c-0.25,0.25-0.44,0.68-0.45,1.04c-0.04,2.74-0.02,5.49-0.02,8.23c0,0.23,0.02,0.46,0.04,0.77
	c3.09,0,6.11,0,9.15,0c0,1.36,0,2.63,0,3.99c-0.33,0-0.61,0-0.89,0c-2.53,0-5.06-0.01-7.58,0.01c-0.24,0-0.67,0.21-0.68,0.35
	c-0.07,0.8-0.03,1.61-0.03,2.52c3.12,0,6.15,0,9.25,0c0,1.17,0,2.23,0,3.37c1.2,0,2.31-0.02,3.43,0.01c0.53,0.02,0.7-0.15,0.69-0.69
	c-0.03-1.88-0.01-3.76-0.01-5.65c0-8.4,0-16.79,0-25.19C31.71,14.85,31.71,14.38,31.71,13.91z M18.36,25.83
	c0.1,0.06,0.19,0.13,0.29,0.19c0.21-0.29,0.39-0.6,0.64-0.85c4-4.01,8.02-8,12.02-12.01c0.17-0.17,0.36-0.43,0.38-0.65
	c0.05-0.74,0.02-1.49,0.02-2.39c-0.3,0.25-0.46,0.37-0.61,0.51c-1.46,1.46-2.92,2.92-4.38,4.39c-2.65,2.66-5.3,5.32-7.95,7.99
	c-0.17,0.17-0.37,0.41-0.39,0.63C18.33,24.37,18.36,25.1,18.36,25.83z M29.86,7.87c-0.61,0-1.19,0.03-1.75-0.01
	c-0.55-0.04-0.93,0.16-1.31,0.55c-2.66,2.69-5.35,5.36-8.02,8.04c-0.16,0.16-0.37,0.37-0.39,0.57c-0.04,0.77-0.02,1.55-0.02,2.35
	C22.22,15.52,26.01,11.72,29.86,7.87z M26.28,7.87c-1.37,0-2.65-0.01-3.93,0.01C22.19,7.88,22,8,21.87,8.12
	c-1.07,1.01-2.13,2.03-3.19,3.06c-0.13,0.13-0.3,0.3-0.31,0.45c-0.02,1.36-0.01,2.73-0.01,4.17C21.03,13.12,23.61,10.54,26.28,7.87z
	 M18.45,22.35c0.26-0.24,0.46-0.42,0.66-0.62c4.04-4.04,8.07-8.09,12.12-12.11c0.52-0.52,0.53-1.05,0.38-1.87
	C31.24,7.92,30.86,8,30.64,8.23c-3.77,3.74-7.49,7.52-11.29,11.23C18.51,20.28,18.13,21.09,18.45,22.35z M18.36,44.13
	c0,0.67,0.04,1.29-0.01,1.9c-0.05,0.61,0.12,0.88,0.78,0.82c0.54-0.06,1.1-0.01,1.64-0.01c1.79,0.01,3.57,0.01,5.36,0.05
	c0.59,0.01,0.88-0.18,0.84-0.81c-0.03-0.63-0.01-1.27-0.01-1.94C24.05,44.13,21.25,44.13,18.36,44.13z M26.89,39.96
	c0-0.97,0-1.82,0-2.73c-2.74,0-5.42-0.01-8.11,0.02c-0.14,0-0.38,0.26-0.4,0.41c-0.05,0.49,0.01,1-0.03,1.5
	c-0.06,0.61,0.13,0.84,0.79,0.82c1.6-0.05,3.19-0.02,4.79-0.02C24.9,39.96,25.87,39.96,26.89,39.96z"/>
<path class="st0" d="M74.74,17.53c-0.36-0.03-0.64-0.05-0.95-0.08c0-1.87,0-3.69,0-5.58c1.66,0,3.32,0,5.03,0c0,1.84,0,3.68,0,5.57
	c-0.27,0.03-0.55,0.05-0.91,0.08c0,14.07,0,28.14,0,42.26c0.29,0.03,0.57,0.07,0.91,0.11c0,1.82,0,3.64,0,5.53
	c-1.64,0-3.29,0-5.01,0c0-1.81,0-3.63,0-5.51c0.28-0.04,0.58-0.08,0.93-0.14C74.74,45.7,74.74,31.64,74.74,17.53z M75.46,15.51
	c0,15.47,0,30.86,0,46.24c0.61,0,1.15,0,1.73,0c0-15.43,0-30.82,0-46.24C76.58,15.51,76.06,15.51,75.46,15.51z M74.73,60.51
	c-0.07,0-0.14,0-0.21-0.01c-0.03,0.08-0.09,0.16-0.09,0.24c-0.01,1.24-0.02,2.48,0.01,3.71c0,0.14,0.31,0.39,0.48,0.4
	c0.93,0.04,1.86,0,2.78,0.02c0.42,0.01,0.52-0.18,0.51-0.56c-0.02-1.12,0-2.24-0.01-3.36c0-0.16-0.06-0.31-0.1-0.47
	c-0.07,0.01-0.14,0.01-0.2,0.02c0,0.62,0,1.24,0,1.89c-1.09,0-2.08,0-3.17,0C74.73,61.75,74.73,61.13,74.73,60.51z M74.72,14.89
	c1.09,0,2.1,0,3.21,0c0,0.66,0,1.28,0,1.89c0.07,0,0.13,0,0.2,0c0-1.41,0-2.82,0-4.25c-1.23,0-2.45,0-3.67,0
	c-0.19,1.89-0.09,3.93,0.26,4.32C74.72,16.19,74.72,15.6,74.72,14.89z"/>
<path class="st0" d="M72.84,17.46c-0.31,0.03-0.54,0.04-0.83,0.07c-0.02,0.23-0.04,0.43-0.04,0.64c0,8.92,0,17.84-0.01,26.76
	c0,2.88-0.07,5.76-0.07,8.64c0,1.91,0.05,3.81,0.07,5.72c0,0.35,0.06,0.58,0.49,0.63c0.16,0.02,0.41,0.27,0.41,0.43
	c0.03,1.69,0.02,3.37,0.02,5.1c-1.68,0-3.3,0-4.98,0c0-1.84,0-3.68,0-5.6c1.03,0.24,0.92-0.44,0.92-1.08
	c0.01-3.29,0.05-6.58,0.05-9.86c-0.01-10.21-0.03-20.41-0.05-30.62c0-0.23-0.02-0.47-0.04-0.73c-0.32-0.04-0.59-0.07-0.95-0.11
	c0-1.75-0.01-3.49,0.02-5.22c0-0.14,0.23-0.38,0.36-0.38c1.52-0.03,3.04-0.02,4.62-0.02C72.84,13.72,72.84,15.56,72.84,17.46z
	 M71.28,61.76c0-15.45,0-30.84,0-46.23c-0.63,0-1.19,0-1.8,0c0,15.43,0,30.82,0,46.23C70.11,61.76,70.65,61.76,71.28,61.76z
	 M68.75,60.52c-0.05-0.01-0.09-0.01-0.14-0.02c-0.04,0.07-0.12,0.14-0.12,0.21c-0.01,1.26-0.02,2.53,0,3.79
	c0,0.12,0.21,0.34,0.33,0.34c1.13,0.03,2.27,0.02,3.38,0.02c0-1.52,0-2.93,0-4.35c-0.06,0-0.13,0-0.19,0
	c-0.03,0.62-0.06,1.24-0.09,1.89c-1.05,0-2.04,0-3.08,0C68.81,61.76,68.78,61.14,68.75,60.52z M72.23,12.52c-1.24,0-2.46,0-3.67,0
	c-0.22,1.29-0.13,3.9,0.25,4.4c0-0.59,0.02-1.03-0.01-1.47c-0.03-0.46,0.11-0.65,0.6-0.62c0.64,0.04,1.29,0.03,1.93,0
	c0.5-0.03,0.69,0.16,0.65,0.66c-0.03,0.43-0.01,0.87-0.01,1.3c0.09,0,0.17-0.01,0.26-0.01C72.23,15.38,72.23,13.99,72.23,12.52z"/>
<path class="st0" d="M79.5,20.42c2,0,3.93,0,5.91,0c0,7.5,0,14.98,0,22.52c-1.95,0-3.9,0-5.91,0C79.5,35.45,79.5,27.97,79.5,20.42z
	 M82.03,42.4c0.29-2.03,0.15-2.21-1.44-2.1c-0.07,0.01-0.16-0.02-0.21,0.02c-0.11,0.09-0.28,0.21-0.29,0.32
	c-0.03,0.56-0.01,1.12-0.01,1.7c0.2,0.03,0.32,0.05,0.43,0.06C81,42.4,81.5,42.4,82.03,42.4z M82.12,29.5
	c-1.97-0.3-2.22-0.1-2.05,1.54c0.01,0.07-0.01,0.16,0.02,0.21c0.06,0.09,0.15,0.22,0.23,0.23c0.52,0.02,1.05,0.02,1.57-0.01
	c0.08-0.01,0.21-0.24,0.21-0.37C82.13,30.57,82.12,30.05,82.12,29.5z M82.07,32.15c-0.56,0-1.08-0.03-1.6,0.02
	c-0.14,0.01-0.37,0.23-0.38,0.37c-0.04,0.54-0.02,1.08-0.02,1.65c0.72,0,1.35,0,2,0C82.07,33.5,82.07,32.86,82.07,32.15z
	 M82.77,32.18c0,0.6-0.03,1.14,0.02,1.68c0.01,0.13,0.24,0.35,0.38,0.36c0.51,0.04,1.03,0.02,1.59,0.02c0-0.73,0-1.37,0-2.05
	C84.1,32.18,83.5,32.18,82.77,32.18z M84.74,42.4c0-0.76,0-1.43,0-2.1c-0.54,0-1.02-0.03-1.49,0.01c-0.16,0.01-0.44,0.18-0.45,0.29
	c-0.05,0.58-0.02,1.17-0.02,1.79c0.36,0,0.59,0,0.83,0C83.96,42.4,84.31,42.4,84.74,42.4z M84.69,31.47
	c0.4-1.81,0.15-2.17-1.42-2.06c-0.05,0-0.11-0.01-0.14,0.01c-0.13,0.11-0.34,0.22-0.35,0.34c-0.04,0.56-0.02,1.12-0.02,1.7
	C83.49,31.47,84.1,31.47,84.69,31.47z M80.07,37.65c0,0.58-0.03,1.09,0.02,1.6c0.01,0.15,0.22,0.38,0.35,0.39
	c0.53,0.05,1.07,0.02,1.63,0.02c0-0.72,0-1.35,0-2.02C81.41,37.65,80.8,37.65,80.07,37.65z M84.75,37.67c-0.69,0-1.32,0-1.99,0
	c0,0.56-0.03,1.06,0.02,1.55c0.02,0.16,0.24,0.41,0.38,0.43c0.51,0.05,1.03,0.02,1.59,0.02C84.75,38.95,84.75,38.33,84.75,37.67z
	 M80.07,34.88c0,0.63-0.02,1.17,0.02,1.71c0.01,0.13,0.2,0.34,0.32,0.34c0.54,0.04,1.08,0.02,1.7,0.02c0-0.54,0-0.98,0-1.43
	c0-0.18-0.03-0.37-0.04-0.58c-0.19-0.02-0.35-0.05-0.51-0.05C81.09,34.88,80.62,34.88,80.07,34.88z M80.15,26.54
	c-0.34,2.03-0.29,2.09,1.61,2.04c0.09,0,0.18-0.02,0.3-0.04c0-0.68,0-1.33,0-2C81.4,26.54,80.8,26.54,80.15,26.54z M82.08,21.11
	c-0.7,0-1.32,0-1.96,0c0,0.69,0,1.31,0,1.97c0.68,0,1.3,0,1.96,0C82.08,22.41,82.08,21.78,82.08,21.11z M84.76,26.56
	c-0.67,0-1.29,0-1.94,0c0,0.69,0,1.34,0,1.99c0.68,0,1.31,0,1.94,0C84.76,27.86,84.76,27.23,84.76,26.56z M82.07,23.85
	c-0.67,0-1.3,0-1.99,0c0,0.58-0.03,1.1,0.02,1.61c0.01,0.13,0.24,0.34,0.39,0.36c0.51,0.04,1.03,0.02,1.59,0.02
	C82.07,25.13,82.07,24.51,82.07,23.85z M82.77,34.92c0,0.6-0.03,1.12,0.02,1.63c0.01,0.14,0.23,0.37,0.36,0.38
	c0.53,0.04,1.07,0.02,1.6,0.02c0-0.74,0-1.37,0-2.03C84.09,34.92,83.48,34.92,82.77,34.92z M82.83,21.09c0,0.69,0,1.34,0,1.99
	c0.68,0,1.29,0,1.91,0c0-0.7,0-1.35,0-1.99C84.07,21.09,83.46,21.09,82.83,21.09z M84.76,23.85c-0.69,0-1.31,0-1.93,0
	c0,0.69,0,1.31,0,1.94c0.68,0,1.29,0,1.93,0C84.76,25.14,84.76,24.53,84.76,23.85z"/>
<path class="st0" d="M50.19,47.44c-2.98,0-5.96-0.01-8.94,0.01c-0.53,0-0.87-0.17-1.24-0.54c-1.61-1.66-3.27-3.27-4.88-4.93
	c-0.17-0.18-0.31-0.49-0.31-0.73c-0.02-6.17-0.02-12.35,0.01-18.52c0-0.31,0.21-0.68,0.43-0.91c1.61-1.65,3.24-3.28,4.9-4.89
	c0.23-0.22,0.61-0.4,0.92-0.4c5.17-0.01,10.35,0.01,15.52,0.02c0.93,0,1.86-0.06,2.78-0.02c0.34,0.02,0.74,0.17,0.98,0.41
	c1.69,1.64,3.36,3.31,5.01,5c0.2,0.21,0.34,0.58,0.34,0.87c0.02,6.13,0.02,12.26,0,18.39c0,0.27-0.14,0.61-0.33,0.8
	c-1.7,1.74-3.41,3.46-5.15,5.15c-0.2,0.2-0.59,0.28-0.89,0.28C56.29,47.45,53.24,47.44,50.19,47.44z M65.11,31.98
	c0-2.91-0.01-5.82,0.01-8.73c0-0.49-0.12-0.85-0.48-1.19c-1.52-1.48-2.99-3.01-4.51-4.48c-0.24-0.23-0.65-0.4-0.99-0.41
	c-5.89-0.02-11.78-0.03-17.66,0c-0.38,0-0.84,0.2-1.11,0.46c-1.53,1.46-3.03,2.96-4.5,4.49c-0.25,0.26-0.43,0.7-0.43,1.06
	c-0.03,5.89-0.02,11.77,0,17.66c0,0.32,0.15,0.71,0.37,0.94c1.53,1.57,3.08,3.11,4.66,4.63c0.23,0.22,0.61,0.38,0.92,0.38
	c5.91,0.02,11.83,0.02,17.74,0c0.33,0,0.74-0.18,0.98-0.42c1.47-1.43,2.87-2.92,4.36-4.33c0.48-0.46,0.65-0.91,0.65-1.55
	C65.09,37.66,65.11,34.82,65.11,31.98z"/>
<path class="st0" d="M56.43,68.27c0-0.4,0-0.7,0-1.04c1.87,0,3.7,0,5.59,0c0,1.67,0,3.32,0,5.03c-1.84,0-3.69,0-5.57,0
	c-0.02-0.3-0.05-0.57-0.08-0.94c-11.32,0-22.63,0-33.99,0c0-1.05,0-2.02,0-3.06C33.71,68.27,45.03,68.27,56.43,68.27z M58.34,68.91
	c-11.82,0-23.57,0-35.3,0c0,0.62,0,1.15,0,1.7c11.79,0,23.53,0,35.3,0C58.34,70.01,58.34,69.5,58.34,68.91z M61.39,71.57
	c0-1.2,0-2.42,0-3.63c-1.46,0-2.88,0-4.3,0c0,0.07,0,0.14-0.01,0.21c0.61,0,1.22,0,1.87,0c0,1.11,0,2.1,0,3.19
	c-0.65,0-1.26,0-1.88,0c0,0.08,0,0.15,0,0.23C58.49,71.57,59.9,71.57,61.39,71.57z"/>
<path class="st0" d="M22.37,93.67c0-1.1,0-2.05,0-3.1c11.33,0,22.64,0,33.99,0c0.04-0.37,0.07-0.64,0.11-1.03c0.7,0,1.4,0,2.1,0
	c0.98,0,1.96-0.02,2.93,0.01c0.2,0.01,0.55,0.21,0.56,0.32c0.04,1.57,0.03,3.13,0.03,4.73c-1.92,0-3.74,0-5.61,0
	c-0.03-0.3-0.06-0.58-0.1-0.95C45.06,93.67,33.75,93.67,22.37,93.67z M23.03,93.02c0.35,0,0.64,0,0.92,0c2.76,0,5.52,0,8.29,0
	c7.34,0,14.68,0,22.03,0c1.19,0,2.38-0.03,3.57-0.01c0.41,0.01,0.56-0.14,0.54-0.54c-0.02-0.4,0-0.8,0-1.24
	c-11.83,0-23.56,0-35.34,0C23.03,91.82,23.03,92.35,23.03,93.02z M57.09,93.69c0,0.08,0,0.16,0,0.24c1.44,0,2.88,0,4.31,0
	c0-1.25,0-2.47,0-3.65c-1.48,0-2.89,0-4.3,0c0,0.09,0,0.17-0.01,0.26c0.46,0,0.91-0.03,1.36,0.01c0.19,0.02,0.51,0.2,0.51,0.31
	c0.04,0.91,0.02,1.83,0.02,2.83C58.28,93.69,57.69,93.69,57.09,93.69z"/>
<path class="st0" d="M22.35,101.9c0-0.82,0.02-1.59-0.01-2.35c-0.02-0.48,0.2-0.62,0.64-0.62c1.24,0,2.48-0.05,3.72-0.05
	c10.5-0.01,20.99-0.01,31.49-0.01c0.23,0,0.47,0.03,0.76,0.04c0,1,0,1.96,0,2.98C46.78,101.9,34.61,101.9,22.35,101.9z
	 M23.03,101.34c1.65,0,3.24,0,4.83,0c9.8,0,19.61,0,29.41,0c0.24,0,0.49,0.04,0.71-0.02c0.16-0.05,0.38-0.22,0.39-0.36
	c0.05-0.46,0.02-0.93,0.02-1.42c-11.86,0-23.58,0-35.36,0C23.03,100.13,23.03,100.67,23.03,101.34z"/>
<path class="st0" d="M44.81,58.12c0-1.26-0.03-2.53,0.01-3.79c0.06-1.85,1.4-3.29,3.25-3.34c2.65-0.07,5.3-0.07,7.94,0
	c1.8,0.05,3.21,1.61,3.24,3.46c0.04,2.48,0.04,4.96,0,7.44c-0.03,1.94-1.62,3.49-3.62,3.52c-2.41,0.04-4.82,0.04-7.23,0
	c-2.08-0.03-3.57-1.55-3.61-3.65c-0.02-1.22,0-2.43,0-3.65C44.8,58.12,44.8,58.12,44.81,58.12z M52.08,51.56
	c-1.19,0-2.38-0.01-3.58,0c-1.79,0.01-3.06,1.18-3.09,2.96c-0.04,2.43-0.05,4.87,0,7.3c0.03,1.68,1.27,2.91,2.9,2.93
	c2.48,0.03,4.96,0.03,7.44,0c1.55-0.02,2.82-1.31,2.83-2.86c0.03-2.48,0.03-4.96,0-7.44c-0.02-1.63-1.3-2.87-2.94-2.89
	C54.46,51.55,53.27,51.56,52.08,51.56z"/>
<path class="st0" d="M10.86,76.36c3.86,0,7.64,0,11.49,0c0,3.84,0,7.66,0,11.52c-3.82,0-7.62,0-11.49,0
	C10.86,84.07,10.86,80.25,10.86,76.36z M11.49,77.01c0,3.44,0,6.82,0,10.22c3.44,0,6.84,0,10.25,0c0-3.43,0-6.81,0-10.22
	C18.32,77.01,14.94,77.01,11.49,77.01z"/>
<path class="st0" d="M43.51,7.24c0,2.02,0,3.98,0,5.99c-2.91,0-5.78,0-8.69,0c0-2.02,0-3.99,0-5.99
	C37.72,7.24,40.57,7.24,43.51,7.24z M40.18,12.61c0-0.71,0-1.33,0-2.06c-0.58,0-1.12-0.02-1.66,0.01c-0.13,0.01-0.36,0.19-0.37,0.3
	c-0.04,0.57-0.02,1.15-0.02,1.74C38.89,12.61,39.5,12.61,40.18,12.61z M35.44,12.59c0.72,0,1.35,0,2.06,0
	c0-0.58,0.02-1.12-0.02-1.66c-0.01-0.13-0.2-0.34-0.32-0.35c-0.56-0.04-1.12-0.02-1.72-0.02C35.44,11.28,35.44,11.91,35.44,12.59z
	 M42.91,10.63c-0.72,0-1.37,0-1.99,0c0,0.7,0,1.33,0,1.96c0.7,0,1.33,0,1.99,0C42.91,11.92,42.91,11.31,42.91,10.63z M40.19,7.92
	c-0.71,0-1.34,0-1.99,0c0,0.68,0,1.31,0,1.94c0.7,0,1.33,0,1.99,0C40.19,9.19,40.19,8.59,40.19,7.92z M40.91,7.91
	c0,0.67,0,1.3,0,1.93c0.7,0,1.35,0,1.98,0c0-0.68,0-1.29,0-1.93C42.21,7.91,41.58,7.91,40.91,7.91z M37.46,7.87
	c-0.52,0-0.96,0-1.41,0c-0.19,0-0.37,0.03-0.65,0.05c0,0.56-0.03,1.1,0.02,1.63c0.01,0.13,0.25,0.32,0.4,0.34
	c1.61,0.21,1.72,0.11,1.67-1.5C37.5,8.25,37.48,8.12,37.46,7.87z"/>
<path class="st0" d="M45.14,79.07c0,1.54,0,3,0,4.6c-0.51,0-1.01-0.05-1.49,0.02c-0.28,0.04-0.64,0.21-0.77,0.43
	c-1.25,2.11-3.55,3.16-5.91,2.66c-2.45-0.52-4.08-2.37-4.39-5c-0.25-2.12,1.14-4.45,3.23-5.43c2.34-1.1,5.47-0.25,6.82,1.96
	c0.39,0.64,0.81,0.83,1.48,0.76C44.43,79.05,44.74,79.07,45.14,79.07z M44.53,79.77c-0.24-0.02-0.46-0.08-0.65-0.04
	c-0.85,0.16-1.31-0.23-1.72-0.95c-0.89-1.56-2.36-2.26-4.11-2.26c-2.32-0.01-4.21,1.62-4.72,3.92c-0.46,2.11,0.69,4.42,2.66,5.35
	c2.06,0.97,4.61,0.48,5.88-1.39c0.68-1.01,1.34-1.53,2.52-1.36c0.03,0,0.07-0.06,0.14-0.12C44.53,81.9,44.53,80.86,44.53,79.77z"/>
<path class="st0" d="M45.63,10.5c0-1.14,0-2.18,0-3.27c0.39-0.02,0.76-0.04,1.18-0.06c0.02-0.4,0.04-0.77,0.07-1.21
	c0.75,0,1.5,0,2.33,0c0.02,0.37,0.04,0.76,0.07,1.19c0.49,0,0.96,0,1.51,0c0.02-0.37,0.05-0.76,0.08-1.2c0.75,0,1.48,0,2.29,0
	c0.03,0.37,0.06,0.76,0.09,1.21c0.39,0.03,0.78,0.05,1.2,0.08c0,1.09,0,2.15,0,3.26C51.49,10.5,48.6,10.5,45.63,10.5z M46.3,9.85
	c2.53,0,5.02,0,7.51,0c0-0.68,0-1.29,0-1.95c-0.17,0-0.42-0.03-0.43,0c-0.11,0.41-0.19,0.84-0.27,1.25c-0.76,0-1.49,0-2.26,0
	c-0.03-0.43-0.05-0.82-0.08-1.22c-0.54,0-1.02,0-1.55,0c0,0.44,0,0.81,0,1.2c-0.82,0-1.58,0-2.36,0c-0.02-0.44-0.04-0.81-0.05-1.18
	C46.17,7.92,46.1,8.19,46.3,9.85z M51.45,6.57c0,0.45,0,0.8,0,1.16c0,0.93,0.1,1,1.05,0.73c0-0.62,0-1.25,0-1.89
	C52.13,6.57,51.84,6.57,51.45,6.57z M47.57,6.57c0,0.69,0,1.31,0,1.92c1.01,0.17,1.03,0.15,1.03-0.76c0-0.37,0-0.74,0-1.16
	C48.22,6.57,47.92,6.57,47.57,6.57z"/>
<path class="st0" d="M60.1,5.95c0.02,0.4,0.04,0.77,0.06,1.19c0.49,0,0.95,0,1.5,0c0.02-0.38,0.05-0.77,0.07-1.21
	c0.75,0,1.48,0,2.26,0c0.05,0.41,0.1,0.82,0.16,1.26c0.38,0,0.7,0,1.11,0c0,1.11,0,2.19,0,3.35c-0.24,0-0.47,0-0.7,0
	c-2.36,0-4.71,0-7.07,0c-1.02,0-1.02,0-1.02-0.99c0-0.76,0-1.51,0-2.31c0.44-0.03,0.81-0.05,1.22-0.08
	c0.02-0.41,0.04-0.78,0.06-1.21C58.53,5.95,59.3,5.95,60.1,5.95z M60.17,7.9c-0.02,0.48-0.04,0.87-0.06,1.24c-0.84,0-1.59,0-2.39,0
	c0-0.35,0.03-0.66-0.01-0.96c-0.01-0.11-0.19-0.2-0.29-0.3c-0.1,0.1-0.27,0.2-0.28,0.31c-0.03,0.56-0.01,1.12-0.01,1.67
	c2.59,0,5.05,0,7.51,0c0.25-1.67,0.17-1.97-0.49-1.9c-0.02,0.39-0.04,0.79-0.06,1.18c-0.82,0-1.57,0-2.35,0
	C61.7,8.7,61.67,8.31,61.65,7.9C61.13,7.9,60.69,7.9,60.17,7.9z M63.4,8.63c0-0.8,0-1.43,0-2.18c-0.4,0.08-0.99,0.1-1.01,0.21
	c-0.09,0.57-0.09,1.18,0.01,1.75C62.41,8.53,63,8.55,63.4,8.63z M59.44,8.53c0-0.7,0-1.33,0-1.98c-0.36,0-0.68,0-1.01,0
	c0,0.68,0,1.31,0,1.98C58.77,8.53,59.06,8.53,59.44,8.53z"/>
<path class="st0" d="M48.5,112.66c-3.88,0-7.72,0-11.62,0c0-1.87,0-3.72,0-5.61c3.86,0,7.71,0,11.62,0
	C48.5,108.89,48.5,110.73,48.5,112.66z M47.91,107.7c-3.48,0-6.92,0-10.37,0c0,1.46,0,2.88,0,4.29c3.49,0,6.93,0,10.37,0
	C47.91,110.53,47.91,109.14,47.91,107.7z"/>
<path class="st0" d="M38.32,59.33c0,0.89,0.03,1.77-0.03,2.64c-0.01,0.14-0.44,0.35-0.67,0.35c-2.72,0.03-5.43,0.02-8.15,0.02
	c-2.33,0-4.67,0-7.06,0c0-1.02,0-1.98,0-3.01C27.68,59.33,32.95,59.33,38.32,59.33z M23.03,61.67c4.93,0,9.76,0,14.58,0
	c0-0.62,0-1.18,0-1.74c-4.89,0-9.72,0-14.58,0C23.03,60.53,23.03,61.09,23.03,61.67z"/>
<path class="st0" d="M64.35,112.68c0-1.89,0-3.71,0-5.62c1.2,0,2.38,0,3.56,0c1.26,0,2.52-0.01,3.77-0.01
	c1.31-0.01,2.61-0.02,3.92,0c0.15,0,0.43,0.25,0.43,0.39c0.03,1.73,0.02,3.47,0.02,5.25C72.13,112.68,68.28,112.68,64.35,112.68z
	 M65.02,112.06c3.52,0,6.95,0,10.37,0c0-1.51,0-2.93,0-4.37c-3.48,0-6.9,0-10.37,0C65.02,109.16,65.02,110.58,65.02,112.06z"/>
<path class="st0" d="M34.04,107.04c0,1.9,0,3.72,0,5.6c-3.88,0-7.73,0-11.64,0c0-1.85,0-3.69,0-5.6
	C26.26,107.04,30.12,107.04,34.04,107.04z M22.92,112.02c3.59,0,7.01,0,10.48,0c0-1.46,0-2.88,0-4.43c-3.37,0-6.7-0.01-10.03,0.02
	c-0.15,0-0.42,0.36-0.43,0.55C22.9,109.42,22.92,110.68,22.92,112.02z"/>
<path class="st0" d="M33.79,53.73c-0.01,1.97-1.54,3.48-3.51,3.45c-1.93-0.02-3.49-1.61-3.48-3.53c0.01-1.9,1.63-3.43,3.59-3.4
	C32.35,50.28,33.8,51.77,33.79,53.73z M29.96,54.06c-0.83,0-1.62,0-2.42,0c0.12,1.33,1.09,2.29,2.42,2.42
	C29.96,55.68,29.96,54.89,29.96,54.06z M27.53,53.4c0.71,0,1.38,0.02,2.03-0.02c0.15-0.01,0.42-0.2,0.42-0.32
	c0.04-0.7,0.02-1.4,0.02-2.1C28.62,51.09,27.72,51.98,27.53,53.4z M30.68,56.49c1.4-0.17,2.44-1.27,2.34-2.43c-0.77,0-1.54,0-2.34,0
	C30.68,54.89,30.68,55.66,30.68,56.49z M30.69,53.34c0.84,0,1.6,0,2.37,0c-0.07-1.33-1.21-2.41-2.42-2.31c0,0.63,0,1.27,0,1.91
	C30.64,53.06,30.67,53.17,30.69,53.34z"/>
<path class="st0" d="M22.31,57.18c-1.98,0-3.41-1.5-3.39-3.54c0.02-2.02,1.44-3.39,3.52-3.4c1.82-0.01,3.38,1.6,3.37,3.47
	C25.8,55.68,24.27,57.19,22.31,57.18z M19.52,53.36c0.74,0.03,1.42,0.08,2.11,0.07c0.14,0,0.39-0.23,0.4-0.36
	c0.04-0.72,0.02-1.44,0.02-2.17C20.67,51.05,19.75,51.95,19.52,53.36z M21.97,56.53c0-0.76,0.01-1.51-0.02-2.25
	c0-0.09-0.22-0.25-0.34-0.26c-0.68-0.03-1.36-0.01-2.04-0.01C19.67,55.39,20.45,56.22,21.97,56.53z M22.6,50.88
	c0,0.74-0.02,1.42,0.01,2.11c0.01,0.14,0.19,0.37,0.31,0.38c0.72,0.03,1.45,0.02,2.18,0.02C24.95,52.01,24.11,51.17,22.6,50.88z
	 M22.67,54.06c0,0.85,0,1.64,0,2.43c1.35-0.13,2.36-1.16,2.39-2.43C24.29,54.06,23.52,54.06,22.67,54.06z"/>
<path class="st0" d="M80.83,56.65c1.1,0,2.14,0,3.28,0c0,0.52,0.06,1.02-0.01,1.5c-0.13,0.81-0.88,0.1-1.28,0.58
	c0,0.17,0,0.46,0,0.85c0.38,0.02,0.78,0.04,1.23,0.07c0,0.92,0,1.83,0,2.78c-0.4,0.03-0.8,0.05-1.24,0.08c0,0.36,0,0.68,0,1.07
	c0.39,0.02,0.79,0.04,1.24,0.06c0,0.6,0,1.19,0,1.82c-1.08,0-2.12,0-3.22,0C80.83,62.53,80.83,59.63,80.83,56.65z M81.48,57.26
	c0,2.59,0,5.06,0,7.51c1.41,0.29,1.95,0.15,1.94-0.49c-0.41-0.04-0.82-0.08-1.21-0.12c0-0.8,0-1.53,0-2.28
	c0.44-0.03,0.84-0.06,1.23-0.09c0-0.54,0-1,0-1.53c-0.33,0-0.61,0.03-0.89-0.01c-0.14-0.03-0.36-0.19-0.37-0.3
	c-0.03-0.68-0.02-1.36-0.02-2.08c0.41,0,0.7,0.04,0.97-0.02c0.13-0.02,0.23-0.21,0.34-0.33c-0.11-0.09-0.21-0.26-0.32-0.27
	C82.61,57.24,82.07,57.26,81.48,57.26z"/>
<path class="st0" d="M53.13,108.62c-0.01-1.74,1.31-3.09,3.05-3.1c1.65-0.01,3.05,1.37,3.08,3.03c0.02,1.64-1.39,3.1-3,3.1
	C54.5,111.65,53.15,110.34,53.13,108.62z M55.81,108.23c0-0.71,0-1.34,0-1.97c-1.12,0.13-1.88,0.92-1.93,1.97
	C54.51,108.23,55.14,108.23,55.81,108.23z M58.54,108.22c-0.23-1.23-1.13-2.05-1.97-1.87c0,0.61,0,1.22,0,1.87
	C57.24,108.22,57.87,108.22,58.54,108.22z M55.82,110.92c0-0.65,0-1.3,0-1.97c-0.67,0-1.31,0-1.94,0
	C53.92,109.99,54.7,110.78,55.82,110.92z M58.56,108.94c-0.69,0-1.32,0-1.99,0c0,0.67,0,1.32,0,1.97
	C57.65,110.75,58.27,110.15,58.56,108.94z"/>
<path class="st0" d="M19.07,63.39c0,1.73-1.36,3.07-3.09,3.05c-1.66-0.02-3.05-1.4-3.06-3.05c-0.01-1.56,1.49-3.07,3.06-3.08
	C17.69,60.29,19.08,61.68,19.07,63.39z M16.37,63.75c0,0.68,0,1.32,0,1.97c1.15-0.15,1.87-0.86,1.98-1.97
	C17.7,63.75,17.05,63.75,16.37,63.75z M16.36,63c0.69,0,1.34,0,1.99,0c-0.11-1.09-0.98-1.92-1.99-1.93
	C16.36,61.7,16.36,62.33,16.36,63z M13.65,63.73c0.27,1.21,0.92,1.85,1.96,1.96c0-0.65,0-1.3,0-1.96
	C14.93,63.73,14.31,63.73,13.65,63.73z M13.61,62.98c0.72,0,1.37,0,2,0c0-0.69,0-1.31,0-1.99C14.52,61.28,13.91,61.92,13.61,62.98z"
	/>
<path class="st0" d="M15.78,95.66c-1.74-0.01-3.03-1.33-3.01-3.1c0.01-1.63,1.38-3,3-3.01c1.68-0.01,3.12,1.4,3.12,3.07
	C18.89,94.31,17.5,95.67,15.78,95.66z M13.49,92.96c0.09,1.16,0.89,1.95,1.94,1.96c0-0.65,0-1.29,0-1.96
	C14.76,92.96,14.16,92.96,13.49,92.96z M15.46,90.29c-1.12,0.1-1.98,0.99-1.92,1.96c0.63,0,1.26,0,1.92,0
	C15.46,91.56,15.46,90.93,15.46,90.29z M16.18,94.93c1.12-0.12,1.87-0.89,1.96-1.94c-0.65,0-1.3,0-1.96,0
	C16.18,93.66,16.18,94.27,16.18,94.93z M18.18,92.25c-0.3-1.22-0.92-1.81-1.99-1.95c0,0.64,0,1.27,0,1.95
	C16.86,92.25,17.49,92.25,18.18,92.25z"/>
<path class="st0" d="M15.8,104c-1.55,0.06-3.13-1.43-3.05-3.1c0.08-1.66,1.44-3.08,3.06-3.05c1.64,0.03,3.11,1.52,3.08,3.14
	C18.86,102.68,17.48,104.02,15.8,104z M15.45,98.6c-1.14,0.17-1.89,0.93-1.94,1.96c0.64,0,1.28,0,1.94,0
	C15.45,99.87,15.45,99.24,15.45,98.6z M15.46,103.29c0-0.7,0-1.34,0-2.01c-0.69,0-1.32,0-1.95,0
	C13.52,102.36,14.34,103.22,15.46,103.29z M16.18,103.3c1.14-0.18,1.84-0.92,1.97-2.09c-0.55,0-1.09-0.04-1.62,0.02
	c-0.16,0.02-0.41,0.3-0.42,0.47C16.08,102.21,16.15,102.73,16.18,103.3z M16.19,100.61c0.67,0,1.3,0,1.93,0
	c-0.08-1.1-0.85-1.87-1.93-1.97C16.19,99.27,16.19,99.91,16.19,100.61z"/>
<path class="st0" d="M52.39,81.35c0.01-1.7,1.33-3.02,3.04-3.01c1.68,0.01,3.02,1.36,3.02,3.05c0,1.71-1.36,3.06-3.1,3.06
	C53.71,84.45,52.38,83.06,52.39,81.35z M55.76,81.02c0.7,0,1.33,0,1.96,0c-0.14-1.15-0.92-1.9-1.96-1.91
	C55.76,79.72,55.76,80.33,55.76,81.02z M53.15,81.01c0.63,0,1.26,0,1.91,0c0-0.68,0-1.3,0-1.93C53.93,79.18,53.15,79.98,53.15,81.01
	z M55.79,81.74c0,0.7,0,1.32,0,1.95c1.12-0.11,1.91-0.93,1.89-1.95C57.06,81.74,56.46,81.74,55.79,81.74z M55.07,81.75
	c-0.66,0-1.29,0-1.92,0c0,1.04,0.79,1.85,1.92,1.93C55.07,83.05,55.07,82.43,55.07,81.75z"/>
<path class="st0" d="M85.49,50.21c0,1.69-1.33,3.04-3.02,3.05c-1.68,0.01-3.17-1.41-3.08-3.07c0.1-1.83,1.25-2.99,3.03-3.05
	C84.14,47.09,85.49,48.48,85.49,50.21z M82.08,52.57c0-0.71,0-1.35,0-2.02c-0.7,0-1.33,0-2,0C80.28,51.73,80.91,52.35,82.08,52.57z
	 M82.09,47.86c-1.18,0.22-1.79,0.83-2,1.98c0.66,0,1.3,0,2,0C82.09,49.16,82.09,48.54,82.09,47.86z M82.78,52.55
	c1.26-0.23,1.92-0.92,1.95-1.96c-0.65,0-1.29,0-1.95,0C82.78,51.28,82.78,51.89,82.78,52.55z M82.78,49.81c0.71,0,1.35,0,2.01,0
	c-0.23-1.2-0.95-1.87-2.01-1.91C82.78,48.52,82.78,49.13,82.78,49.81z"/>
<path class="st0" d="M19.08,71.74c-0.02,1.74-1.36,3.03-3.13,3.01c-1.65-0.01-3.04-1.44-3.02-3.08c0.02-1.63,1.46-3.05,3.09-3.05
	C17.71,68.63,19.1,70.05,19.08,71.74z M16.04,69.28c-1.35,0-2.45,1.1-2.44,2.44c0.01,1.31,1.1,2.39,2.42,2.4
	c1.36,0.01,2.46-1.09,2.45-2.44C18.45,70.39,17.34,69.28,16.04,69.28z"/>
<path class="st0" d="M10.87,112.83c-1.25,0-2.25-1.03-2.24-2.29c0.01-1.2,1.05-2.25,2.23-2.26c1.21-0.01,2.3,1.08,2.3,2.28
	C13.15,111.79,12.1,112.83,10.87,112.83z M9.26,110.59c0.01,0.89,0.77,1.62,1.66,1.6c0.89-0.02,1.6-0.78,1.57-1.69
	c-0.02-0.87-0.75-1.56-1.62-1.56C9.97,108.95,9.25,109.68,9.26,110.59z"/>
<path class="st0" d="M83,108.28c1.22,0,2.28,1.08,2.27,2.3c-0.02,1.26-1.03,2.26-2.29,2.25c-1.23-0.01-2.24-1.06-2.22-2.31
	C80.77,109.33,81.83,108.28,83,108.28z M84.62,110.53c-0.01-0.9-0.75-1.6-1.66-1.58c-0.84,0.02-1.58,0.78-1.57,1.62
	c0,0.88,0.78,1.64,1.65,1.63C83.92,112.18,84.63,111.44,84.62,110.53z"/>
<path class="st0" d="M83.02,9.8c-1.21,0-2.23-1-2.24-2.22c-0.01-1.25,1.01-2.27,2.26-2.28c1.25,0,2.28,1.02,2.26,2.26
	C85.29,8.84,84.3,9.8,83.02,9.8z M84.64,7.54c-0.01-0.9-0.75-1.64-1.62-1.62c-0.85,0.02-1.57,0.76-1.58,1.61
	c-0.01,0.92,0.7,1.64,1.6,1.64C83.95,9.18,84.65,8.46,84.64,7.54z"/>
<path class="st0" d="M10.95,9.81c-1.27,0-2.3-1.01-2.29-2.25C8.68,6.28,9.67,5.3,10.94,5.3c1.23,0,2.23,1,2.24,2.22
	C13.2,8.79,12.2,9.81,10.95,9.81z M9.3,7.59c0.01,0.89,0.77,1.61,1.67,1.59c0.89-0.03,1.61-0.8,1.58-1.68
	c-0.03-0.83-0.82-1.59-1.64-1.57C10.04,5.94,9.29,6.71,9.3,7.59z"/>
<path d="M31.71,13.91c0,0.47,0,0.94,0,1.41c0,8.4,0,16.79,0,25.19c0,1.88-0.02,3.76,0.01,5.65c0.01,0.54-0.16,0.71-0.69,0.69
	c-1.11-0.03-2.23-0.01-3.43-0.01c0-1.14,0-2.2,0-3.37c-3.09,0-6.13,0-9.25,0c0-0.91-0.03-1.72,0.03-2.52
	c0.01-0.14,0.44-0.35,0.68-0.35c2.53-0.03,5.06-0.02,7.58-0.01c0.28,0,0.56,0,0.89,0c0-1.36,0-2.63,0-3.99c-3.05,0-6.06,0-9.15,0
	c-0.02-0.31-0.04-0.54-0.04-0.77c0-2.74-0.02-5.49,0.02-8.23c0-0.35,0.2-0.78,0.45-1.04c2.84-2.88,5.71-5.73,8.57-8.6
	c1.37-1.38,2.74-2.77,4.11-4.15C31.57,13.84,31.64,13.88,31.71,13.91z"/>
<path d="M18.36,25.83c0-0.73-0.03-1.46,0.02-2.19c0.01-0.22,0.22-0.46,0.39-0.63c2.64-2.67,5.3-5.33,7.95-7.99
	c1.46-1.46,2.92-2.93,4.38-4.39c0.14-0.14,0.31-0.26,0.61-0.51c0,0.9,0.03,1.65-0.02,2.39c-0.01,0.23-0.2,0.48-0.38,0.65
	c-4,4.01-8.02,8-12.02,12.01c-0.25,0.25-0.43,0.57-0.64,0.85C18.55,25.96,18.45,25.89,18.36,25.83z"/>
<path d="M29.86,7.87c-3.85,3.86-7.64,7.65-11.49,11.5c0-0.81-0.03-1.58,0.02-2.35c0.01-0.2,0.22-0.41,0.39-0.57
	c2.67-2.68,5.36-5.35,8.02-8.04c0.38-0.39,0.76-0.59,1.31-0.55C28.67,7.9,29.24,7.87,29.86,7.87z"/>
<path d="M26.28,7.87c-2.67,2.67-5.25,5.25-7.92,7.93c0-1.45-0.01-2.81,0.01-4.17c0-0.15,0.18-0.32,0.31-0.45
	c1.06-1.03,2.12-2.05,3.19-3.06C22,8,22.19,7.88,22.35,7.88C23.63,7.86,24.91,7.87,26.28,7.87z"/>
<path d="M18.45,22.35c-0.32-1.26,0.06-2.07,0.9-2.89c3.8-3.7,7.52-7.49,11.29-11.23c0.23-0.23,0.6-0.3,0.97-0.48
	c0.16,0.82,0.14,1.36-0.38,1.87c-4.05,4.02-8.08,8.07-12.12,12.11C18.91,21.93,18.71,22.11,18.45,22.35z"/>
<path d="M18.36,44.13c2.89,0,5.69,0,8.61,0c0,0.67-0.03,1.31,0.01,1.94c0.03,0.63-0.25,0.82-0.84,0.81
	c-1.79-0.03-3.57-0.03-5.36-0.05c-0.55,0-1.1-0.05-1.64,0.01c-0.66,0.07-0.83-0.21-0.78-0.82C18.39,45.42,18.36,44.8,18.36,44.13z"
	/>
<path d="M26.89,39.96c-1.02,0-2,0-2.97,0c-1.6,0-3.19-0.03-4.79,0.02c-0.65,0.02-0.84-0.21-0.79-0.82c0.05-0.5-0.02-1,0.03-1.5
	c0.02-0.16,0.26-0.41,0.4-0.41c2.69-0.02,5.38-0.02,8.11-0.02C26.89,38.14,26.89,38.98,26.89,39.96z"/>
<path d="M75.46,15.51c0.6,0,1.11,0,1.73,0c0,15.41,0,30.8,0,46.24c-0.57,0-1.11,0-1.73,0C75.46,46.37,75.46,30.97,75.46,15.51z
	 M76.01,38.69c0,2.84-0.01,5.67,0,8.51c0.01,3.05,0.03,6.1,0.04,9.16c0,0.6-0.04,1.19-0.03,1.79c0,0.12,0.17,0.23,0.25,0.35
	c0.11-0.12,0.28-0.22,0.32-0.35c0.06-0.17,0.02-0.38,0.02-0.57c0-4.08,0-8.15,0-12.23c0-8.49,0-16.98,0-25.48
	c0-0.24,0.02-0.48-0.02-0.71c-0.02-0.13-0.16-0.23-0.25-0.34c-0.11,0.12-0.29,0.22-0.32,0.35c-0.05,0.25-0.02,0.52-0.02,0.78
	C76.01,26.19,76.01,32.44,76.01,38.69z"/>
<path d="M74.73,60.51c0,0.62,0,1.24,0,1.89c1.09,0,2.08,0,3.17,0c0-0.65,0-1.27,0-1.89c0.07-0.01,0.14-0.01,0.2-0.02
	c0.03,0.16,0.1,0.31,0.1,0.47c0.01,1.12-0.01,2.24,0.01,3.36c0.01,0.38-0.09,0.57-0.51,0.56c-0.93-0.02-1.86,0.01-2.78-0.02
	c-0.17-0.01-0.48-0.25-0.48-0.4c-0.04-1.24-0.02-2.48-0.01-3.71c0-0.08,0.06-0.16,0.09-0.24C74.59,60.5,74.66,60.51,74.73,60.51z"/>
<path d="M74.72,14.89c0,0.71,0,1.3,0,1.95c-0.35-0.38-0.44-2.42-0.26-4.32c1.21,0,2.44,0,3.67,0c0,1.42,0,2.83,0,4.25
	c-0.07,0-0.13,0-0.2,0c0-0.61,0-1.22,0-1.89C76.81,14.89,75.81,14.89,74.72,14.89z"/>
<path d="M71.28,61.76c-0.63,0-1.17,0-1.8,0c0-15.42,0-30.81,0-46.23c0.61,0,1.17,0,1.8,0C71.28,30.92,71.28,46.31,71.28,61.76z
	 M70.31,18.72c-0.09,0.05-0.18,0.11-0.28,0.16c0,0.26,0,0.52,0,0.78c0,10.23,0,20.46,0,30.69c0,2.53,0,5.06,0.01,7.58
	c0,0.18,0.11,0.38,0.22,0.53c0.04,0.05,0.34,0,0.36-0.06c0.07-0.19,0.08-0.41,0.08-0.62c0.01-3.88,0.01-7.77,0.01-11.65
	c0-8.7,0-17.41-0.01-26.11c0-0.24,0.05-0.49-0.01-0.71C70.62,19.09,70.44,18.91,70.31,18.72z"/>
<path d="M68.75,60.52c0.03,0.62,0.06,1.24,0.09,1.88c1.05,0,2.04,0,3.08,0c0.03-0.65,0.06-1.27,0.09-1.89c0.06,0,0.13,0,0.19,0
	c0,1.42,0,2.83,0,4.35c-1.11,0-2.25,0.01-3.38-0.02c-0.12,0-0.33-0.22-0.33-0.34c-0.02-1.26-0.01-2.53,0-3.79
	c0-0.07,0.08-0.14,0.12-0.21C68.66,60.51,68.71,60.52,68.75,60.52z"/>
<path d="M72.23,12.52c0,1.48,0,2.86,0,4.25c-0.09,0-0.17,0.01-0.26,0.01c0-0.43-0.02-0.87,0.01-1.3c0.03-0.49-0.15-0.68-0.65-0.66
	c-0.64,0.04-1.29,0.04-1.93,0c-0.49-0.03-0.63,0.17-0.6,0.62c0.03,0.44,0.01,0.88,0.01,1.47c-0.38-0.49-0.47-3.1-0.25-4.4
	C69.77,12.52,70.99,12.52,72.23,12.52z"/>
<path d="M82.03,42.4c-0.54,0-1.03,0-1.53,0c-0.11,0-0.23-0.03-0.43-0.06c0-0.58-0.02-1.14,0.01-1.7c0.01-0.11,0.18-0.23,0.29-0.32
	c0.04-0.04,0.14-0.01,0.21-0.02C82.19,40.19,82.32,40.37,82.03,42.4z"/>
<path d="M82.12,29.5c0,0.55,0.01,1.07-0.01,1.59c-0.01,0.13-0.13,0.37-0.21,0.37c-0.52,0.04-1.05,0.03-1.57,0.01
	c-0.08,0-0.17-0.14-0.23-0.23c-0.03-0.05-0.02-0.14-0.02-0.21C79.9,29.41,80.15,29.2,82.12,29.5z"/>
<path d="M82.07,32.15c0,0.72,0,1.35,0,2.04c-0.65,0-1.28,0-2,0c0-0.57-0.03-1.11,0.02-1.65c0.01-0.14,0.24-0.35,0.38-0.37
	C80.99,32.12,81.51,32.15,82.07,32.15z"/>
<path d="M82.77,32.18c0.73,0,1.33,0,1.99,0c0,0.68,0,1.33,0,2.05c-0.56,0-1.08,0.03-1.59-0.02c-0.14-0.01-0.37-0.22-0.38-0.36
	C82.74,33.32,82.77,32.78,82.77,32.18z"/>
<path d="M84.74,42.4c-0.42,0-0.78,0-1.13,0c-0.24,0-0.47,0-0.83,0c0-0.62-0.02-1.21,0.02-1.79c0.01-0.11,0.29-0.28,0.45-0.29
	c0.47-0.04,0.95-0.01,1.49-0.01C84.74,40.96,84.74,41.64,84.74,42.4z"/>
<path d="M84.69,31.47c-0.6,0-1.21,0-1.92,0c0-0.59-0.02-1.15,0.02-1.7c0.01-0.12,0.22-0.24,0.35-0.34c0.03-0.02,0.09-0.01,0.14-0.01
	C84.84,29.3,85.1,29.66,84.69,31.47z"/>
<path d="M80.07,37.65c0.73,0,1.34,0,2,0c0,0.67,0,1.29,0,2.02c-0.57,0-1.1,0.03-1.63-0.02c-0.13-0.01-0.33-0.25-0.35-0.39
	C80.04,38.74,80.07,38.22,80.07,37.65z"/>
<path d="M84.75,37.67c0,0.66,0,1.29,0,2c-0.56,0-1.08,0.03-1.59-0.02c-0.15-0.02-0.37-0.27-0.38-0.43
	c-0.05-0.49-0.02-0.99-0.02-1.55C83.43,37.67,84.06,37.67,84.75,37.67z"/>
<path d="M80.07,34.88c0.55,0,1.02,0,1.49,0c0.16,0,0.32,0.03,0.51,0.05c0.02,0.22,0.04,0.4,0.04,0.58c0.01,0.45,0,0.89,0,1.43
	c-0.63,0-1.17,0.02-1.7-0.02c-0.12-0.01-0.32-0.22-0.32-0.34C80.05,36.05,80.07,35.51,80.07,34.88z"/>
<path d="M80.15,26.54c0.64,0,1.25,0,1.91,0c0,0.68,0,1.33,0,2c-0.12,0.02-0.21,0.04-0.3,0.04C79.86,28.63,79.82,28.57,80.15,26.54z"
	/>
<path d="M82.08,21.11c0,0.67,0,1.3,0,1.97c-0.66,0-1.29,0-1.96,0c0-0.66,0-1.28,0-1.97C80.76,21.11,81.38,21.11,82.08,21.11z"/>
<path d="M84.76,26.56c0,0.68,0,1.31,0,1.99c-0.64,0-1.26,0-1.94,0c0-0.65,0-1.29,0-1.99C83.47,26.56,84.1,26.56,84.76,26.56z"/>
<path d="M82.07,23.85c0,0.65,0,1.28,0,1.98c-0.56,0-1.07,0.03-1.59-0.02c-0.14-0.01-0.38-0.22-0.39-0.36
	c-0.05-0.51-0.02-1.04-0.02-1.61C80.77,23.85,81.39,23.85,82.07,23.85z"/>
<path d="M82.77,34.92c0.71,0,1.32,0,1.98,0c0,0.66,0,1.29,0,2.03c-0.53,0-1.07,0.03-1.6-0.02c-0.14-0.01-0.35-0.24-0.36-0.38
	C82.74,36.04,82.77,35.52,82.77,34.92z"/>
<path d="M82.83,21.09c0.63,0,1.24,0,1.91,0c0,0.64,0,1.29,0,1.99c-0.62,0-1.23,0-1.91,0C82.83,22.43,82.83,21.78,82.83,21.09z"/>
<path d="M84.76,23.85c0,0.68,0,1.29,0,1.94c-0.65,0-1.26,0-1.93,0c0-0.63,0-1.26,0-1.94C83.45,23.85,84.07,23.85,84.76,23.85z"/>
<path d="M65.11,31.98c0,2.84-0.02,5.67,0.01,8.51c0.01,0.64-0.16,1.09-0.65,1.55c-1.49,1.41-2.89,2.9-4.36,4.33
	c-0.24,0.23-0.65,0.42-0.98,0.42c-5.91,0.03-11.83,0.03-17.74,0c-0.31,0-0.7-0.17-0.92-0.38c-1.58-1.52-3.13-3.07-4.66-4.63
	c-0.22-0.23-0.37-0.62-0.37-0.94c-0.02-5.89-0.02-11.77,0-17.66c0-0.36,0.18-0.8,0.43-1.06c1.47-1.52,2.97-3.02,4.5-4.49
	c0.27-0.26,0.73-0.46,1.11-0.46c5.89-0.03,11.78-0.03,17.66,0c0.33,0,0.75,0.17,0.99,0.41c1.52,1.48,3,3,4.51,4.48
	c0.36,0.35,0.48,0.71,0.48,1.19C65.1,26.17,65.11,29.08,65.11,31.98z M36.44,31.96C36.44,31.96,36.44,31.96,36.44,31.96
	c0,2.76,0.01,5.53-0.01,8.29c0,0.51,0.14,0.89,0.51,1.25c1.32,1.28,2.58,2.61,3.91,3.87c0.26,0.24,0.7,0.41,1.05,0.42
	c5.58,0.03,11.16,0.02,16.75,0c0.34,0,0.76-0.15,1-0.38c1.42-1.37,2.81-2.78,4.19-4.2c0.17-0.18,0.26-0.5,0.26-0.75
	c0.01-5.65,0.02-11.31-0.01-16.96c0-0.31-0.18-0.69-0.4-0.91c-1.31-1.36-2.64-2.69-3.99-4c-0.23-0.22-0.61-0.38-0.93-0.39
	c-1.31-0.03-2.62,0.01-3.93,0.01c-4.36-0.01-8.73-0.03-13.09-0.01c-0.31,0-0.7,0.18-0.92,0.4c-1.32,1.27-2.62,2.56-3.88,3.89
	c-0.26,0.27-0.47,0.73-0.47,1.1C36.42,26.38,36.44,29.17,36.44,31.96z"/>
<path d="M58.34,68.91c0,0.59,0,1.1,0,1.7c-11.77,0-23.51,0-35.3,0c0-0.55,0-1.09,0-1.7C34.78,68.91,46.52,68.91,58.34,68.91z
	 M55.31,69.5c-9.75,0-19.52,0-29.31,0c-0.13,0.74,0.39,0.58,0.74,0.58c8.51,0.01,17.02,0,25.53,0c0.88,0,1.76-0.01,2.64,0
	C55.31,70.08,55.51,69.97,55.31,69.5z"/>
<path d="M61.39,71.57c-1.49,0-2.9,0-4.31,0c0-0.08,0-0.15,0-0.23c0.61,0,1.23,0,1.88,0c0-1.1,0-2.08,0-3.19c-0.65,0-1.26,0-1.87,0
	c0-0.07,0-0.14,0.01-0.21c1.42,0,2.83,0,4.3,0C61.39,69.15,61.39,70.37,61.39,71.57z"/>
<path d="M23.03,93.02c0-0.66,0-1.2,0-1.79c11.78,0,23.52,0,35.34,0c0,0.45-0.01,0.85,0,1.24c0.02,0.4-0.14,0.54-0.54,0.54
	c-1.19-0.02-2.38,0.01-3.57,0.01c-7.34,0-14.68,0-22.03,0c-2.76,0-5.52,0-8.29,0C23.66,93.02,23.38,93.02,23.03,93.02z M32.34,92.24
	c0.26,0.06,0.51,0.17,0.77,0.17c7.15,0.01,14.31,0.01,21.46,0.01c0.14,0,0.31,0.05,0.42-0.02c0.17-0.1,0.31-0.27,0.46-0.41
	c-0.27-0.18-0.41-0.2-0.55-0.2c-7.2,0-14.4,0-21.61,0c-0.21,0-0.42,0.07-0.62,0.1c-0.73-0.04-1.45-0.09-2.18-0.1
	c-1.49-0.02-2.98,0-4.46,0c-0.18,0.6,0.14,0.62,0.51,0.62c1.73,0,3.47,0,5.2-0.01C31.94,92.4,32.14,92.3,32.34,92.24z"/>
<path d="M57.09,93.69c0.6,0,1.2,0,1.91,0c0-1,0.02-1.91-0.02-2.83c-0.01-0.12-0.33-0.29-0.51-0.31c-0.45-0.05-0.91-0.01-1.36-0.01
	c0-0.09,0-0.17,0.01-0.26c1.41,0,2.82,0,4.3,0c0,1.18,0,2.4,0,3.65c-1.43,0-2.87,0-4.31,0C57.08,93.85,57.09,93.77,57.09,93.69z"/>
<path d="M23.03,101.34c0-0.67,0-1.21,0-1.8c11.77,0,23.5,0,35.36,0c0,0.49,0.03,0.96-0.02,1.42c-0.01,0.14-0.23,0.32-0.39,0.36
	c-0.22,0.06-0.47,0.02-0.71,0.02c-9.8,0-19.61,0-29.41,0C26.27,101.34,24.68,101.34,23.03,101.34z M55.48,100.37
	c-0.06-0.08-0.11-0.15-0.17-0.23c-9.77,0-19.53,0-29.34,0c0,0.71,0.49,0.61,0.9,0.61c9.23,0,18.45,0,27.68,0
	c0.12,0,0.26,0.04,0.35-0.01C55.1,100.65,55.29,100.5,55.48,100.37z"/>
<path d="M52.08,51.56c1.19,0,2.38-0.01,3.58,0c1.63,0.02,2.92,1.26,2.94,2.89c0.03,2.48,0.03,4.96,0,7.44
	c-0.02,1.55-1.29,2.83-2.83,2.86c-2.48,0.04-4.96,0.04-7.44,0c-1.63-0.02-2.87-1.25-2.9-2.93c-0.05-2.43-0.05-4.87,0-7.3
	c0.03-1.78,1.3-2.95,3.09-2.96C49.69,51.56,50.89,51.56,52.08,51.56z M51.93,63.74c0.6,0,1.19,0,1.79,0c0.62,0,1.24,0.01,1.86,0
	c1.21-0.03,1.98-0.77,1.99-1.97c0.02-2.39,0.02-4.77,0-7.16c-0.01-1.3-0.77-2.04-2.06-2.04c-2.34-0.01-4.68-0.01-7.01,0
	c-1.28,0.01-2.08,0.83-2.08,2.12c-0.01,2.31-0.01,4.63,0,6.94c0,1.31,0.79,2.09,2.09,2.11C49.64,63.74,50.79,63.74,51.93,63.74z"/>
<path d="M11.49,77.01c3.44,0,6.82,0,10.25,0c0,3.41,0,6.79,0,10.22c-3.41,0-6.81,0-10.25,0C11.49,83.82,11.49,80.45,11.49,77.01z"/>
<path d="M40.18,12.61c-0.69,0-1.3,0-2.04,0c0-0.59-0.02-1.17,0.02-1.74c0.01-0.11,0.23-0.29,0.37-0.3c0.54-0.03,1.07-0.01,1.66-0.01
	C40.18,11.28,40.18,11.91,40.18,12.61z"/>
<path d="M35.44,12.59c0-0.68,0-1.31,0-2.02c0.6,0,1.17-0.02,1.72,0.02c0.12,0.01,0.31,0.22,0.32,0.35c0.04,0.54,0.02,1.08,0.02,1.66
	C36.79,12.59,36.16,12.59,35.44,12.59z"/>
<path d="M42.91,10.63c0,0.68,0,1.29,0,1.96c-0.66,0-1.29,0-1.99,0c0-0.62,0-1.25,0-1.96C41.54,10.63,42.19,10.63,42.91,10.63z"/>
<path d="M40.19,7.92c0,0.67,0,1.28,0,1.94c-0.67,0-1.3,0-1.99,0c0-0.63,0-1.26,0-1.94C38.85,7.92,39.48,7.92,40.19,7.92z"/>
<path d="M40.91,7.91c0.67,0,1.3,0,1.98,0c0,0.64,0,1.25,0,1.93c-0.64,0-1.28,0-1.98,0C40.91,9.2,40.91,8.58,40.91,7.91z"/>
<path d="M37.46,7.87c0.02,0.25,0.04,0.39,0.04,0.53c0.04,1.6-0.07,1.71-1.67,1.5c-0.15-0.02-0.39-0.21-0.4-0.34
	c-0.05-0.53-0.02-1.07-0.02-1.63c0.27-0.02,0.46-0.04,0.65-0.05C36.5,7.86,36.95,7.87,37.46,7.87z"/>
<path d="M44.53,79.77c0,1.09,0,2.13,0,3.14c-0.07,0.06-0.11,0.12-0.14,0.12c-1.19-0.17-1.84,0.36-2.52,1.36
	c-1.27,1.88-3.82,2.36-5.88,1.39c-1.97-0.93-3.12-3.24-2.66-5.35c0.5-2.3,2.4-3.92,4.72-3.92c1.75,0,3.22,0.7,4.11,2.26
	c0.42,0.72,0.87,1.12,1.72,0.95C44.07,79.7,44.29,79.76,44.53,79.77z M37.96,85.82c1.88,0.04,3.46-0.94,4.18-2.67
	c0.2-0.49,0.41-0.75,1.01-0.73c0.66,0.03,1.07-0.51,1.03-1.12c-0.04-0.53-0.52-1.01-1.11-0.96c-0.61,0.05-0.74-0.31-0.92-0.74
	c-0.86-2.01-3.07-3.08-5.17-2.53c-2.17,0.57-3.55,2.61-3.29,4.88C33.93,84.1,35.79,85.78,37.96,85.82z"/>
<path d="M46.3,9.85c-0.2-1.65-0.13-1.92,0.52-1.89c0.02,0.37,0.03,0.75,0.05,1.18c0.77,0,1.54,0,2.36,0c0-0.39,0-0.77,0-1.2
	c0.53,0,1.01,0,1.55,0c0.03,0.4,0.05,0.79,0.08,1.22c0.77,0,1.5,0,2.26,0c0.08-0.41,0.16-0.84,0.27-1.25c0.01-0.03,0.25,0,0.43,0
	c0,0.66,0,1.27,0,1.95C51.31,9.85,48.83,9.85,46.3,9.85z"/>
<path d="M51.45,6.57c0.39,0,0.69,0,1.05,0c0,0.64,0,1.26,0,1.89c-0.95,0.27-1.05,0.2-1.05-0.73C51.45,7.37,51.45,7.02,51.45,6.57z"
	/>
<path d="M47.57,6.57c0.36,0,0.65,0,1.03,0c0,0.42,0,0.79,0,1.16c0,0.92-0.02,0.93-1.03,0.76C47.57,7.88,47.57,7.25,47.57,6.57z"/>
<path d="M60.17,7.9c0.52,0,0.96,0,1.48,0c0.03,0.41,0.05,0.81,0.08,1.24c0.78,0,1.53,0,2.35,0c0.02-0.4,0.04-0.79,0.06-1.18
	c0.66-0.07,0.74,0.22,0.49,1.9c-2.46,0-4.92,0-7.51,0c0-0.55-0.02-1.11,0.01-1.67c0.01-0.11,0.18-0.21,0.28-0.31
	c0.1,0.1,0.27,0.19,0.29,0.3c0.04,0.3,0.01,0.61,0.01,0.96c0.8,0,1.55,0,2.39,0C60.13,8.76,60.15,8.37,60.17,7.9z"/>
<path d="M63.4,8.63c-0.39-0.08-0.98-0.1-1.01-0.21c-0.1-0.57-0.1-1.18-0.01-1.75c0.02-0.11,0.61-0.13,1.01-0.21
	C63.4,7.2,63.4,7.82,63.4,8.63z"/>
<path d="M59.44,8.53c-0.37,0-0.67,0-1.01,0c0-0.67,0-1.29,0-1.98c0.33,0,0.65,0,1.01,0C59.44,7.2,59.44,7.83,59.44,8.53z"/>
<path d="M47.91,107.7c0,1.43,0,2.83,0,4.29c-3.44,0-6.88,0-10.37,0c0-1.41,0-2.83,0-4.29C40.99,107.7,44.43,107.7,47.91,107.7z
	 M40.25,110.1c2.3,0,4.53,0,6.76,0c0-0.65,0-1.21,0-1.78c-2.89,0-5.74,0-8.59,0c0,1.07,0,2.09,0,3.14c0.6,0,1.16,0,1.76,0
	C40.2,111.02,40.22,110.63,40.25,110.1z"/>
<path d="M23.03,61.67c0-0.57,0-1.13,0-1.74c4.87,0,9.69,0,14.58,0c0,0.56,0,1.12,0,1.74C32.8,61.67,27.97,61.67,23.03,61.67z
	 M24.14,60.5c-0.21,0.63,0.17,0.63,0.58,0.63c3.64-0.01,7.28,0,10.92-0.01c0.17,0,0.35,0.04,0.5-0.01c0.15-0.05,0.26-0.19,0.39-0.28
	c-0.14-0.12-0.26-0.26-0.41-0.34c-0.09-0.05-0.23-0.01-0.35-0.01c-3.67,0-7.33,0-11,0C24.56,60.47,24.35,60.49,24.14,60.5z"/>
<path d="M65.02,112.06c0-1.48,0-2.9,0-4.37c3.47,0,6.89,0,10.37,0c0,1.44,0,2.86,0,4.37C71.97,112.06,68.53,112.06,65.02,112.06z
	 M67.74,110.13c2.29,0,4.51,0,6.75,0c0-0.67,0-1.24,0-1.8c-2.91,0-5.76,0-8.65,0c0,0.54,0,1.01,0,1.49
	c-0.02,1.76-0.02,1.76,1.73,1.68c0.02,0,0.04-0.03,0.1-0.08C67.69,111.06,67.71,110.67,67.74,110.13z"/>
<path d="M22.92,112.02c0-1.34-0.02-2.6,0.02-3.85c0.01-0.2,0.28-0.55,0.43-0.55c3.33-0.03,6.66-0.02,10.03-0.02
	c0,1.55,0,2.97,0,4.43C29.93,112.02,26.51,112.02,22.92,112.02z M25.8,110.1c2.23,0,4.45,0,6.67,0c0-0.65,0-1.23,0-1.77
	c-2.87,0-5.66,0-8.59,0c0,0.97-0.01,1.87,0.01,2.77c0,0.13,0.19,0.36,0.3,0.37c0.45,0.03,0.94,0.09,1.33-0.06
	c0.16-0.06,0.13-0.63,0.19-0.97C25.74,110.35,25.76,110.26,25.8,110.1z"/>
<path d="M29.96,54.06c0,0.83,0,1.62,0,2.42c-1.33-0.13-2.29-1.09-2.42-2.42C28.34,54.06,29.13,54.06,29.96,54.06z"/>
<path d="M27.53,53.4c0.19-1.42,1.1-2.31,2.48-2.44c0,0.71,0.02,1.41-0.02,2.1c-0.01,0.12-0.27,0.31-0.42,0.32
	C28.9,53.42,28.24,53.4,27.53,53.4z"/>
<path d="M30.68,56.49c0-0.83,0-1.6,0-2.43c0.81,0,1.57,0,2.34,0C33.12,55.22,32.08,56.32,30.68,56.49z"/>
<path d="M30.69,53.34c-0.02-0.17-0.05-0.28-0.05-0.4c0-0.64,0-1.28,0-1.91c1.21-0.1,2.35,0.98,2.42,2.31
	C32.29,53.34,31.53,53.34,30.69,53.34z"/>
<path d="M19.52,53.36c0.24-1.4,1.15-2.31,2.53-2.45c0,0.73,0.02,1.45-0.02,2.17c-0.01,0.13-0.26,0.36-0.4,0.36
	C20.94,53.44,20.26,53.39,19.52,53.36z"/>
<path d="M21.97,56.53c-1.52-0.32-2.3-1.14-2.39-2.52c0.68,0,1.36-0.01,2.04,0.01c0.12,0,0.34,0.16,0.34,0.26
	C21.99,55.03,21.97,55.77,21.97,56.53z"/>
<path d="M22.6,50.88c1.51,0.29,2.35,1.13,2.5,2.5c-0.73,0-1.46,0.02-2.18-0.02c-0.11-0.01-0.3-0.24-0.31-0.38
	C22.58,52.3,22.6,51.62,22.6,50.88z"/>
<path d="M22.67,54.06c0.85,0,1.62,0,2.39,0c-0.03,1.27-1.04,2.3-2.39,2.43C22.67,55.7,22.67,54.91,22.67,54.06z"/>
<path d="M81.48,57.26c0.59,0,1.13-0.02,1.67,0.01c0.11,0.01,0.21,0.17,0.32,0.27c-0.11,0.11-0.21,0.3-0.34,0.33
	c-0.27,0.05-0.56,0.02-0.97,0.02c0,0.72-0.02,1.4,0.02,2.08c0.01,0.11,0.23,0.28,0.37,0.3c0.27,0.05,0.56,0.01,0.89,0.01
	c0,0.53,0,0.99,0,1.53c-0.39,0.03-0.78,0.06-1.23,0.09c0,0.75,0,1.48,0,2.28c0.39,0.04,0.8,0.08,1.21,0.12
	c0.02,0.64-0.53,0.77-1.94,0.49C81.48,62.31,81.48,59.85,81.48,57.26z"/>
<path d="M55.81,108.23c-0.67,0-1.3,0-1.93,0c0.05-1.05,0.81-1.84,1.93-1.97C55.81,106.89,55.81,107.51,55.81,108.23z"/>
<path d="M58.54,108.22c-0.67,0-1.3,0-1.97,0c0-0.65,0-1.26,0-1.87C57.4,106.17,58.3,106.99,58.54,108.22z"/>
<path d="M55.82,110.92c-1.12-0.14-1.9-0.93-1.94-1.97c0.63,0,1.26,0,1.94,0C55.82,109.61,55.82,110.26,55.82,110.92z"/>
<path d="M58.56,108.94c-0.29,1.21-0.9,1.81-1.99,1.97c0-0.65,0-1.3,0-1.97C57.23,108.94,57.87,108.94,58.56,108.94z"/>
<path d="M16.37,63.75c0.67,0,1.33,0,1.98,0c-0.12,1.11-0.83,1.82-1.98,1.97C16.37,65.07,16.37,64.42,16.37,63.75z"/>
<path d="M16.36,63c0-0.67,0-1.3,0-1.93c1.02,0.01,1.89,0.84,1.99,1.93C17.7,63,17.05,63,16.36,63z"/>
<path d="M13.65,63.73c0.67,0,1.28,0,1.96,0c0,0.67,0,1.31,0,1.96C14.57,65.58,13.92,64.94,13.65,63.73z"/>
<path d="M13.61,62.98c0.3-1.06,0.91-1.7,2-1.99c0,0.68,0,1.3,0,1.99C14.98,62.98,14.33,62.98,13.61,62.98z"/>
<path d="M13.49,92.96c0.66,0,1.27,0,1.94,0c0,0.67,0,1.32,0,1.96C14.38,94.91,13.58,94.12,13.49,92.96z"/>
<path d="M15.46,90.29c0,0.64,0,1.27,0,1.96c-0.65,0-1.29,0-1.92,0C13.48,91.28,14.33,90.4,15.46,90.29z"/>
<path d="M16.18,94.93c0-0.66,0-1.27,0-1.94c0.66,0,1.31,0,1.96,0C18.05,94.04,17.3,94.81,16.18,94.93z"/>
<path d="M18.18,92.25c-0.69,0-1.32,0-1.99,0c0-0.68,0-1.31,0-1.95C17.26,90.44,17.88,91.03,18.18,92.25z"/>
<path d="M15.45,98.6c0,0.64,0,1.27,0,1.96c-0.65,0-1.3,0-1.94,0C13.56,99.53,14.31,98.77,15.45,98.6z"/>
<path d="M15.46,103.29c-1.11-0.07-1.93-0.93-1.95-2.01c0.63,0,1.26,0,1.95,0C15.46,101.95,15.46,102.59,15.46,103.29z"/>
<path d="M16.18,103.3c-0.03-0.56-0.1-1.08-0.07-1.6c0.01-0.17,0.26-0.45,0.42-0.47c0.53-0.06,1.07-0.02,1.62-0.02
	C18.03,102.38,17.32,103.12,16.18,103.3z"/>
<path d="M16.19,100.61c0-0.7,0-1.33,0-1.97c1.07,0.1,1.85,0.87,1.93,1.97C17.49,100.61,16.86,100.61,16.19,100.61z"/>
<path d="M55.76,81.02c0-0.69,0-1.3,0-1.91c1.04,0.01,1.82,0.76,1.96,1.91C57.09,81.02,56.46,81.02,55.76,81.02z"/>
<path d="M53.15,81.01c0-1.03,0.78-1.83,1.91-1.93c0,0.63,0,1.25,0,1.93C54.41,81.01,53.78,81.01,53.15,81.01z"/>
<path d="M55.79,81.74c0.67,0,1.28,0,1.89,0c0.02,1.02-0.76,1.84-1.89,1.95C55.79,83.06,55.79,82.44,55.79,81.74z"/>
<path d="M55.07,81.75c0,0.67,0,1.3,0,1.93c-1.12-0.08-1.92-0.89-1.92-1.93C53.78,81.75,54.41,81.75,55.07,81.75z"/>
<path d="M82.08,52.57c-1.17-0.22-1.8-0.84-2-2.02c0.66,0,1.3,0,2,0C82.08,51.22,82.08,51.87,82.08,52.57z"/>
<path d="M82.09,47.86c0,0.68,0,1.31,0,1.98c-0.7,0-1.35,0-2,0C80.31,48.69,80.91,48.08,82.09,47.86z"/>
<path d="M82.78,52.55c0-0.66,0-1.27,0-1.96c0.66,0,1.3,0,1.95,0C84.7,51.63,84.04,52.32,82.78,52.55z"/>
<path d="M82.78,49.81c0-0.68,0-1.29,0-1.91c1.05,0.03,1.78,0.71,2.01,1.91C84.14,49.81,83.49,49.81,82.78,49.81z"/>
<path d="M16.04,69.28c1.3,0,2.41,1.11,2.42,2.4c0.01,1.35-1.09,2.44-2.45,2.44c-1.32-0.01-2.4-1.08-2.42-2.4
	C13.58,70.39,14.69,69.28,16.04,69.28z"/>
<path d="M9.26,110.59c-0.01-0.9,0.71-1.64,1.61-1.64c0.87,0,1.6,0.69,1.62,1.56c0.03,0.91-0.68,1.67-1.57,1.69
	C10.04,112.21,9.28,111.48,9.26,110.59z"/>
<path d="M84.62,110.53c0.01,0.91-0.7,1.65-1.59,1.67c-0.86,0.02-1.64-0.75-1.65-1.63c0-0.84,0.73-1.6,1.57-1.62
	C83.87,108.92,84.61,109.63,84.62,110.53z"/>
<path d="M84.64,7.54c0.01,0.92-0.69,1.64-1.59,1.63c-0.9,0-1.61-0.73-1.6-1.64c0.01-0.85,0.73-1.59,1.58-1.61
	C83.89,5.9,84.63,6.64,84.64,7.54z"/>
<path d="M9.3,7.59c-0.01-0.88,0.74-1.65,1.61-1.67c0.83-0.01,1.61,0.74,1.64,1.57c0.03,0.89-0.69,1.66-1.58,1.68
	C10.07,9.2,9.31,8.48,9.3,7.59z"/>
<path class="st0" d="M76.01,38.69c0-6.25,0-12.5,0-18.75c0-0.26-0.03-0.53,0.02-0.78c0.03-0.13,0.21-0.23,0.32-0.35
	c0.09,0.11,0.23,0.22,0.25,0.34c0.04,0.23,0.02,0.47,0.02,0.71c0,8.49,0,16.98,0,25.48c0,4.08,0,8.15,0,12.23
	c0,0.19,0.04,0.4-0.02,0.57c-0.05,0.14-0.21,0.24-0.32,0.35c-0.09-0.12-0.25-0.23-0.25-0.35c-0.01-0.59,0.03-1.19,0.03-1.79
	c-0.01-3.05-0.03-6.1-0.04-9.16C76,44.37,76.01,41.53,76.01,38.69z"/>
<path class="st0" d="M70.31,18.72c0.13,0.19,0.31,0.37,0.37,0.58c0.06,0.22,0.01,0.47,0.01,0.71c0,8.7,0.01,17.41,0.01,26.11
	c0,3.88,0,7.77-0.01,11.65c0,0.21-0.01,0.43-0.08,0.62c-0.02,0.06-0.32,0.11-0.36,0.06c-0.11-0.15-0.22-0.35-0.22-0.53
	c-0.01-2.53-0.01-5.06-0.01-7.58c0-10.23,0-20.46,0-30.69c0-0.26,0-0.52,0-0.78C70.13,18.83,70.22,18.77,70.31,18.72z"/>
<path class="st0" d="M36.44,31.96c0-2.79-0.02-5.58,0.02-8.37c0.01-0.37,0.21-0.82,0.47-1.1c1.26-1.33,2.56-2.62,3.88-3.89
	c0.23-0.22,0.61-0.4,0.92-0.4c4.36-0.02,8.73,0.01,13.09,0.01c1.31,0,2.62-0.04,3.93-0.01c0.32,0.01,0.7,0.17,0.93,0.39
	c1.36,1.31,2.69,2.64,3.99,4c0.22,0.23,0.4,0.6,0.4,0.91c0.02,5.65,0.02,11.31,0.01,16.96c0,0.26-0.09,0.58-0.26,0.75
	c-1.37,1.42-2.76,2.83-4.19,4.2c-0.24,0.23-0.66,0.38-1,0.38c-5.58,0.02-11.16,0.02-16.75,0c-0.36,0-0.8-0.17-1.05-0.42
	c-1.33-1.27-2.59-2.6-3.91-3.87c-0.38-0.36-0.51-0.74-0.51-1.25C36.45,37.49,36.44,34.72,36.44,31.96
	C36.44,31.96,36.44,31.96,36.44,31.96z M37.09,31.99c0,2.72-0.01,5.44,0.01,8.15c0,0.3,0.09,0.69,0.29,0.9
	c1.22,1.27,2.48,2.51,3.75,3.72c0.21,0.2,0.56,0.37,0.85,0.37c5.51,0.02,11.02,0.02,16.53,0c0.29,0,0.66-0.15,0.87-0.35
	c1.27-1.23,2.51-2.48,3.73-3.75c0.19-0.2,0.32-0.54,0.32-0.81c0.02-5.49,0.02-10.97,0-16.46c0-0.29-0.15-0.65-0.35-0.86
	c-1.23-1.29-2.48-2.56-3.76-3.81c-0.19-0.19-0.55-0.29-0.83-0.3c-5.48-0.02-10.97-0.02-16.45,0c-0.31,0-0.69,0.17-0.92,0.39
	c-1.22,1.17-2.42,2.36-3.59,3.59c-0.24,0.26-0.42,0.69-0.43,1.05C37.07,26.55,37.09,29.27,37.09,31.99z"/>
<path class="st0" d="M55.31,69.5c0.2,0.47-0.01,0.58-0.4,0.58c-0.88-0.01-1.76,0-2.64,0c-8.51,0-17.02,0-25.53,0
	c-0.35,0-0.87,0.16-0.74-0.58C35.79,69.5,45.56,69.5,55.31,69.5z"/>
<path class="st0" d="M32.67,91.9c0.21-0.04,0.42-0.1,0.62-0.1c7.2-0.01,14.4,0,21.61,0c0.14,0,0.28,0.02,0.55,0.2
	c-0.15,0.14-0.28,0.31-0.46,0.41c-0.11,0.06-0.28,0.02-0.42,0.02c-7.15,0-14.31,0-21.46-0.01c-0.26,0-0.51-0.11-0.77-0.17
	C32.45,92.13,32.56,92.02,32.67,91.9z"/>
<path class="st0" d="M32.67,91.9c-0.11,0.11-0.22,0.23-0.33,0.34c-0.2,0.06-0.4,0.16-0.6,0.16c-1.73,0.01-3.47,0.01-5.2,0.01
	c-0.36,0-0.69-0.02-0.51-0.62c1.48,0,2.97-0.01,4.46,0C31.21,91.81,31.94,91.87,32.67,91.9z"/>
<path class="st0" d="M55.48,100.37c-0.19,0.13-0.37,0.28-0.58,0.38c-0.1,0.05-0.23,0.01-0.35,0.01c-9.23,0-18.45,0-27.68,0
	c-0.4,0-0.89,0.1-0.9-0.61c9.81,0,19.58,0,29.34,0C55.37,100.22,55.42,100.3,55.48,100.37z"/>
<path class="st0" d="M51.93,63.74c-1.14,0-2.29,0.01-3.43,0c-1.3-0.01-2.09-0.8-2.09-2.11c-0.01-2.31-0.01-4.63,0-6.94
	c0.01-1.29,0.81-2.11,2.08-2.12c2.34-0.01,4.68-0.01,7.01,0c1.29,0.01,2.05,0.74,2.06,2.04c0.02,2.39,0.02,4.77,0,7.16
	c-0.01,1.2-0.78,1.94-1.99,1.97c-0.62,0.01-1.24,0-1.86,0C53.12,63.74,52.53,63.74,51.93,63.74z M47.03,58.22
	C47.03,58.22,47.03,58.22,47.03,58.22c0,1.12-0.01,2.24,0.01,3.36c0.02,1,0.49,1.51,1.5,1.52c2.31,0.02,4.63,0.02,6.94,0
	c1.01-0.01,1.48-0.51,1.49-1.52c0.01-2.27,0.02-4.53,0-6.8c-0.01-1.11-0.51-1.61-1.63-1.62c-2.22-0.01-4.44-0.01-6.65,0
	c-1.15,0.01-1.64,0.53-1.65,1.69C47.03,55.98,47.03,57.1,47.03,58.22z"/>
<path class="st0" d="M37.96,85.82c-2.18-0.05-4.04-1.73-4.28-3.86c-0.26-2.27,1.12-4.3,3.29-4.88c2.1-0.55,4.31,0.52,5.17,2.53
	c0.18,0.43,0.31,0.8,0.92,0.74c0.59-0.05,1.07,0.43,1.11,0.96c0.04,0.61-0.37,1.14-1.03,1.12c-0.6-0.02-0.8,0.24-1.01,0.73
	C41.42,84.88,39.84,85.86,37.96,85.82z M41.65,80.34c-0.37-1.82-2.25-3-4.19-2.72c-1.97,0.28-3.33,2.14-3.12,4.27
	c0.18,1.9,1.93,3.38,3.9,3.31c1.64-0.06,3.36-1.41,3.38-2.74c-0.75,0-1.51,0.02-2.27-0.01c-0.65-0.02-1.11-0.5-1.1-1.07
	c0.01-0.56,0.5-1.03,1.13-1.04C40.12,80.33,40.86,80.34,41.65,80.34z M41.25,80.95c0,0.01,0,0.01,0,0.02
	c-0.62,0-1.24-0.03-1.85,0.02c-0.16,0.01-0.3,0.27-0.46,0.42c0.15,0.12,0.29,0.35,0.44,0.35c1.21,0.03,2.42,0.04,3.63,0.01
	c0.17,0,0.34-0.28,0.51-0.43c-0.19-0.13-0.36-0.36-0.56-0.38C42.4,80.92,41.82,80.95,41.25,80.95z"/>
<path class="st0" d="M40.25,110.1c-0.03,0.53-0.05,0.93-0.07,1.37c-0.6,0-1.15,0-1.76,0c0-1.06,0-2.07,0-3.14c2.85,0,5.7,0,8.59,0
	c0,0.56,0,1.12,0,1.78C44.78,110.1,42.55,110.1,40.25,110.1z M39.6,109.53c0.29,0,0.54,0,0.8,0c1.76,0,3.52,0.01,5.28-0.01
	c0.24,0,0.48-0.2,0.72-0.31c-0.23-0.09-0.46-0.26-0.69-0.26c-1.52-0.02-3.04-0.01-4.57-0.01c-0.68,0-1.37,0-2.03,0
	c-0.28,1.23-0.16,1.81,0.39,1.86C39.54,110.4,39.57,110.01,39.6,109.53z"/>
<path class="st0" d="M24.14,60.5c0.22-0.01,0.43-0.03,0.64-0.03c3.67,0,7.33,0,11,0c0.12,0,0.26-0.04,0.35,0.01
	c0.15,0.08,0.28,0.23,0.41,0.34c-0.13,0.1-0.25,0.24-0.39,0.28c-0.15,0.05-0.33,0.01-0.5,0.01c-3.64,0-7.28,0-10.92,0.01
	C24.31,61.13,23.93,61.14,24.14,60.5z"/>
<path class="st0" d="M67.74,110.13c-0.03,0.54-0.05,0.93-0.07,1.29c-0.07,0.05-0.09,0.08-0.1,0.08c-1.75,0.08-1.75,0.08-1.73-1.68
	c0-0.47,0-0.95,0-1.49c2.9,0,5.74,0,8.65,0c0,0.55,0,1.13,0,1.8C72.26,110.13,70.03,110.13,67.74,110.13z M67.08,109.54
	c2.12,0,4.17,0.01,6.21-0.01c0.2,0,0.4-0.19,0.6-0.29c-0.2-0.1-0.4-0.28-0.6-0.28c-2.09-0.02-4.19-0.01-6.28,0
	c-0.18,0-0.36,0.05-0.53,0.07c-0.09,1.84-0.09,1.84,0.54,1.79C67.04,110.42,67.06,110.03,67.08,109.54z"/>
<path class="st0" d="M25.8,110.1c-0.04,0.16-0.06,0.25-0.08,0.34c-0.06,0.34-0.03,0.91-0.19,0.97c-0.4,0.15-0.89,0.09-1.33,0.06
	c-0.11-0.01-0.3-0.24-0.3-0.37c-0.03-0.9-0.01-1.8-0.01-2.77c2.92,0,5.72,0,8.59,0c0,0.54,0,1.12,0,1.77
	C30.25,110.1,28.03,110.1,25.8,110.1z M25.07,109.5c0.35,0,0.61,0,0.86,0c1.76,0,3.52,0.01,5.28-0.01c0.23,0,0.46-0.18,0.7-0.27
	c-0.22-0.1-0.44-0.28-0.67-0.29c-2.02-0.02-4.05-0.02-6.07-0.01c-0.21,0-0.41,0.03-0.68,0.05c0,0.54-0.02,1.04,0.01,1.53
	c0.01,0.12,0.16,0.23,0.24,0.34c0.11-0.12,0.28-0.22,0.31-0.35C25.1,110.21,25.07,109.92,25.07,109.5z"/>
<path d="M37.09,31.99c0-2.72-0.02-5.44,0.02-8.16c0-0.35,0.18-0.79,0.43-1.05c1.16-1.23,2.36-2.42,3.59-3.59
	c0.23-0.22,0.61-0.39,0.92-0.39c5.48-0.02,10.97-0.02,16.45,0c0.28,0,0.64,0.11,0.83,0.3c1.28,1.25,2.53,2.52,3.76,3.81
	c0.2,0.21,0.35,0.57,0.35,0.86c0.02,5.49,0.02,10.97,0,16.46c0,0.27-0.13,0.61-0.32,0.81c-1.22,1.27-2.46,2.53-3.73,3.75
	c-0.21,0.2-0.57,0.35-0.87,0.35c-5.51,0.02-11.02,0.02-16.53,0c-0.29,0-0.64-0.17-0.85-0.37c-1.27-1.22-2.53-2.46-3.75-3.72
	c-0.2-0.21-0.29-0.59-0.29-0.9C37.08,37.43,37.09,34.71,37.09,31.99z M41.5,22.06c-0.4-0.05-0.8-0.1-1.22-0.15
	c0,6.71,0,13.28,0,19.87c6.63,0,13.22,0,19.81,0c0-6.63,0-13.2,0-19.8c-0.16-0.02-0.27-0.05-0.39-0.05c-2.67,0-5.34,0-8.01,0
	c-0.18,0-0.37,0.07-0.55,0.11c-0.13-0.04-0.26-0.1-0.39-0.1c-2.93-0.01-5.86-0.01-8.78,0C41.8,21.94,41.65,22.02,41.5,22.06z"/>
<path d="M47.03,58.22c0-1.12,0-2.24,0-3.36c0.01-1.16,0.5-1.68,1.65-1.69c2.22-0.01,4.44-0.02,6.65,0c1.12,0.01,1.63,0.5,1.63,1.62
	c0.01,2.27,0.01,4.53,0,6.8c-0.01,1.01-0.48,1.51-1.49,1.52c-2.31,0.02-4.63,0.02-6.94,0c-1-0.01-1.48-0.52-1.5-1.52
	C47.02,60.47,47.03,59.35,47.03,58.22C47.03,58.22,47.03,58.22,47.03,58.22z"/>
<path d="M41.65,80.34c-0.79,0-1.53-0.01-2.26,0c-0.63,0.01-1.13,0.48-1.13,1.04c-0.01,0.57,0.46,1.05,1.1,1.07
	c0.75,0.03,1.51,0.01,2.27,0.01c-0.02,1.32-1.74,2.68-3.38,2.74c-1.98,0.07-3.72-1.41-3.9-3.31c-0.2-2.13,1.15-3.99,3.12-4.27
	C39.41,77.34,41.28,78.52,41.65,80.34z"/>
<path d="M41.25,80.95c0.57,0,1.14-0.03,1.71,0.02c0.2,0.02,0.37,0.24,0.56,0.38c-0.17,0.15-0.34,0.42-0.51,0.43
	c-1.21,0.03-2.42,0.02-3.63-0.01c-0.15,0-0.29-0.23-0.44-0.35c0.15-0.15,0.29-0.4,0.46-0.42c0.61-0.05,1.24-0.02,1.85-0.02
	C41.25,80.97,41.25,80.96,41.25,80.95z"/>
<path d="M39.6,109.53c-0.04,0.48-0.06,0.88-0.09,1.27c-0.55-0.05-0.68-0.63-0.39-1.86c0.66,0,1.35,0,2.03,0
	c1.52,0,3.04-0.01,4.57,0.01c0.23,0,0.46,0.17,0.69,0.26c-0.24,0.11-0.48,0.3-0.72,0.31c-1.76,0.03-3.52,0.01-5.28,0.01
	C40.14,109.53,39.89,109.53,39.6,109.53z"/>
<path d="M67.08,109.54c-0.02,0.49-0.04,0.89-0.06,1.28c-0.62,0.05-0.62,0.05-0.54-1.79c0.17-0.02,0.35-0.07,0.53-0.07
	c2.09-0.01,4.19-0.02,6.28,0c0.2,0,0.4,0.18,0.6,0.28c-0.2,0.1-0.4,0.28-0.6,0.29C71.25,109.54,69.21,109.54,67.08,109.54z"/>
<path d="M25.07,109.5c0,0.42,0.03,0.71-0.01,0.99c-0.02,0.13-0.2,0.23-0.31,0.35c-0.09-0.11-0.24-0.22-0.24-0.34
	c-0.03-0.49-0.01-0.99-0.01-1.53c0.27-0.02,0.47-0.05,0.68-0.05c2.02,0,4.05-0.01,6.07,0.01c0.22,0,0.44,0.19,0.67,0.29
	c-0.23,0.09-0.46,0.27-0.7,0.27c-1.76,0.02-3.52,0.01-5.28,0.01C25.67,109.5,25.42,109.5,25.07,109.5z"/>
<path class="st0" d="M51.13,22.05c0.18-0.04,0.37-0.1,0.55-0.11c2.67-0.01,5.34-0.01,8.01,0c0.11,0,0.23,0.03,0.39,0.05
	c0,6.6,0,13.17,0,19.8c-6.59,0-13.18,0-19.81,0c0-6.59,0-13.16,0-19.87c0.42,0.05,0.82,0.1,1.22,0.15c0.11,0.14,0.21,0.28,0.32,0.42
	c-0.3,0.05-0.59,0.11-0.92,0.16c-0.02,0.15-0.05,0.29-0.05,0.42c0,5.84,0.01,11.68-0.01,17.51c0,0.6,0.27,0.64,0.74,0.63
	c5.72-0.01,11.44-0.01,17.16-0.01c0.23,0,0.46-0.03,0.73-0.05c0-6.22,0-12.37,0-18.59c-2.34,0-4.6,0-6.86,0
	c-0.59,0-1.18-0.04-1.77-0.06C50.93,22.35,51.03,22.2,51.13,22.05z"/>
<path class="st0" d="M51.13,22.05c-0.1,0.15-0.2,0.31-0.3,0.46c-2.58,0.02-5.17,0.05-7.75,0.06c-0.42,0-0.84-0.05-1.27-0.08
	c-0.11-0.14-0.21-0.28-0.32-0.42c0.15-0.04,0.3-0.12,0.46-0.12c2.93-0.01,5.86-0.01,8.78,0C50.87,21.94,51,22.01,51.13,22.05z"/>
<path d="M41.81,22.48c0.42,0.03,0.84,0.08,1.27,0.08c2.58-0.01,5.17-0.04,7.75-0.06c0.59,0.02,1.18,0.06,1.77,0.06
	c2.26,0.01,4.52,0,6.86,0c0,6.22,0,12.38,0,18.59c-0.27,0.02-0.5,0.05-0.73,0.05c-5.72,0-11.44,0-17.16,0.01
	c-0.47,0-0.74-0.04-0.74-0.63c0.02-5.84,0.01-11.68,0.01-17.51c0-0.14,0.03-0.27,0.05-0.42C41.22,22.59,41.52,22.54,41.81,22.48z
	 M56.38,25.71c-4.16,0-8.26,0-12.38,0c0,4.16,0,8.27,0,12.39c4.15,0,8.24,0,12.38,0C56.38,33.96,56.38,29.87,56.38,25.71z"/>
<path class="st0" d="M56.38,25.71c0,4.16,0,8.25,0,12.39c-4.14,0-8.23,0-12.38,0c0-4.12,0-8.23,0-12.39
	C48.12,25.71,52.22,25.71,56.38,25.71z M44.6,37.47c3.77,0,7.45,0,11.15,0c0.03-0.17,0.06-0.28,0.06-0.4
	c0-3.43,0.01-6.86-0.02-10.29c0-0.17-0.31-0.48-0.48-0.48c-3.33-0.03-6.67,0-10-0.04c-0.67-0.01-0.77,0.24-0.77,0.83
	c0.02,3.24,0.01,6.48,0.01,9.72C44.55,37.02,44.58,37.22,44.6,37.47z"/>
<path d="M44.6,37.47c-0.02-0.25-0.05-0.46-0.05-0.67c0-3.24,0.01-6.48-0.01-9.72c0-0.59,0.09-0.84,0.77-0.83
	c3.33,0.03,6.67,0.01,10,0.04c0.17,0,0.48,0.31,0.48,0.48c0.03,3.43,0.02,6.86,0.02,10.29c0,0.12-0.03,0.23-0.06,0.4
	C52.05,37.47,48.37,37.47,44.6,37.47z"/>
</svg>
