<?xml version="1.0" encoding="utf-8"?>
<!-- Generator: Adobe Illustrator 23.1.1, SVG Export Plug-In . SVG Version: 6.00 Build 0)  -->
<svg version="1.1" id="Layer_1" xmlns="http://www.w3.org/2000/svg" xmlns:xlink="http://www.w3.org/1999/xlink" x="0px" y="0px"
	 viewBox="0 0 798 385" style="enable-background:new 0 0 798 385;" xml:space="preserve">
<style type="text/css">
	.st0{fill:#F7931E;}
	.st1{fill:#29ABE2;}
	.st2{fill:#2E3192;}
	.st3{fill:#C7CAA6;}
	.st4{fill:none;stroke:#000000;stroke-width:21;stroke-miterlimit:10;}
	.st5{fill:#FFFFFF;stroke:#000000;stroke-width:21;stroke-miterlimit:10;}
	.st6{fill:#8C6239;stroke:#000000;stroke-width:21;stroke-miterlimit:10;}
	.st7{fill:#754C24;}
	.st8{fill:#006837;}
</style>
<circle class="st0" cx="473.5" cy="207.5" r="80.5"/>
<path class="st1" d="M0,224.96c42.74-18.89,121.36-18.89,173.77,11.96s171.98-49.36,189.99-44.73
	c18.02,4.63,171.98-6.17,186.72,44.73s90.08-24.68,106.46-30.85S791.66,216.44,798,254.45V385H0V224.96z"/>
<path class="st2" d="M0,255.29c77.13,22.2,119.72-19.06,173.77,9.7c50.71,26.97,108.1,7.5,189.99-36.25
	c15.3-8.17,73.25,54.98,186.72,36.25c60.6-10,90.95-31.42,106.46-25c39.31,16.25,58.96,48.75,141.06,39.2V385H0V255.29z"/>
<path class="st3" d="M0,355.95c77.13,5.31,119.72-4.56,173.77,2.32c50.71,6.46,108.1,1.8,189.99-8.68
	c15.3-1.96,73.25,13.16,186.72,8.68c60.6-2.39,90.95-7.52,106.46-5.99c39.31,3.89,58.96,11.67,141.06,9.39V387H0V355.95z"/>
<g>
	<path class="st7" d="M199.93,137.1c0,0-8.22-4.93-6.58,3.29s55.9,80.56,44.39,240.03c0,0,16.44,14.8,36.17,0
		S218.02,133.82,199.93,137.1z"/>
	<path class="st8" d="M188.42,135.46c-16.77,8.38-80.56,49.32-31.24,180.85c0,0,9.86,16.44,14.8-4.93
		c4.93-21.37-11.51-106.86,19.73-166.05C191.71,145.32,198.29,130.53,188.42,135.46z"/>
	<path class="st8" d="M193.35,120.66C176.83,82.89,73.34-25.66,1,81.21c0,0,113.44-8.22,172.63,46.03
		c0,0-147.97-44.39-154.54,121.66c0,0,4.93,13.15,9.86,0c4.93-13.15,77.27-113.44,157.83-110.15
		C186.78,138.75,204.86,146.97,193.35,120.66z"/>
	<path class="st8" d="M190.07,133.82c-3.73-26.09-37.81-131.52,59.19-115.08c0,0,6.58,3.29,0,8.22s-34.53,6.58-49.32,106.86
		C199.93,133.82,191.71,145.32,190.07,133.82z"/>
	<path class="st8" d="M195,130.53c12.04-21.08,78.91-111.8,152.9-24.66c0,0,9.86,9.86-11.51,8.22
		c-21.37-1.64-13.15-26.3-131.52,16.44C204.86,130.53,188.42,142.04,195,130.53z"/>
	<path class="st8" d="M193.35,132.17c56.08-11.22,154.54-13.15,126.59,73.98c0,0-8.22,9.86-14.8-4.93s-3.29-39.46-105.22-62.47
		C199.93,138.75,185.13,133.82,193.35,132.17z"/>
</g>
<g>
	<path class="st7" d="M598.24,137.1c0,0,8.22-4.93,6.58,3.29c-1.64,8.22-55.9,80.56-44.39,240.03c0,0-16.44,14.8-36.17,0
		S580.15,133.82,598.24,137.1z"/>
	<path class="st8" d="M609.75,135.46c16.77,8.38,80.56,49.32,31.24,180.85c0,0-9.86,16.44-14.8-4.93
		c-4.93-21.37,11.51-106.86-19.73-166.05C606.46,145.32,599.88,130.53,609.75,135.46z"/>
	<path class="st8" d="M604.81,120.66c16.53-37.78,120.02-146.32,192.35-39.46c0,0-113.44-8.22-172.63,46.03
		c0,0,147.97-44.39,154.54,121.66c0,0-4.93,13.15-9.86,0c-4.93-13.15-77.27-113.44-157.83-110.15
		C611.39,138.75,593.31,146.97,604.81,120.66z"/>
	<path class="st8" d="M608.1,133.82c3.73-26.09,37.81-131.52-59.19-115.08c0,0-6.58,3.29,0,8.22s34.53,6.58,49.32,106.86
		C598.24,133.82,606.46,145.32,608.1,133.82z"/>
	<path class="st8" d="M603.17,130.53c-12.04-21.08-78.91-111.8-152.9-24.66c0,0-9.86,9.86,11.51,8.22
		c21.37-1.64,13.15-26.3,131.52,16.44C593.31,130.53,609.75,142.04,603.17,130.53z"/>
	<path class="st8" d="M604.81,132.17c-56.08-11.22-154.54-13.15-126.59,73.98c0,0,8.22,9.86,14.8-4.93
		c6.58-14.8,3.29-39.46,105.22-62.47C598.24,138.75,613.03,133.82,604.81,132.17z"/>
</g>
</svg>
