<?xml version="1.0" encoding="utf-8"?>
<!-- Generator: Adobe Illustrator 23.1.1, SVG Export Plug-In . SVG Version: 6.00 Build 0)  -->
<svg version="1.1" id="Layer_1" xmlns="http://www.w3.org/2000/svg" xmlns:xlink="http://www.w3.org/1999/xlink" x="0px" y="0px"
	 viewBox="0 0 512 512" style="enable-background:new 0 0 512 512;" xml:space="preserve">
<style type="text/css">
	.st0{fill:#87E0FF;}
	.st1{fill:#7F001E;}
	.st2{fill:#484294;}
</style>
<g>
	<path class="st0" d="M432,7.5H80c-13.2,0-24,10.8-24,24v456c0,13.2,10.8,24,24,24h352c13.2,0,24-10.8,24-24v-456
		C456,18.2,445.2,7.5,432,7.5z"/>
</g>
<g>
	<path class="st1" d="M95.8,7.5H80c-13.2,0-24,10.8-24,24v456c0,13.2,10.8,24,24,24h15.8V7.5z"/>
</g>
<g>
	<path class="st2" d="M215-0.5h-80c-4.4,0-8,3.6-8,8v120c0,2.9,1.5,5.5,4.1,7c2.5,1.4,5.6,1.4,8.1-0.1l35.9-21.5l35.9,21.5
		c1.3,0.8,2.7,1.1,4.1,1.1s2.7-0.3,3.9-1c2.5-1.4,4.1-4.1,4.1-7V7.5C223,3,219.4-0.5,215-0.5z"/>
</g>
</svg>
