<?xml version="1.0" encoding="utf-8"?>
<!-- Generator: Adobe Illustrator 23.1.1, SVG Export Plug-In . SVG Version: 6.00 Build 0)  -->
<svg version="1.1" id="Layer_1" xmlns="http://www.w3.org/2000/svg" xmlns:xlink="http://www.w3.org/1999/xlink" x="0px" y="0px"
	 viewBox="0 0 810.6 588.5" style="enable-background:new 0 0 810.6 588.5;" xml:space="preserve">
<style type="text/css">
	.st0{fill:#87E0FF;}
	.st1{fill:#7F001E;}
	.st2{fill:#E6BE8A;}
	.st3{fill:#FFEBB7;}
	.st4{fill:#FFD788;}
	.st5{fill:none;}
	.st6{fill:#485C94;}
</style>
<g>
	<path class="st0" d="M771.4,78.7H39.2C17.6,78.7,0,96.3,0,117.9v431.4c0,21.6,17.6,39.2,39.2,39.2h732.1
		c21.6,0,39.2-17.6,39.2-39.2V117.9C810.6,96.3,793,78.7,771.4,78.7z"/>
</g>
<g>
	<rect x="366.1" y="523.2" class="st1" width="78.4" height="65.4"/>
</g>
<g>
	<path class="st2" d="M758.6,484v39.2c0,7.2-5.9,13.1-13.1,13.1H65.7c-7.2,0-13.1-5.9-13.1-13.1V484l78.1-39.2l313.8,13.1L706,444.7
		L758.6,484z"/>
</g>
<g>
	<path class="st3" d="M71,502c107.4-44.4,228.9-41.7,334.6,8.1V39.5C296.4-11.9,170.4-13.1,60.4,35.9c-4.7,2.1-7.8,6.9-7.8,12.1
		v442.1C52.7,499.5,62.3,505.6,71,502z"/>
</g>
<g>
	<path class="st4" d="M405.6,510.1c105.7-49.7,227.2-52.4,334.6-8.1c8.7,3.6,18.3-2.5,18.3-12V48c0-5.2-3-10-7.8-12.1
		c-110-49-236-47.8-345.2,3.6v470.6H405.6z"/>
</g>
<path id="SVGID_x5F_1_x5F_" class="st5" d="M83.3,178.4c0-45,309-64,309,7"/>
<text><textPath  xlink:href="#SVGID_x5F_1_x5F_" startOffset="13.2812%">
<tspan  style="font-family:'VolutaScriptPro-Regular'; font-size:35px;">Whose woods these are I think I know.   </tspan></textPath>
</text>
<path id="SVGID_x5F_2_x5F_" class="st5" d="M84.9,206.6c0-45,309-64,309,7"/>
<text><textPath  xlink:href="#SVGID_x5F_2_x5F_" startOffset="13.2812%">
<tspan  style="font-family:'VolutaScriptPro-Regular'; font-size:35px;">His house is in the village though;   </tspan></textPath>
</text>
<path id="SVGID_x5F_3_x5F_" class="st5" d="M84.9,238.9c0-45,309-64,309,7"/>
<text><textPath  xlink:href="#SVGID_x5F_3_x5F_" startOffset="13.2812%">
<tspan  style="font-family:'VolutaScriptPro-Regular'; font-size:35px;">He will not see me stopping here   </tspan></textPath>
</text>
<path id="SVGID_x5F_4_x5F_" class="st5" d="M83.3,270.8c0-45,309-64,309,7"/>
<text><textPath  xlink:href="#SVGID_x5F_4_x5F_" startOffset="13.2812%">
<tspan  style="font-family:'VolutaScriptPro-Regular'; font-size:35px;">To watch his woods fill up with snow.   </tspan></textPath>
</text>
<path id="SVGID_x5F_5_x5F_" class="st5" d="M83.3,337c0-45,309-64,309,7"/>
<text><textPath  xlink:href="#SVGID_x5F_5_x5F_" startOffset="13.2812%">
<tspan  style="font-family:'VolutaScriptPro-Regular'; font-size:35px;">My little horse must think it queer    </tspan></textPath>
</text>
<path id="SVGID_x5F_6_x5F_" class="st5" d="M83.3,371.1c0-45,309-64,309,7"/>
<text><textPath  xlink:href="#SVGID_x5F_6_x5F_" startOffset="13.2812%">
<tspan  style="font-family:'VolutaScriptPro-Regular'; font-size:35px;">To stop without a farmhouse near   </tspan></textPath>
</text>
<path id="SVGID_x5F_7_x5F_" class="st5" d="M83.3,407.6c0-45,309-64,309,7"/>
<text><textPath  xlink:href="#SVGID_x5F_7_x5F_" startOffset="13.2812%">
<tspan  style="font-family:'VolutaScriptPro-Regular'; font-size:35px;">Between the woods and frozen lake   </tspan></textPath>
</text>
<path id="SVGID_x5F_8_x5F_" class="st5" d="M83.3,443.2c0-45,309-64,309,7"/>
<text><textPath  xlink:href="#SVGID_x5F_8_x5F_" startOffset="13.2812%">
<tspan  style="font-family:'VolutaScriptPro-Regular'; font-size:35px;">The darkest evening of the year.   </tspan></textPath>
</text>
<path id="SVGID_x5F_9_x5F_" class="st5" d="M432.8,167.6c0-45,309-64,309,7"/>
<text><textPath  xlink:href="#SVGID_x5F_9_x5F_" startOffset="13.2812%">
<tspan  style="font-family:'VolutaScriptPro-Regular'; font-size:35px;">He gives his harness bells a shake   </tspan></textPath>
</text>
<path id="SVGID_x5F_10_x5F_" class="st5" d="M434.4,195.7c0-45,309-64,309,7"/>
<text><textPath  xlink:href="#SVGID_x5F_10_x5F_" startOffset="13.2812%">
<tspan  style="font-family:'VolutaScriptPro-Regular'; font-size:35px;">To ask if there is some mistake.   </tspan></textPath>
</text>
<path id="SVGID_x5F_11_x5F_" class="st5" d="M434.4,228.1c0-45,309-64,309,7"/>
<text><textPath  xlink:href="#SVGID_x5F_11_x5F_" startOffset="13.2812%">
<tspan  style="font-family:'VolutaScriptPro-Regular'; font-size:35px;">The only other sound’s the sweep   </tspan></textPath>
</text>
<path id="SVGID_x5F_12_x5F_" class="st5" d="M432.8,260c0-45,309-64,309,7"/>
<text><textPath  xlink:href="#SVGID_x5F_12_x5F_" startOffset="13.2812%">
<tspan  style="font-family:'VolutaScriptPro-Regular'; font-size:35px;">Of easy wind and downy flake.   </tspan></textPath>
</text>
<path id="SVGID_x5F_13_x5F_" class="st5" d="M432.8,326.2c0-45,309-64,309,7"/>
<text><textPath  xlink:href="#SVGID_x5F_13_x5F_" startOffset="13.2812%">
<tspan  style="font-family:'VolutaScriptPro-Regular'; font-size:35px;">The woods are lovely, dark and deep,   </tspan></textPath>
</text>
<path id="SVGID_x5F_14_x5F_" class="st5" d="M432.8,360.3c0-45,309-64,309,7"/>
<text><textPath  xlink:href="#SVGID_x5F_14_x5F_" startOffset="13.2812%">
<tspan  style="font-family:'VolutaScriptPro-Regular'; font-size:35px;">But I have promises to keep,   </tspan></textPath>
</text>
<path id="SVGID_x5F_15_x5F_" class="st5" d="M432.8,396.7c0-45,309-64,309,7"/>
<text><textPath  xlink:href="#SVGID_x5F_15_x5F_" startOffset="13.2812%">
<tspan  style="font-family:'VolutaScriptPro-Regular'; font-size:35px;">And miles to go before I sleep,   </tspan></textPath>
</text>
<path id="SVGID_x5F_16_x5F_" class="st5" d="M432.8,432.3c0-45,309-64,309,7"/>
<text><textPath  xlink:href="#SVGID_x5F_16_x5F_" startOffset="13.2812%">
<tspan  style="font-family:'VolutaScriptPro-Regular'; font-size:35px;">And miles to go before I sleep.</tspan></textPath>
</text>
<g>
	<path class="st6" d="M327.2,242.1c0,5.2,5.8,8.3,10.2,5.4l29.1-19.4l29.1,19.4c4.3,2.9,10.2-0.2,10.2-5.4V40.5c0-5.2-3-9.9-7.7-12
		c-20.4-9.1-41.3-16.3-62.5-21.9c-4.1-1.1-8.2,2.1-8.2,6.4L327.2,242.1z"/>
</g>
</svg>
