<?xml version="1.0" encoding="utf-8"?>
<!-- Generator: Adobe Illustrator 23.1.1, SVG Export Plug-In . SVG Version: 6.00 Build 0)  -->
<svg version="1.1" id="Layer_1" xmlns="http://www.w3.org/2000/svg" xmlns:xlink="http://www.w3.org/1999/xlink" x="0px" y="0px"
	 viewBox="0 0 512 512" style="enable-background:new 0 0 512 512;" xml:space="preserve">
<style type="text/css">
	.st0{fill:#F29C1F;}
	.st1{fill:#D25627;}
	.st2{fill:#E57E25;}
	.st3{fill:#A56A43;}
	.st4{fill:#CBB292;}
</style>
<path id="Shape" class="st0" d="M458.9,149.8c-17.7,0-8.8,47.4-8.7,105.9s-8.7,105.9,8.9,105.9c-92.4,63.1-284.9,77.7-397.2,0.3
	c-14.7,0-35.4-47.4-35.4-105.9s20.6-105.9,35.2-106c45.8-32.5,121.7-53.1,198-53.1C335.2,97,413,117.8,458.9,149.8z"/>
<path class="st1" d="M141.2,309.5C136.9,307.1,138,307.9,141.2,309.5z"/>
<path class="st0" d="M61.6,150.2c31.9-20.5,67.3-34.9,104.5-42.3c-10.7,3-19.6,41.3-23.2,94.3c-0.6,0.3-1.2,0.6-1.8,0.9
	C113.5,187.3,86.9,169.6,61.6,150.2L61.6,150.2z"/>
<path class="st0" d="M264,97.3c-7.7,0.8-14.5,21.6-19.2,53.8l-6,2.8c-25.7-12.3-49.7-28-71.3-46.5c-0.4,0-0.9,0-1.3,0
	c30.6-6.9,62-10.4,93.4-10.3C261.1,97,262.5,97,264,97.3z"/>
<path class="st2" d="M238.8,153.8c-18.8,8.9-17.6,8.8-95.8,47.9c1.1-16.7,7.8-94.5,24.5-94.5C189.1,125.9,213.1,141.5,238.8,153.8z"
	/>
<path class="st0" d="M244.2,355.7c24.4-12.8,68.2-34.7,92.9-47c3.5,50,11.8,86.5,21.8,92.6c-39-10.4-77.1-23.9-114-40.2
	c4.5,31.2,11.2,51.5,18.6,53.7c-32.1,0.9-64.3-2.1-95.7-8.7c21.6-19,45.5-35.1,71.2-48c-17.8-8.4-26.1-12.5-96.1-47.8l0-1.8
	c33.6-19.4,67.4-36.9,95.4-52.6C238.1,289.3,240,322.6,244.2,355.7z"/>
<path class="st2" d="M359,401c0.9,0.6,1.9,0.9,3,0.9c-32.2,7.8-65.2,12.1-98.4,12.7c-7.4-2.3-14.1-22.6-18.6-53.7
	C281.9,377.1,320,390.5,359,401z"/>
<path class="st2" d="M361.1,109.3c-39.6,11.4-78.5,25.2-116.3,41.5c4.7-32.1,11.5-52.7,19.2-53.8
	C296.8,97.1,329.4,101.2,361.1,109.3z"/>
<path class="st0" d="M441.3,255.8c-41.9-21.6-71.1-36-103.8-52.2c58.9-28.9,100.5-45.7,115.3-51.5
	C441.2,162.3,441.3,204.8,441.3,255.8z"/>
<path class="st2" d="M441.3,255.8c-2.1,1.1-101.8,52.2-104.1,52.2c-2.5-34.7-2.5-69.5-0.1-104.2
	C339.4,203.8,439.2,254.7,441.3,255.8z"/>
<path class="st0" d="M453.1,359.4c-14.8-5.7-56.5-22.5-115.4-51.3c32.6-16.3,61.6-30.7,103.7-52.4
	C441.4,306.7,441.4,349.3,453.1,359.4z"/>
<path class="st2" d="M453.1,359.4c1.6,1.5,3.8,2.3,6,2.3c-29.8,19-62.6,32.6-97.1,40.2c-1.1-0.3-2-0.9-3-0.9
	c-10-6.1-18.3-42.6-21.8-92.6C338.2,307.4,388.9,334.6,453.1,359.4z"/>
<g>
	<path class="st1" d="M359,401c1,0.3,1.9,0.9,3,0.9C360.9,401.8,359.9,401.5,359,401z"/>
	<path class="st1" d="M337.6,308.4l-0.4,0l0-0.4C337.4,307.9,337.6,308.4,337.6,308.4z"/>
	<path class="st1" d="M337.5,203.8c-0.4,0-0.4,0-0.4,0l0-0.9L337.5,203.8z"/>
	<path class="st1" d="M264.9,414.8c-0.4,0-0.8,0-1.1,0L264.9,414.8z"/>
	<path class="st1" d="M167.8,405.4c-0.4,0-0.9,0-1.3,0L167.8,405.4z"/>
</g>
<path class="st2" d="M141.1,203.1c-33.5,16.4-62.8,30.9-105.9,53.1c-0.1-58.5,11.7-105.9,26.4-106
	C86.9,169.6,113.5,187.3,141.1,203.1z"/>
<path class="st0" d="M358.9,110.1c-10,6-18.4,42.9-21.8,92.8c-14.6-6.8-73.4-36.1-93-46.4l0.7-5.6
	C281.7,134.3,319.8,120.7,358.9,110.1L358.9,110.1z"/>
<path class="st2" d="M361.1,109.3c34.7,7.7,67.8,21.4,97.8,40.5c-2.2,0-4.3,0.8-5.9,2.2c-62.8,24.7-114.2,52-115.8,51.2
	C340.6,152.9,349,116,359,110C359.7,109.7,360.4,109.3,361.1,109.3L361.1,109.3z"/>
<path class="st2" d="M36.9,256.7c66.5,34.3,96.3,48.5,104.3,52.9C113.6,325.2,87,342.7,61.8,362c-14.7,0-26.5-47.4-26.6-105.9
	C35.8,256.2,36.4,256.4,36.9,256.7z"/>
<path class="st0" d="M244.1,156.5c-4.1,33-6.1,66.2-5.8,99.4c-28-15.7-61.8-33.1-95.3-52.4l0-1.8c75-37.6,77.4-39.1,95.8-47.9
	C240.5,154.7,242.2,155.7,244.1,156.5z"/>
<path class="st2" d="M337.2,307.9c0,0.9-39.4,19.5-92.9,47.5c-4.2-33-6.2-66.2-6-99.5C274.7,276.3,308,293.6,337.2,307.9z"/>
<path class="st0" d="M337,203.8c-2.2,34.7-2.2,69.5,0.2,104.2c-29.1-14.4-62.5-31.6-98.9-52C274.6,235.5,307.9,218.2,337,203.8
	L337,203.8z"/>
<path class="st2" d="M244.1,156.5c43.8,22.9,94,47.2,93,47.2c-1,0-56.6,28.4-98.8,52.2C238,222.7,240,189.5,244.1,156.5L244.1,156.5
	z"/>
<path class="st0" d="M143.1,310.3c3.7,53.4,12.7,92,23.4,95.1c-37.4-7.5-72.9-22.3-104.6-43.3c25.3-19.3,51.9-37,79.4-53
	C141.8,309.5,142.4,309.9,143.1,310.3z"/>
<path class="st0" d="M142.4,203.3c-2.2,35-2.2,70.1,0.1,105c-2.3,1.1-0.7,1.2-4.5-0.5c-50.9-27-97.7-49.7-102.7-51.7
	c-1.1,0-2.6,0.8,105.9-53.5L142.4,203.3z"/>
<path class="st2" d="M238.3,255.9c-28,15.7-61.8,33.2-95.4,52.2c-2.3-35-2.3-70.1-0.1-105C176.5,222.8,210.3,240.3,238.3,255.9z"/>
<path class="st2" d="M239.2,358.4c-61.2,32.6-68.5,47.6-71.4,47.6c-17.7-3.8-23.5-77.8-24.7-95.8
	C213.5,345.5,221.2,349.7,239.2,358.4z"/>
<path class="st3" d="M485.4,255.7c0.1,58.5-8.7,105.9,8.9,105.9l-35.3,0c-17.7,0-17.7-47.4-17.7-105.9s-0.1-105.9,17.6-105.9l35.3,0
	C476.5,149.8,485.4,197.2,485.4,255.7z"/>
<ellipse id="Oval" class="st4" cx="492.3" cy="255.7" rx="19.6" ry="105.9"/>
<path class="st3" d="M35.2,256.1C35.3,314.6,47.2,362,61.8,362l-35.3,0c-14.7,0-26.5-47.4-26.6-105.9s11.7-105.9,26.4-106l35.3,0
	C47,150.2,35.2,197.6,35.2,256.1z"/>
</svg>
