<?xml version="1.0" encoding="utf-8"?>
<!-- Generator: Adobe Illustrator 23.1.1, SVG Export Plug-In . SVG Version: 6.00 Build 0)  -->
<svg version="1.1" id="Layer_1" xmlns="http://www.w3.org/2000/svg" xmlns:xlink="http://www.w3.org/1999/xlink" x="0px" y="0px"
	 viewBox="0 0 126 192" style="enable-background:new 0 0 126 192;" xml:space="preserve">
<style type="text/css">
	.st0{fill:#FF9200;}
	.st1{fill:url(#SVGID_1_);}
	.st2{fill:#FFFFAB;}
	.st3{fill:#FFFFFF;}
	.st4{fill:url(#SVGID_2_);}
	.st5{fill:url(#SVGID_3_);}
	.st6{fill:none;}
	.st7{fill:url(#SVGID_4_);}
</style>
<g>
	<path class="st0" d="M103.38,150.75c2.37-13.53-7.82-21.15-10.07-34.83c-0.84-5.08,3.28-17.52,1.42-22.46
		c-2.42-6.42-5.44-9.14-3.81-16.71c-2.94,6.63-11.54,10.41-12.8,18.13c-3.62-12.28,6.62-21.7,8.64-33.33
		c1.62-9.27-5.01-22.69-10.37-30.68c-0.85,3.69-1.81,7.46-2.56,11.19c1.35-7.34-3.65-9.56-6.64-15.03
		c-3.67-6.72-1.55-11.56-2.09-18.84c-6.47,5.43-15.19,9.01-15.39,18.19c-0.19,8.66,6.08,17.84,6.9,26.83
		c1.04,11.28-3.93,15.9-8.62,25.15c-4,7.88-1.83,16.11-1.68,24.85c-4.88-13.87-14.29-17.36-29.29-16.27
		c22.85,9.96,7.59,36.33,4.07,53.16c0,0-5.63,35.4,38.97,41.38C60.05,181.48,97.9,182.04,103.38,150.75z"/>
	<linearGradient id="SVGID_1_" gradientUnits="userSpaceOnUse" x1="58.1941" y1="19.4947" x2="64.6531" y2="177.4887">
		<stop  offset="0" style="stop-color:#FFDF00"/>
		<stop  offset="0.1017" style="stop-color:#FFE518"/>
		<stop  offset="0.2773" style="stop-color:#FFEF3B"/>
		<stop  offset="0.4554" style="stop-color:#FFF657"/>
		<stop  offset="0.6344" style="stop-color:#FFFB6A"/>
		<stop  offset="0.815" style="stop-color:#FFFE76"/>
		<stop  offset="1" style="stop-color:#FFFF7A"/>
	</linearGradient>
	<path class="st1" d="M59.62,181.42c-13.65-1.48-20.84-7.1-23.21-23.86c-2.07-14.62,0.17-30.96-2.39-44.84
		c5.64,4.08,3.95,10.79,7.33,14.57c6.3,7.04,6.04-3.02,6.62-9.2c1.31-13.89-3.12-22.74,5.23-34.59c7.2-10.23,12.42-20.87,7.87-34
		c-1.92-5.54-5.08-8.7-5.61-14.89c-0.63-7.4,2.9-10.76,4.15-17.16c0.01,7.9-0.92,13.96,3.93,20.14c4.42,5.64,12.27,7.94,11.02,17.33
		c0,0.68,0,0.68,0,0c-0.37-3.08,0.55-5.52,1.67-7.6c8.63,12.11,1.87,19.71-3.12,32.25c-4.83,12.14-4.99,23.59,2.32,34.54
		c-1.07-8.98,7.18-14.67,9.93-22.28c0.75,3.96,3.61,8.59,4.19,12.47c0.86,5.73-1.67,9.69-2.51,14.75
		c-1.71,10.28,3.56,19.01,4.13,29.34C92.47,171.66,77.79,181.27,59.62,181.42"/>
	<path class="st2" d="M59.95,180.5c-8.49-0.94-12.97-4.55-14.45-15.29c-1.29-9.37,0.11-19.85-1.49-28.75
		c3.51,2.62,2.45,6.92,4.56,9.33c3.93,4.52,3.76-1.93,4.12-5.89c0.82-8.91-1.94-14.57,3.25-22.17c4.48-6.56,7.73-13.38,4.9-21.79
		c-1.2-3.55-3.16-5.58-3.49-9.54c-0.39-4.75,1.8-6.89,2.58-11c0,5.06-0.57,8.94,2.45,12.91c6.67,5.72,9.06,18.86,5.96,26.91
		c-3.01,7.78-3.11,15.12,1.45,22.14c-0.67-5.76,4.47-9.4,6.18-14.29c0.47,2.54,2.25,5.5,2.61,8c0.54,3.67-1.04,6.21-1.56,9.46
		c-1.06,6.59,2.21,12.19,2.57,18.8C80.4,174.24,71.26,180.4,59.95,180.5"/>
	<path class="st3" d="M60.98,180.55c-14.16-4.41-4.61-21.27-13.39-28.54c4.04,0.54,8.48,3.42,9.74,7.42
		c8.12,2.02-1.29-22.3-1.49-26.1c-0.47-9.31,5.56-17.43,8.88-26.04c1.16,3.99,1.94,7.11,0.47,11.08c-1.52,4.1-3.44,5.94-3.27,10.75
		c0.15,4.24,1.24,7.33,3.61,10.88c2.07,3.11,5.29,5.54,4.8,9.55c0.04-6.34,2.7-9.87,4.23-15.61c-0.16,9.21,2.38,18.84,0.45,27.92
		c-1.05,4.97-7.54,17.75-13.09,18.69"/>
	<rect x="-266.43" y="-19.59" class="st6" width="532.47" height="452.98"/>
</g>
</svg>
