<?xml version="1.0" encoding="utf-8"?>
<!-- Generator: Adobe Illustrator 23.1.1, SVG Export Plug-In . SVG Version: 6.00 Build 0)  -->
<svg version="1.1" id="Layer_1" xmlns="http://www.w3.org/2000/svg" xmlns:xlink="http://www.w3.org/1999/xlink" x="0px" y="0px"
	 viewBox="0 0 126 192" style="enable-background:new 0 0 126 192;" xml:space="preserve">
<style type="text/css">
	.st0{fill:#FF9200;}
	.st1{fill:url(#SVGID_1_);}
	.st2{fill:#FFFFAB;}
	.st3{fill:#FFFFFF;}
	.st4{fill:url(#SVGID_2_);}
	.st5{fill:url(#SVGID_3_);}
	.st6{fill:none;}
	.st7{fill:url(#SVGID_4_);}
</style>
<g>
	<path class="st0" d="M64.46,172.95c-2.15-5.91,2.34-12.37,6.39-16.11c11.63-10.74,25.56-16.15,28.24-30.95
		c3.36-18.53-9.79-22.72-9-37.44c-3,5.48,1.38,13.88,0.36,19.53c-1.07,5.91-3.76,11.55-8.59,12.62c4.62-2.09,5.91-7.52,6.71-12.08
		c1.35-6.98-1.61-12.62-2.68-19.33c-0.54-3.49,0.22-6.29,1.61-9.67c1.8-4.39,6.71-8.32,10.47-6.98c-6.62-3.22-15.3,2.41-17.72,5.64
		c-4.3,5.37-6.67,12.08-5.37,18.79l0.27,0.27c-3.22-5.37-2.63-11.99,0.05-17.63c2.68-5.91,6.3-11.19,9.53-16.83
		c3.49-5.64,4.16-10.69,3.94-17.18c-0.3-9-9.89-27.03-28.28-27.84c16.47,7.1,19.51,29.67,7.21,47.17
		C67.53,54.55,60.1,48.1,51.24,46.49c7.25,1.61,10.74,12.35,8.59,22.29c-1.88,8.32-9.13,15.3-11.28,23.36
		c-2.15,7.25,1.07,13.19,4.03,19.36c2.69,5.1,4.21,16.84-5.1,15c-8.69-1.71-7.52-16.38-1.88-20.94c-9.35,6.98-10.2,23.09-1.07,28.46
		c-4.03-2.12-6.44-4.83-7.25-10.2c-2.42-14.77,14.5-29.27,1.34-42.69c4.75,8.5-0.21,16.19-4.51,23.98
		c-6.98,12.08-14.95,26.34-7.76,40.33c3.74,7.28,10.07,13.16,17.05,17.99c6.18,4.3,14.02,8.18,21.27,10.6L64.46,172.95z"/>
</g>
<g>
	<linearGradient id="SVGID_1_" gradientUnits="userSpaceOnUse" x1="76.6617" y1="35.5531" x2="56.2058" y2="160.2664">
		<stop  offset="0" style="stop-color:#FFDF00"/>
		<stop  offset="0.1017" style="stop-color:#FFE518"/>
		<stop  offset="0.2773" style="stop-color:#FFEF3B"/>
		<stop  offset="0.4554" style="stop-color:#FFF657"/>
		<stop  offset="0.6344" style="stop-color:#FFFB6A"/>
		<stop  offset="0.815" style="stop-color:#FFFE76"/>
		<stop  offset="1" style="stop-color:#FFFF7A"/>
	</linearGradient>
	<path class="st1" d="M60.91,171.22c-2.87-9.57,7.87-17.43,13.27-21.43c7.88-5.84,11.48-6.89,17.16-14.02
		c4.04-5.07,7.16-15.62,1.97-26.34c1.79,7.38-2.48,13.27-8.95,16.21c-0.83,0.38-5.13,2.03-6.98,1.15c4.12-5.59,6.96-9.71,8.34-17.36
		c2.09-11.53-9.6-19.63,0.93-33.27c-12.86,6.93-10.3,26.43-9.77,31.35c-6.44-8.48-7.51-14.95-5.95-23.24
		c1.08-5.72,3.83-10.07,5.91-13.94c3.11-5.79,6.08-10.12,7.42-14.77c2.06-7.11,0.09-19.7-7.42-26.25
		c7.89,11.84,3.04,25.31-5.03,36.27c-5.45,7.4-13.37,15.08-16.51,23.95c-3.8,10.73-0.48,18.79,2.74,26.45
		c2.95,7.01,2.96,18.05-5.09,21.87c-10.47,5.19-21.15-7.7-20.37-22.42c-13.03,23.65-0.27,38.01,13.02,48.12
		c3.5,2.66,11.44,7.25,15.98,8.89L60.91,171.22z"/>
</g>
<path class="st2" d="M60.91,171.22c-2.98-1.31-22.78-13.42-26.28-27.65c-0.99-2.72-0.99-7.9-2.74-10.07
	c7.83,6.58,21.32,9.22,28.53,1.82c4.29-4.4,3.12-12.77,1.72-18.5c-1.3-5.32-4.75-9.87-5.24-15.36
	c-0.96-10.87,4.17-20.93,12.13-27.96c-1.1,3.66-2.95,6.43-3.13,10.56c-0.22,4.81-0.81,9.04,0.26,13.69
	c1.38,5.99,5.62,12.6,12.18,13.65c3.69-5.98,0.28-11.13,0.24-16.76c3.44,6.17,8.02,12.64,3.77,19.76
	c-3.37,5.63-10.07,8.37-9.32,16.05c1.46-3.71,6.89-2.82,10.06-3.09c4.49-0.39,6.79-1.98,9.74-5.21
	c6.39,13.41-34.49,30.23-32.64,48.48"/>
<path class="st3" d="M59.65,170.04c-4.36-3.96-10.54-7.51-13.89-12.34c-3.5-5.03-3.99-9.97-5.73-15.57
	c8.07,7.04,22.46,2.73,25.67-7.69c1.48-4.82,0.52-9.26-0.69-13.89c-1.28-4.86-2.66-7.52,0.81-11.72c0.24,5.25,2.68,7.78,4.54,12.34
	c1.64,4,0.91,8.41,0.38,12.57c1.63-2.22,5.17-1.12,7.19-3.21c0.78,10.18-7.35,13.73-14.07,19.38c-3.17,2.66-6.93,5.44-7.53,9.58
	c-0.63,4.33,2.75,7.65,3.64,11.15"/>
</svg>
