<?xml version="1.0" encoding="utf-8"?>
<!-- Generator: Adobe Illustrator 23.1.1, SVG Export Plug-In . SVG Version: 6.00 Build 0)  -->
<svg version="1.1" id="Layer_1" xmlns="http://www.w3.org/2000/svg" xmlns:xlink="http://www.w3.org/1999/xlink" x="0px" y="0px"
	 viewBox="0 0 126 192" style="enable-background:new 0 0 126 192;" xml:space="preserve">
<style type="text/css">
	.st0{fill:#FF9200;}
	.st1{fill:url(#SVGID_1_);}
	.st2{fill:#FFFFAB;}
	.st3{fill:#FFFFFF;}
	.st4{fill:url(#SVGID_2_);}
	.st5{fill:url(#SVGID_3_);}
	.st6{fill:none;}
	.st7{fill:url(#SVGID_4_);}
</style>
<g>
	<path class="st0" d="M59.74,173.46c-3.94-8.45-11.38-12.25-18.19-17.05c-6.84-4.82-13.84-10.18-16.2-18.65
		c-4.54-16.27,7.57-29.29,8.68-44.71c10.87,10.24-8.38,32.42,10.53,36.07c-6.3-11.76-2.37-16.49,3.78-27.1
		c6.74-11.63,0.79-17.43-4.26-27.61C31.43,48.89,66.86,39.71,61.49,18.2c6.15,4.76,4.69,18.66,3.88,26.94
		c-1.08,10.92-0.69,16.83,6.15,26.42c5.89,8.26,12.94,14.98,13.31,26.04c0.27,8.15-9.32,18.36-3.11,25.96
		c1.42-8.91,13.97-9.98,14.66-18.79c0.08,17.13,12.42,36.5-1.35,50.88c-4.89,5.12-11.49,7.96-17.76,10.8
		C73.97,167.96,65.04,173.34,59.74,173.46"/>
	<linearGradient id="SVGID_1_" gradientUnits="userSpaceOnUse" x1="65.992" y1="66.8573" x2="60.1028" y2="160.4207">
		<stop  offset="0" style="stop-color:#FFDF00"/>
		<stop  offset="0.1017" style="stop-color:#FFE518"/>
		<stop  offset="0.2773" style="stop-color:#FFEF3B"/>
		<stop  offset="0.4554" style="stop-color:#FFF657"/>
		<stop  offset="0.6344" style="stop-color:#FFFB6A"/>
		<stop  offset="0.815" style="stop-color:#FFFE76"/>
		<stop  offset="1" style="stop-color:#FFFF7A"/>
	</linearGradient>
	<path class="st1" d="M60.44,173.59c0.67-7.55-10.78-16.11-16.24-19.19c-9.16-5.15-14-8.36-14.27-19.96
		c3.82,5.05,19.35,12.45,19.71,3.45c0.12-3.02-4-8.21-3.95-12.7c0.06-5.05,1.19-8.41,3.93-12.55c5.34-8.06,9.71-13.59,5.99-24.18
		c-3.56-10.1-9.25-15.67-3.16-26.7c4.03,13.81,21.99,24.76,20.95,39.46c-1.03,14.57-14.99,31.15,6.76,37.38
		c1.74-6.3,5.48-10.94,10.51-15.39c-0.17,12.37,6.38,21.58-2.08,32.1C81.22,164.46,69.8,167.57,60.44,173.59"/>
	<path class="st2" d="M61.93,172.8c2.93-13.4-13.61-13.66-16.92-23.82c22.37,8.41,6.68-12.13,6.48-22.4
		c-0.25-13.15,11.81-22.53,10.45-35.69c9.73,9.31,2.8,19.21,0.6,29.7c-1.2,5.73-0.59,11.37,2.62,16.31c3.17,4.87,9.54,7.9,9.7,14.17
		c2.46-5.18,8.31-6.3,10.38-11.49c-0.17,10.29,0.47,16.71-8.13,23.16C72.3,166.35,63.51,167.44,61.93,172.8"/>
	<path class="st3" d="M62.27,170.85c5.01-7.54-6.64-11.68-5.99-18.58c0.69,0.89,4.5,2.71,5.73,2.44c2.62-0.58,2.28-3.34,1.16-6.04
		c-2.11-5.11-6.08-9.36-3.2-15.67c1.91,7.63,16.57,14.6,10.85,23.93c1.46-1.64,3.01-3.6,4.54-5.3c-0.25,2.56,0.81,5.08,0.07,7.54
		c-0.67,2.24-2.77,4.66-4.34,6.12C68.43,167.79,64.81,168.35,62.27,170.85"/>
</g>
</svg>
