<?xml version="1.0" encoding="utf-8"?>
<!-- Generator: Adobe Illustrator 23.1.1, SVG Export Plug-In . SVG Version: 6.00 Build 0)  -->
<svg version="1.1" id="Layer_1" xmlns="http://www.w3.org/2000/svg" xmlns:xlink="http://www.w3.org/1999/xlink" x="0px" y="0px"
	 viewBox="0 0 126 192" style="enable-background:new 0 0 126 192;" xml:space="preserve">
<style type="text/css">
	.st0{fill:#FF9200;}
	.st1{fill:url(#SVGID_1_);}
	.st2{fill:#FFFFAB;}
	.st3{fill:#FFFFFF;}
	.st4{fill:url(#SVGID_2_);}
	.st5{fill:url(#SVGID_3_);}
	.st6{fill:none;}
	.st7{fill:url(#SVGID_4_);}
</style>
<g>
	<g>
		<path class="st0" d="M68.59,181.07c7.38-3.65,15.28-12.14,20.1-20.24c13.48-21.88,23.65-51.49,5.68-75.39
			c1.6,6.08-0.52,15.4-5.21,20.2c2.27-7.66,2.77-14.44,1.4-23.68C88.35,67.09,80,50.66,71.98,39.31
			c-6.44-9.12-19.42-20.38-21.66-21.59c3.21,13.37,3.86,24.28-1.61,38.9c-9.66,25.86-31.45,42.54-26,74.96
			c3.53,22.28,20.95,44.73,38.83,49.43L68.59,181.07z"/>
	</g>
	<linearGradient id="SVGID_1_" gradientUnits="userSpaceOnUse" x1="61.7738" y1="56.948" x2="70.1249" y2="167.301">
		<stop  offset="0" style="stop-color:#FFDF00"/>
		<stop  offset="0.1017" style="stop-color:#FFE518"/>
		<stop  offset="0.2773" style="stop-color:#FFEF3B"/>
		<stop  offset="0.4554" style="stop-color:#FFF657"/>
		<stop  offset="0.6344" style="stop-color:#FFFB6A"/>
		<stop  offset="0.815" style="stop-color:#FFFE76"/>
		<stop  offset="1" style="stop-color:#FFFF7A"/>
	</linearGradient>
	<path class="st1" d="M64.02,182.31c-19.51-5.69-44.68-48.4-21.1-76.32c26.06-30.41,19.04-52.75,20.94-55.16
		c6.63,12.3,15.18,25.22,16.29,39.65c0.86,11.3-3.76,22.01,0.14,32.69c4.23-7.07,13.93-6.97,19.75-13.23
		C100.74,124.87,96.29,174.87,64.02,182.31"/>
	<path class="st2" d="M64.1,181.69c-13.64-3.98-31.23-33.83-14.75-53.35C67.57,107.09,62.67,91.48,64,89.79
		c4.64,8.6,10.61,17.63,11.38,27.71c0.6,7.9-2.62,15.39,0.1,22.85c2.96-4.94,9.74-4.87,13.8-9.25
		C89.77,141.54,86.66,176.49,64.1,181.69"/>
	<path class="st3" d="M64.55,182.94c-6.81-1.99-15.59-16.89-7.36-26.64c9.1-10.61,6.65-18.41,7.31-19.25
		c2.32,4.29,5.3,8.8,5.68,13.84c0.3,3.94-1.31,7.68,0.05,11.41c1.48-2.47,4.86-2.43,6.89-4.62
		C77.36,162.89,75.81,180.34,64.55,182.94"/>
</g>
<g>
	<rect x="-458.43" y="-19.59" class="st6" width="532.47" height="452.98"/>
</g>
</svg>
