<?xml version="1.0" encoding="utf-8"?>
<!-- Generator: Adobe Illustrator 23.1.1, SVG Export Plug-In . SVG Version: 6.00 Build 0)  -->
<svg version="1.1" id="Layer_1" xmlns="http://www.w3.org/2000/svg" xmlns:xlink="http://www.w3.org/1999/xlink" x="0px" y="0px"
	 viewBox="0 0 512 512" style="enable-background:new 0 0 512 512;" xml:space="preserve">
<style type="text/css">
	.st0{fill:#FF152F;}
	.st1{clip-path:url(#SVGID_2_);}
	.st2{fill:#F7931E;}
	.st3{fill:#29ABE2;}
	.st4{fill:#2E3192;}
	.st5{fill:#C7CAA6;}
	.st6{fill:#754C24;}
	.st7{fill:#006837;}
	.st8{clip-path:url(#SVGID_4_);}
</style>
<path class="st0" d="M465.4,247c-2.2-22-12.4-43-28.9-58.4c-17.1-15.9-39.3-24.7-62.7-24.7c-41.5,0-77.3,27.4-88.5,67
	c-7-7-18.5-11.7-29.3-11.7s-22.3,4.7-29.3,11.7c-11.2-39.6-47-67-88.5-67c-23.3,0-45.6,8.7-62.7,24.6C59,204,48.8,225,46.6,247H32
	v18h14.6c2.2,22,12.4,43,28.9,58.4c17.1,15.9,39.3,24.7,62.7,24.7c50.8,0,92.1-41.2,92.1-92c0-0.1,0-0.1,0-0.1l0,0
	c0-9.9,11.5-21.6,25.7-21.6s25.7,11.7,25.7,21.6l0,0c0,0,0,0,0,0.1c0,50.8,41.3,92,92.1,92c23.3,0,45.6-8.7,62.7-24.7
	c16.5-15.4,26.7-36.5,28.9-58.5H480v-18h-14.6V247z M373.8,333c-42.5,0-77-34.6-77-77c0-42.5,34.6-77,77-77c42.5,0,77,34.6,77,77
	C450.8,298.5,416.3,333,373.8,333z M138.2,333c-42.5,0-77-34.6-77-77c0-42.5,34.6-77,77-77c42.5,0,77,34.6,77,77
	C215.2,298.5,180.7,333,138.2,333z"/>
<g>
	<defs>
		<circle id="SVGID_1_" cx="138.2" cy="256" r="77"/>
	</defs>
	<clipPath id="SVGID_2_">
		<use xlink:href="#SVGID_1_"  style="overflow:visible;"/>
	</clipPath>
	<g class="st1">
		<circle class="st2" cx="298.3" cy="251.1" r="46.8"/>
		<path class="st3" d="M23.1,261.2c24.8-11,70.5-11,101,6.9s99.9-28.7,110.4-26c10.5,2.7,99.9-3.6,108.5,26s52.3-14.3,61.9-17.9
			s78.3,6,82,28.1v75.9H23.1V261.2z"/>
		<path class="st4" d="M23.1,278.8c44.8,12.9,69.6-11.1,101,5.6c29.5,15.7,62.8,4.4,110.4-21.1c8.9-4.7,42.6,31.9,108.5,21.1
			c35.2-5.8,52.9-18.3,61.9-14.5c22.8,9.4,34.3,28.3,82,22.8v61.5H23.1V278.8z"/>
		<path class="st5" d="M23.1,337.3c44.8,3.1,69.6-2.6,101,1.3c29.5,3.8,62.8,1,110.4-5c8.9-1.1,42.6,7.6,108.5,5
			c35.2-1.4,52.9-4.4,61.9-3.5c22.8,2.3,34.3,6.8,82,5.5v14.7H23.1V337.3z"/>
		<g>
			<path class="st6" d="M139.3,210.1c0,0-4.8-2.9-3.8,1.9c1,4.8,32.5,46.8,25.8,139.5c0,0,9.6,8.6,21,0
				C193.8,342.9,149.8,208.2,139.3,210.1z"/>
			<path class="st7" d="M132.6,209.2c-9.7,4.9-46.8,28.7-18.2,105.1c0,0,5.7,9.6,8.6-2.9c2.9-12.4-6.7-62.1,11.5-96.5
				C134.5,214.9,138.4,206.3,132.6,209.2z"/>
			<path class="st7" d="M135.5,200.6c-9.6-21.9-69.7-85-111.8-22.9c0,0,65.9-4.8,100.3,26.7c0,0-86-25.8-89.8,70.7
				c0,0,2.9,7.6,5.7,0c2.9-7.6,44.9-65.9,91.7-64C131.7,211.1,142.2,215.9,135.5,200.6z"/>
			<path class="st7" d="M133.6,208.2c-2.2-15.2-22-76.4,34.4-66.9c0,0,3.8,1.9,0,4.8c-3.8,2.9-20.1,3.8-28.7,62.1
				C139.3,208.2,134.5,214.9,133.6,208.2z"/>
			<path class="st7" d="M136.5,206.3c7-12.2,45.9-65,88.8-14.3c0,0,5.7,5.7-6.7,4.8c-12.4-1-7.6-15.3-76.4,9.6
				C142.2,206.3,132.6,213,136.5,206.3z"/>
			<path class="st7" d="M135.5,207.3c32.6-6.5,89.8-7.6,73.6,43c0,0-4.8,5.7-8.6-2.9c-3.8-8.6-1.9-22.9-61.1-36.3
				C139.3,211.1,130.7,208.2,135.5,207.3z"/>
		</g>
		<g>
			<path class="st6" d="M370.8,210.1c0,0,4.8-2.9,3.8,1.9c-1,4.8-32.5,46.8-25.8,139.5c0,0-9.6,8.6-21,0
				C316.3,342.9,360.3,208.2,370.8,210.1z"/>
			<path class="st7" d="M377.5,209.2c9.7,4.9,46.8,28.7,18.2,105.1c0,0-5.7,9.6-8.6-2.9c-2.9-12.4,6.7-62.1-11.5-96.5
				C375.6,214.9,371.7,206.3,377.5,209.2z"/>
			<path class="st7" d="M374.6,200.6c9.6-22,69.7-85,111.8-22.9c0,0-65.9-4.8-100.3,26.7c0,0,86-25.8,89.8,70.7c0,0-2.9,7.6-5.7,0
				c-2.9-7.6-44.9-65.9-91.7-64C378.4,211.1,367.9,215.9,374.6,200.6z"/>
			<path class="st7" d="M376.5,208.2c2.2-15.2,22-76.4-34.4-66.9c0,0-3.8,1.9,0,4.8c3.8,2.9,20.1,3.8,28.7,62.1
				C370.8,208.2,375.6,214.9,376.5,208.2z"/>
			<path class="st7" d="M373.6,206.3c-7-12.2-45.9-65-88.8-14.3c0,0-5.7,5.7,6.7,4.8c12.4-1,7.6-15.3,76.4,9.6
				C367.9,206.3,377.5,213,373.6,206.3z"/>
			<path class="st7" d="M374.6,207.3c-32.6-6.5-89.8-7.6-73.6,43c0,0,4.8,5.7,8.6-2.9c3.8-8.6,1.9-22.9,61.1-36.3
				C370.8,211.1,379.4,208.2,374.6,207.3z"/>
		</g>
	</g>
</g>
<g>
	<defs>
		<circle id="SVGID_3_" cx="374.3" cy="256" r="77"/>
	</defs>
	<clipPath id="SVGID_4_">
		<use xlink:href="#SVGID_3_"  style="overflow:visible;"/>
	</clipPath>
	<g class="st8">
		<circle class="st2" cx="299.3" cy="247.9" r="46.8"/>
		<path class="st3" d="M24.1,258c24.8-11,70.5-11,101,6.9s99.9-28.7,110.4-26c10.5,2.7,99.9-3.6,108.5,26
			c8.6,29.6,52.3-14.3,61.9-17.9c9.5-3.6,78.3,6,82,28.1V351H24.1V258z"/>
		<path class="st4" d="M24.1,275.6c44.8,12.9,69.6-11.1,101,5.6c29.5,15.7,62.8,4.4,110.4-21.1c8.9-4.7,42.6,31.9,108.5,21.1
			c35.2-5.8,52.9-18.3,61.9-14.5c22.8,9.4,34.3,28.3,82,22.8V351H24.1V275.6z"/>
		<path class="st5" d="M24.1,334.1c44.8,3.1,69.6-2.6,101,1.3c29.5,3.8,62.8,1,110.4-5c8.9-1.1,42.6,7.6,108.5,5
			c35.2-1.4,52.9-4.4,61.9-3.5c22.8,2.3,34.3,6.8,82,5.5v14.7H24.1V334.1z"/>
		<g>
			<path class="st6" d="M140.3,207c0,0-4.8-2.9-3.8,1.9c1,4.8,32.5,46.8,25.8,139.5c0,0,9.6,8.6,21,0
				C194.8,339.7,150.8,205,140.3,207z"/>
			<path class="st7" d="M133.6,206c-9.7,4.9-46.8,28.7-18.2,105.1c0,0,5.7,9.6,8.6-2.9c2.9-12.4-6.7-62.1,11.5-96.5
				C135.5,211.7,139.4,203.1,133.6,206z"/>
			<path class="st7" d="M136.5,197.4c-9.6-21.9-69.7-85-111.8-22.9c0,0,65.9-4.8,100.3,26.7c0,0-86-25.8-89.8,70.7
				c0,0,2.9,7.6,5.7,0c2.9-7.6,44.9-65.9,91.7-64C132.7,207.9,143.2,212.7,136.5,197.4z"/>
			<path class="st7" d="M134.6,205c-2.2-15.2-22-76.4,34.4-66.9c0,0,3.8,1.9,0,4.8c-3.8,2.9-20.1,3.8-28.7,62.1
				C140.3,205,135.5,211.7,134.6,205z"/>
			<path class="st7" d="M137.5,203.1c7-12.2,45.9-65,88.8-14.3c0,0,5.7,5.7-6.7,4.8c-12.4-1-7.6-15.3-76.4,9.6
				C143.2,203.1,133.6,209.8,137.5,203.1z"/>
			<path class="st7" d="M136.5,204.1c32.6-6.5,89.8-7.6,73.6,43c0,0-4.8,5.7-8.6-2.9c-3.8-8.6-1.9-22.9-61.1-36.3
				C140.3,207.9,131.7,205,136.5,204.1z"/>
		</g>
		<g>
			<path class="st6" d="M371.8,207c0,0,4.8-2.9,3.8,1.9c-1,4.8-32.5,46.8-25.8,139.5c0,0-9.6,8.6-21,0
				C317.3,339.7,361.3,205,371.8,207z"/>
			<path class="st7" d="M378.5,206c9.7,4.9,46.8,28.7,18.2,105.1c0,0-5.7,9.6-8.6-2.9c-2.9-12.4,6.7-62.1-11.5-96.5
				C376.6,211.7,372.7,203.1,378.5,206z"/>
			<path class="st7" d="M375.6,197.4c9.6-22,69.7-85,111.8-22.9c0,0-65.9-4.8-100.3,26.7c0,0,86-25.8,89.8,70.7c0,0-2.9,7.6-5.7,0
				c-2.9-7.6-44.9-65.9-91.7-64C379.4,207.9,368.9,212.7,375.6,197.4z"/>
			<path class="st7" d="M377.5,205c2.2-15.2,22-76.4-34.4-66.9c0,0-3.8,1.9,0,4.8c3.8,2.9,20.1,3.8,28.7,62.1
				C371.8,205,376.6,211.7,377.5,205z"/>
			<path class="st7" d="M374.6,203.1c-7-12.2-45.9-65-88.8-14.3c0,0-5.7,5.7,6.7,4.8s7.6-15.3,76.4,9.6
				C368.9,203.1,378.5,209.8,374.6,203.1z"/>
			<path class="st7" d="M375.6,204.1c-32.6-6.5-89.8-7.6-73.6,43c0,0,4.8,5.7,8.6-2.9c3.8-8.6,1.9-22.9,61.1-36.3
				C371.8,207.9,380.4,205,375.6,204.1z"/>
		</g>
	</g>
</g>
</svg>
