<?xml version="1.0" encoding="utf-8"?>
<!-- Generator: Adobe Illustrator 24.0.0, SVG Export Plug-In . SVG Version: 6.00 Build 0)  -->
<svg version="1.1" id="Capa_1" xmlns="http://www.w3.org/2000/svg" xmlns:xlink="http://www.w3.org/1999/xlink" x="0px" y="0px"
	 viewBox="0 0 1536 1661.6" style="enable-background:new 0 0 1536 1661.6;" xml:space="preserve">
<style type="text/css">
	.st0{fill:#FFF29D;}
</style>
<path class="st0" d="M402.3,209.1V80.6L256,0L109.7,80.6V209L0,274.6v175.8L127.2,512L256,458.6L384.8,512L512,450.4V274.6
	L402.3,209.1z M256,42.1l109.7,60.2v106L256,264.4l-109.7-56.2v-106L256,42.1z M36.6,427.3v-132l92.1-55l109,55.8v130.4l-109.3,44.6
	L36.6,427.3z M475.4,427.3l-91.8,44l-109.3-44.8V296.1l109-55.8l92.1,55V427.3L475.4,427.3z"/>
<path class="st0" d="M402.3,624.5V496L256,415.4L109.7,496v128.4L0,690v175.8l127.2,61.6L256,874l128.8,53.4L512,865.8V690
	L402.3,624.5z M256,457.5l109.7,60.2v106L256,679.8l-109.7-56.2v-106L256,457.5z M36.6,842.7v-132l92.1-55l109,55.8V842l-109.3,44.6
	L36.6,842.7z M475.4,842.7l-91.8,44L274.3,842V711.5l109-55.8l92.1,55V842.7L475.4,842.7z"/>
<path class="st0" d="M402.3,1054V925.6L256,845l-146.3,80.6V1054L0,1119.6v175.8l127.2,61.6l128.8-53.4l128.8,53.4l127.2-61.6
	v-175.8L402.3,1054z M256,887.1l109.7,60.2v106L256,1109.4l-109.7-56.2v-106L256,887.1z M36.6,1272.3v-132l92.1-55l109,55.8v130.4
	l-109.3,44.6L36.6,1272.3z M475.4,1272.3l-91.8,44l-109.3-44.8V1141l109-55.8l92.1,55V1272.3L475.4,1272.3z"/>
<path class="st0" d="M402.3,1469.5V1341L256,1260.4L109.7,1341v128.4L0,1535v175.8l127.2,61.6L256,1719l128.8,53.4l127.2-61.6V1535
	L402.3,1469.5z M256,1302.5l109.7,60.2v106L256,1524.8l-109.7-56.2v-106L256,1302.5z M36.6,1687.7v-132l92.1-55l109,55.8V1687
	l-109.3,44.6L36.6,1687.7z M475.4,1687.7l-91.8,44L274.3,1687v-130.5l109-55.8l92.1,55V1687.7L475.4,1687.7z"/>
<path class="st0" d="M914.3,209.4V81L768,0.4L621.7,81v128.4L512,274.9v175.8l127.2,61.6L768,459l128.8,53.4l127.2-61.6V274.9
	L914.3,209.4z M768,42.4l109.7,60.2v106L768,264.8l-109.7-56.2v-106L768,42.4z M548.6,427.7v-132l92.1-55l109,55.8v130.4
	l-109.3,44.6L548.6,427.7z M987.4,427.7l-91.8,44l-109.3-44.8V296.5l109-55.8l92.1,55V427.7L987.4,427.7z"/>
<path class="st0" d="M367.8,91.9l1.7,128.4l147.4,78.6l145.2-82.6l-1.7-128.4l108.8-67l-2.4-175.8l-128-59.9l-128.1,55.1
	l-129.5-51.6L254.9-148l2.4,175.8L367.8,91.9z M516.3,256.9l-110.5-58.7l-1.4-106l108.9-57.6l110.5,54.7l1.4,106L516.3,256.9z
	 M730.5-131.3l1.8,132L641,56.9L531.2,2.6l-1.8-130.4l108.7-46L730.5-131.3z M291.7-125.4l91.2-45.2l109.9,43.3l1.8,130.5
	L386.3,60.4L293.5,6.6L291.7-125.4L291.7-125.4z"/>
<path class="st0" d="M879.8,106.7l1.7,128.4l147.4,78.6l145.2-82.6l-1.7-128.4l108.8-67l-2.4-175.8l-128-59.9l-128.1,55.1
	l-129.5-51.6l-126.3,63.3l2.4,175.8L879.8,106.7z M1028.3,271.7L917.8,213l-1.4-106l108.9-57.6l110.5,54.7l1.4,106L1028.3,271.7z
	 M1242.5-116.5l1.8,132L1153,71.7l-109.8-54.3l-1.8-130.4l108.7-46L1242.5-116.5z M803.7-110.6l91.2-45.2l109.9,43.3l1.8,130.5
	L898.3,75.2l-92.8-53.7L803.7-110.6L803.7-110.6z"/>
<path class="st0" d="M1391.8,93.1l1.7,128.4l147.4,78.6l145.2-82.6l-1.7-128.4l108.8-67l-2.4-175.8l-128-59.9l-128.1,55.1
	L1405.2-210l-126.3,63.3l2.4,175.8L1391.8,93.1z M1540.3,258.1l-110.5-58.7l-1.4-106l108.9-57.6l110.5,54.7l1.4,106L1540.3,258.1z
	 M1754.5-130.1l1.8,132L1665,58.1L1555.2,3.8l-1.8-130.4l108.7-46L1754.5-130.1z M1315.7-124.2l91.2-45.2l109.9,43.3l1.8,130.5
	l-108.3,57.3L1317.5,8L1315.7-124.2L1315.7-124.2z"/>
<path class="st0" d="M-144.2,84.4l1.7,128.4L4.9,291.4l145.2-82.6l-1.7-128.4l108.8-67l-2.4-175.8l-128-59.9L-1.3-167.2l-129.5-51.6
	l-126.3,63.3l2.4,175.8L-144.2,84.4z M4.3,249.3l-110.5-58.7l-1.4-106L1.3,27l110.5,54.7l1.4,106L4.3,249.3z M218.5-138.9l1.8,132
	L129,49.4L19.2-4.9l-1.8-130.4l108.7-46L218.5-138.9z M-220.3-132.9l91.2-45.2l109.9,43.3l1.8,130.5L-125.7,53l-92.8-53.7
	L-220.3-132.9L-220.3-132.9z"/>
<path class="st0" d="M914.3,624.8V496.4L768,415.8l-146.3,80.6v128.4L512,690.3v175.8l127.2,61.6L768,874.4l128.8,53.4l127.2-61.6
	V690.3L914.3,624.8z M768,457.8L877.7,518v106L768,680.2L658.3,624V518L768,457.8z M548.6,843.1v-132l92.1-55l109,55.8v130.4
	l-109.3,44.6L548.6,843.1z M987.4,843.1l-91.8,44l-109.3-44.8V711.9l109-55.8l92.1,55V843.1L987.4,843.1z"/>
<path class="st0" d="M914.3,1054.4V926L768,845.3L621.7,926v128.4L512,1119.9v175.8l127.2,61.6L768,1304l128.8,53.4l127.2-61.6V1120
	L914.3,1054.4z M768,887.4l109.7,60.2v106L768,1109.8l-109.7-56.2v-106L768,887.4z M548.6,1272.7v-132l92.1-55l109,55.8v130.4
	l-109.3,44.6L548.6,1272.7z M987.4,1272.7l-91.8,44l-109.3-44.8v-130.5l109-55.8l92.1,55V1272.7L987.4,1272.7z"/>
<path class="st0" d="M914.3,1469.8v-128.4L768,1260.8l-146.3,80.6v128.4L512,1535.3v175.8l127.2,61.6l128.8-53.4l128.8,53.4
	l127.2-61.6v-175.8L914.3,1469.8z M768,1302.8l109.7,60.2v106L768,1525.2L658.3,1469v-106L768,1302.8z M548.6,1688.1v-132l92.1-55
	l109,55.8v130.4l-109.3,44.6L548.6,1688.1z M987.4,1688.1l-91.8,44l-109.3-44.8v-130.5l109-55.8l92.1,55V1688.1L987.4,1688.1z"/>
<path class="st0" d="M1426.3,210.3V81.8L1280,1.2l-146.3,80.6v128.4L1024,275.8v175.8l127.2,61.6l128.8-53.4l128.8,53.4l127.2-61.6
	V275.8L1426.3,210.3z M1280,43.3l109.7,60.2v106L1280,265.6l-109.7-56.2v-106L1280,43.3z M1060.6,428.6v-132l92.1-55l109,55.8v130.4
	l-109.3,44.6L1060.6,428.6z M1499.4,428.6l-91.8,44l-109.3-44.8V297.4l109-55.8l92.1,55L1499.4,428.6L1499.4,428.6z"/>
<path class="st0" d="M1426.3,625.7V497.2L1280,416.6l-146.3,80.6v128.4L1024,691.2V867l127.2,61.6l128.8-53.4l128.8,53.4L1536,867
	V691.2L1426.3,625.7z M1280,458.7l109.7,60.2v106L1280,681l-109.7-56.2v-106L1280,458.7z M1060.6,844V712l92.1-55l109,55.8v130.4
	l-109.3,44.6L1060.6,844z M1499.4,844l-91.8,44l-109.3-44.8V712.8l109-55.8l92.1,55L1499.4,844L1499.4,844z"/>
<path class="st0" d="M1426.3,1055.3V926.8L1280,846.2l-146.3,80.6v128.4l-109.7,65.5v175.8l127.2,61.6l128.8-53.4l128.8,53.4
	l127.2-61.6v-175.8L1426.3,1055.3z M1280,888.3l109.7,60.2v106l-109.7,56.2l-109.7-56.2v-106L1280,888.3z M1060.6,1273.6v-132
	l92.1-55l109,55.8v130.4l-109.3,44.6L1060.6,1273.6z M1499.4,1273.6l-91.8,44l-109.3-44.8v-130.5l109-55.8l92.1,55L1499.4,1273.6
	L1499.4,1273.6z"/>
<path class="st0" d="M1426.3,1470.7v-128.4l-146.3-80.6l-146.3,80.6v128.4l-109.7,65.5V1712l127.2,61.6l128.8-53.4l128.8,53.4
	L1536,1712v-175.8L1426.3,1470.7z M1280,1303.7l109.7,60.2v106L1280,1526l-109.7-56.2v-106L1280,1303.7z M1060.6,1689v-132l92.1-55
	l109,55.8v130.4l-109.3,44.6L1060.6,1689z M1499.4,1689l-91.8,44l-109.3-44.8v-130.5l109-55.8l92.1,55L1499.4,1689L1499.4,1689z"/>
</svg>
