<?xml version="1.0" encoding="utf-8"?>
<!-- Generator: Adobe Illustrator 23.1.1, SVG Export Plug-In . SVG Version: 6.00 Build 0)  -->
<svg version="1.1" id="Capa_1" xmlns="http://www.w3.org/2000/svg" xmlns:xlink="http://www.w3.org/1999/xlink" x="0px" y="0px"
	 viewBox="0 0 512 512" style="enable-background:new 0 0 512 512;" xml:space="preserve">
<style type="text/css">
	.st0{fill:#B289C9;}
	.st1{fill:#A274BF;}
	.st2{fill:#925CB4;}
	.st3{fill:#7A6D79;}
	.st4{fill:#685E68;}
	.st5{fill:#554E56;}
	.st6{fill:#814BA2;}
</style>
<circle class="st0" cx="256.6" cy="255.5" r="200.8"/>
<path class="st1" d="M156.3,255.5c0-93.6,64-172.2,150.6-194.5c-16.1-4.1-32.9-6.3-50.3-6.3c-110.9,0-200.8,89.9-200.8,200.8
	s89.9,200.8,200.8,200.8c17.4,0,34.2-2.2,50.3-6.3C220.2,427.7,156.3,349.1,156.3,255.5L156.3,255.5z"/>
<circle class="st1" cx="257.1" cy="256" r="145"/>
<path class="st2" d="M211.3,393.7c-34.1-36-55.1-84.6-55.1-138.2c0-52.8,20.4-100.8,53.7-136.7C153,138.4,112,192.4,112,256
	C112.1,320.1,153.7,374.5,211.3,393.7L211.3,393.7z"/>
<path class="st3" d="M391.3,473.7H121.7v-27.9c0-7.2,5.9-13.1,13.1-13.1h243.5c7.2,0,13.1,5.9,13.1,13.1L391.3,473.7L391.3,473.7z"
	/>
<path class="st4" d="M406.5,504.5h-300V477c0-6.2,5.1-11.3,11.3-11.3h277.3c6.2,0,11.3,5.1,11.3,11.3L406.5,504.5L406.5,504.5z"/>
<path class="st4" d="M187.8,432.7h-53.1c-7.2,0-13.1,5.9-13.1,13.1v27.9h53.1v-27.9C174.8,438.6,180.6,432.7,187.8,432.7z"/>
<path class="st5" d="M170.9,465.7h-53.1c-6.2,0-11.3,5.1-11.3,11.3v27.5h53.1V477C159.6,470.7,164.7,465.7,170.9,465.7z"/>
<g>
	<path class="st5" d="M423.5,512H90.2c-4.1,0-7.5-3.4-7.5-7.5s3.4-7.5,7.5-7.5h333.3c4.1,0,7.5,3.4,7.5,7.5S427.7,512,423.5,512z"/>
</g>
<g>
	<path class="st6" d="M396.1,322.5c-5.3-3.1-9.6-7.2-13-12.3c-2.2-3.4-7.3-3.3-9.3,0.2c-2.8,4.9-7.2,8.9-13.1,12.1
		c-3.7,2-3.8,7.4-0.2,9.5c5.3,3.2,9.6,7.4,12.7,12.7c2,3.5,7.1,3.7,9.3,0.3c3.4-5.3,7.9-9.7,13.6-13.1
		C399.7,329.8,399.6,324.6,396.1,322.5z"/>
	<path class="st6" d="M142.1,194.2c-5.3-3.1-9.6-7.2-13-12.3c-2.2-3.4-7.3-3.3-9.3,0.2c-2.8,4.9-7.2,8.9-13.1,12.1
		c-3.7,2-3.8,7.4-0.2,9.5c5.3,3.2,9.6,7.4,12.7,12.7c2,3.5,7.1,3.7,9.3,0.3c3.4-5.3,7.9-9.7,13.6-13.1
		C145.7,201.4,145.6,196.3,142.1,194.2L142.1,194.2z"/>
</g>
</svg>
