<?xml version="1.0" encoding="utf-8"?>
<!-- Generator: Adobe Illustrator 24.0.0, SVG Export Plug-In . SVG Version: 6.00 Build 0)  -->
<svg version="1.1" id="Layer_1" xmlns="http://www.w3.org/2000/svg" xmlns:xlink="http://www.w3.org/1999/xlink" x="0px" y="0px"
	 viewBox="0 0 512 512" style="enable-background:new 0 0 512 512;" xml:space="preserve">
<style type="text/css">
	.st0{fill:#B4001E;}
</style>
<g>
	<g>
		<path class="st0" d="M143.1,45.4c-21.6,3.3-36.4,23.6-33,45.1s23.6,36.4,45.1,33c7.9-1.2,14.9-4.7,20.4-9.7
			c-2-7.2-1.9-15.1,0.7-22.7c2.3-6.6,6.2-12.2,11.1-16.5C182.4,55.2,163.4,42.3,143.1,45.4z"/>
	</g>
</g>
<g>
	<g>
		<circle class="st0" cx="382.1" cy="42.3" r="42.3"/>
	</g>
</g>
<g>
	<g>
		<path class="st0" d="M225.3,264.6l26.6,18.2c8.1,5.5,19,3.5,24.5-4.6c5.5-8,3.5-19-4.6-24.5l-61.6-42.2l19.4,80.3l-16.2-99.5
			l-4.6-29.4c-2.4-15.7-16.3-26.6-31-24.3l-35,4.7c-14.3,1.9-26,15.1-23.5,31.4c0.8,5.5,21.7,140.9,22.5,146.4v168.1
			c0,12.4,10,22.4,22.4,22.4s22.4-10,22.4-22.4V315l0,0v174.3c0,7.4,4.5,16.4,11.9,20.3c2.9,1.3,6,2.1,9.4,2.1
			c12.4,0,22.4-10,22.4-22.4l-0.8-197.5l0,0"/>
	</g>
</g>
<g>
	<g>
		<path class="st0" d="M96.9,46.8L53,22.3c-4-2.3-9.1-0.8-11.4,3.2c-2.3,4-0.8,9.1,3.2,11.4l43.9,24.5c4,2.3,9.1,0.8,11.4-3.2
			C102.3,54.2,100.9,49.1,96.9,46.8z"/>
	</g>
</g>
<g>
	<g>
		<path class="st0" d="M95.2,80.4c-0.3-4.6-4.2-8.1-8.8-7.9l-64.7,3.6c-4.6,0.3-8.1,4.2-7.9,8.8c0.3,4.5,3.9,7.9,8.3,7.9
			c0.2,0,0.3,0,0.5,0l64.7-3.6C91.9,89,95.4,85,95.2,80.4z"/>
	</g>
</g>
<g>
	<g>
		<path class="st0" d="M498.1,167.4c-0.7-5.5-3.7-10.5-8.3-13.6c-74.2-50-68.8-46.4-70.6-47.3c-4.3-3.8-9.8-6.1-15.7-6.1
			c-16.8,0-27.5,0-42.7,0c-5.1,0-9.8,1.7-13.8,4.6l-4.8,7.5l-31.7,4.6l-91.8-31.6c-10-3.4-20.9,1.9-24.4,11.9
			c-3.4,10,1.9,20.9,11.9,24.4l96.2,33.1c2.8,1,5.9,1.3,9,0.8l18.7-2.7l-2.1,15.4l0,0L298.9,328c-1.3,7,3.7,13.6,10.3,13.6
			c3.1,0,27.2,0,30.6,0v145.9c0,13.5,11,24.5,24.5,24.5s24.5-11,24.5-24.5V341.6c5,0-4.9,0,0,0v145.9c0,8.4-0.2,14.6,7.6,22.7
			c2.9,1.2,6,1.8,9.3,1.8c13.5,0,24.5-11,24.5-24.5V341.6c9.8,0,18.4,0,24.9,0c6.6,0,11.6-6.5,10.3-13.6L448,233l45.3-50.4
			C497,178.4,498.8,172.9,498.1,167.4z M439.3,185.3l-4-22l14.8,10L439.3,185.3z"/>
	</g>
</g>
<circle class="st0" cx="149.2" cy="84.4" r="39.7"/>
</svg>
