<?xml version="1.0" encoding="utf-8"?>
<!-- Generator: Adobe Illustrator 24.0.0, SVG Export Plug-In . SVG Version: 6.00 Build 0)  -->
<svg version="1.1" id="Layer_1" xmlns="http://www.w3.org/2000/svg" xmlns:xlink="http://www.w3.org/1999/xlink" x="0px" y="0px"
	 viewBox="0 0 512 512" style="enable-background:new 0 0 512 512;" xml:space="preserve">
<style type="text/css">
	.st0{fill:#FF8AD5;}
</style>
<g>
	<g>
		<circle class="st0" cx="382.1" cy="42.3" r="42.3"/>
	</g>
</g>
<g>
	<g>
		<path class="st0" d="M225.3,264.6l26.6,18.2c8.1,5.5,19,3.5,24.5-4.6c5.5-8,3.5-19-4.6-24.5l-61.6-42.2l19.4,80.3l-1.3-92.3
			l0.5-32.5c-2.4-15.7-16.3-26.6-31-24.3l-33.9,0.6c-14.3,1.9-26,15.1-23.5,31.4c0.8,5.5,0.6,140.9,1.4,146.4v168.1
			c0,12.4,10,22.4,22.4,22.4s22.4-10,22.4-22.4V315l0,0v174.3c0,7.4,4.5,16.4,11.9,20.3c2.9,1.3,6,2.1,9.4,2.1
			c12.4,0,22.4-10,22.4-22.4l-0.8-197.5l0,0"/>
	</g>
</g>
<g>
	<g>
		<path class="st0" d="M330.1,153l-2.1,15.4l0,0L298.9,328c-1.3,7,3.7,13.6,10.3,13.6c3.1,0,27.2,0,30.6,0v145.9
			c0,13.5,11,24.5,24.5,24.5s24.5-11,24.5-24.5V341.6c5,0-4.9,0,0,0v145.9c0,8.4-0.2,14.6,7.6,22.7c2.9,1.2,6,1.8,9.3,1.8
			c13.5,0,24.5-11,24.5-24.5V341.6c9.8,0,18.4,0,24.9,0c6.6,0,11.6-6.5,10.3-13.6L448,233l45.3-50.4c3.7-4.2,5.5-9.7,4.8-15.2
			c-0.7-5.5-3.7-10.5-8.3-13.6c-74.2-50-68.8-46.4-70.6-47.3c-4.3-3.8-9.8-6.1-15.7-6.1c-16.8,0-27.5,0-42.7,0
			c-5.1,0-9.8,1.7-13.8,4.6l-4.8,7.5 M439.3,185.3l-4-22l14.8,10L439.3,185.3z"/>
	</g>
</g>
<circle class="st0" cx="183.7" cy="92.7" r="39.7"/>
<g>
	<g>
		<path class="st0" d="M422,112.5l-4.8-7.5c-4-2.9-8.7-4.6-13.8-4.6c-15.2,0-25.9,0-42.7,0c-5.9,0-11.4,2.3-15.7,6.1
			c-1.8,0.9,3.6-2.7-70.6,47.3c-4.6,3.1-7.6,8.1-8.3,13.6c-0.7,5.5,1.1,11,4.8,15.2l45.3,50.4l-17.4,95c-1.3,7.1,3.7,13.6,10.3,13.6
			c6.5,0,15.1,0,24.9,0v145.9c0,13.5,11,24.5,24.5,24.5c3.3,0,6.4-0.6,9.3-1.8c7.8-8.1,7.6-14.3,7.6-22.7V341.6c4.9,0-5,0,0,0v145.9
			c0,13.5,11,24.5,24.5,24.5s24.5-11,24.5-24.5V341.6c3.4,0,27.5,0,30.6,0c6.6,0,11.6-6.6,10.3-13.6l-29.1-159.6l0,0l-2.1-15.4
			 M314.1,173.3l14.8-10l-4,22L314.1,173.3z"/>
	</g>
</g>
</svg>
