<?xml version="1.0" encoding="utf-8"?>
<!-- Generator: Adobe Illustrator 23.1.1, SVG Export Plug-In . SVG Version: 6.00 Build 0)  -->
<svg version="1.1" id="Capa_1" xmlns="http://www.w3.org/2000/svg" xmlns:xlink="http://www.w3.org/1999/xlink" x="0px" y="0px"
	 viewBox="0 0 512 512" style="enable-background:new 0 0 512 512;" xml:space="preserve">
<style type="text/css">
	.st0{fill:#1F6C8C;}
	.st1{fill:#176177;}
	.st2{fill:#6C7175;}
	.st3{fill:#FBB540;}
	.st4{fill:#D68F29;}
	.st5{fill:#62666A;}
	.st6{fill:#3B869E;}
	.st7{fill:#B47923;}
</style>
<polyline class="st0" points="198.6,252.5 17,282.5 8.8,230.1 503.9,146.3 512,198.6 317.8,233.9 "/>
<polygon class="st1" points="13.1,257.6 17,282.5 198.6,252.5 317.8,233.9 512,198.6 507.6,170.1 "/>
<g>
	<polygon class="st2" points="455.3,178.4 449.7,156.7 441.6,121.2 436.6,104 453.5,99 458.7,116.7 466.9,152.5 472.4,174 	"/>
	<polygon class="st2" points="49,245 35.6,191.9 27.4,168.9 44,163 52.5,186.8 66.1,240.5 	"/>
</g>
<polygon class="st0" points="503.9,146.3 8.8,230.1 13.1,257.6 507.6,170.1 "/>
<path class="st3" d="M339.9,392.8v10.5H181v-10.5l17.7-141.2c0-34.1,27.7-61.8,61.8-61.8l0,0c34.1,0,61.8,27.7,61.8,61.8
	L339.9,392.8z"/>
<g>
	<path class="st4" d="M359.7,438.6H165.4c-14.6,0-26.5-8.5-26.5-18.9v-6.3c0-10.5,11.9-18.9,26.5-18.9h194.2
		c14.6,0,26.5,8.5,26.5,18.9v6.3C386.1,430.2,368.7,438.6,359.7,438.6z"/>
	<polygon class="st4" points="184.1,367.6 181,394.5 339.9,394.5 336.8,368 	"/>
</g>
<path class="st3" d="M139,413.4v6.3c0,0.4,0.1,0.8,0.2,1.3h246.7c0.1-0.4,0.3-0.8,0.3-1.3v-6.3c0-10.5-11.9-18.9-26.5-18.9H165.4
	C150.8,394.5,139,403,139,413.4z"/>
<g>
	<polygon class="st5" points="52.5,186.8 44,163 27.4,168.9 35.6,191.9 38.9,205 56.2,201.5 	"/>
	<polygon class="st5" points="458.7,116.7 453.5,99 436.6,104 441.6,121.2 444.6,134.4 462,130.9 	"/>
</g>
<g>
	<polygon class="st6" points="494.3,110.3 414.9,128 406.1,92.7 485.5,75 	"/>
	<polygon class="st6" points="88.3,181 8.8,198.6 0,163.3 79.4,145.7 	"/>
</g>
<circle class="st7" cx="262.5" cy="251.6" r="17.7"/>
<path class="st4" d="M250.1,239.1c-2.3,2.3-3.8,5.1-4.5,8.1c2,7.6,8.8,13.2,17,13.2s15.1-5.6,17-13.2c-0.8-3-2.2-5.8-4.5-8.1
	C268.1,232.2,257,232.2,250.1,239.1z"/>
</svg>
