<?xml version="1.0" encoding="utf-8"?>
<!-- Generator: Adobe Illustrator 23.1.1, SVG Export Plug-In . SVG Version: 6.00 Build 0)  -->
<svg version="1.1" id="Layer_1" xmlns="http://www.w3.org/2000/svg" xmlns:xlink="http://www.w3.org/1999/xlink" x="0px" y="0px"
	 viewBox="0 0 512 512" style="enable-background:new 0 0 512 512;" xml:space="preserve">
<style type="text/css">
	.st0{fill:#465A61;}
	.st1{fill:#3B4A51;}
	.st2{fill:#6297D0;}
	.st3{fill:#3E5FAC;}
	.st4{fill:#C6E2E7;}
</style>
<path class="st0" d="M75,512c-3.8,0-7.7-1.5-10.6-4.4c-5.9-5.9-5.9-15.4,0-21.2l30-30c5.9-5.9,15.4-5.9,21.2,0s5.9,15.4,0,21.2
	l-30,30C82.7,510.5,78.8,512,75,512z"/>
<path class="st1" d="M437,512c-3.8,0-7.7-1.5-10.6-4.4l-30-30c-5.9-5.9-5.9-15.4,0-21.2s15.4-5.9,21.2,0l30,30
	c5.9,5.9,5.9,15.4,0,21.2C444.7,510.5,440.8,512,437,512z"/>
<path class="st0" d="M326.5,25.5l-90,90c-2.7,3-6.6,4.5-10.5,4.5s-7.8-1.5-10.5-4.5l-90-90c-6-5.7-6-15.3,0-21c5.7-6,15.3-6,21,0
	L226,83.7c0,0,0,0,0.3-0.3l79.2-78.9c5.7-6,15.3-6,21,0C332.5,10.2,332.5,19.8,326.5,25.5z"/>
<path class="st1" d="M236.5,115.5c-2.7,3-6.6,4.5-10.5,4.5V83.7c0,0,0,0,0.3-0.3l79.2-78.9c5.7-6,15.3-6,21,0c6,5.7,6,15.3,0,21
	L236.5,115.5z"/>
<path class="st2" d="M105,422c-24.9,0-45-20.1-45-45V195c0-24.9,20.1-45,45-45h121V90H45c-24.9,0-45,20.1-45,45v302
	c0,24.9,20.1,45,45,45h181v-60H105z"/>
<path class="st3" d="M467,90H226v60h91c24.9,0,45,20.1,45,45v182c0,24.9-20.1,45-45,45h-91v60h241c24.9,0,45-20.1,45-45V135
	C512,110.1,491.9,90,467,90z"/>
<path class="st4" d="M439.8,225c-16.5,0-30-13.5-30-30s13.5-30,30-30s30,13.5,30,30S456.3,225,439.8,225z"/>
<g>
	<path class="st0" d="M454.8,285h-30c-8.3,0-15-6.7-15-15c0-8.3,6.7-15,15-15h30c8.3,0,15,6.7,15,15
		C469.8,278.3,463.1,285,454.8,285z"/>
	<path class="st0" d="M454.8,347h-30c-8.3,0-15-6.7-15-15c0-8.3,6.7-15,15-15h30c8.3,0,15,6.7,15,15
		C469.8,340.3,463.1,347,454.8,347z"/>
	<path class="st0" d="M454.8,407h-30c-8.3,0-15-6.7-15-15c0-8.3,6.7-15,15-15h30c8.3,0,15,6.7,15,15
		C469.8,400.3,463.1,407,454.8,407z"/>
</g>
</svg>
