<?xml version="1.0" encoding="utf-8"?>
<!-- Generator: Adobe Illustrator 23.1.1, SVG Export Plug-In . SVG Version: 6.00 Build 0)  -->
<svg version="1.1" id="Layer_1" xmlns="http://www.w3.org/2000/svg" xmlns:xlink="http://www.w3.org/1999/xlink" x="0px" y="0px"
	 viewBox="0 0 529.4 787.8" style="enable-background:new 0 0 529.4 787.8;" xml:space="preserve">
<style type="text/css">
	.st0{fill:#333333;}
	.st1{fill:#4D4D4D;}
	.st2{fill:#CCCCCC;}
	.st3{fill:#FBB03B;}
	.st4{fill:none;stroke:#FBB03B;stroke-width:5.3909;stroke-linecap:round;stroke-miterlimit:10;}
</style>
<g>
	<path class="st0" d="M18.8,733.7l271.1-512.6l47.6,25.2L66.4,758.9C59.5,772,43.1,777,30,770.1l0,0
		C16.9,763.2,11.9,746.8,18.8,733.7z"/>
	<path class="st1" d="M36.5,700.3l271.1-512.6l47.6,25.2L84.1,725.5c-6.9,13.1-23.3,18.2-36.4,11.2l0,0
		C34.5,729.8,29.5,713.4,36.5,700.3z"/>
	
		<rect x="188.3" y="259.5" transform="matrix(0.4675 -0.884 0.884 0.4675 -101.0512 405.188)" class="st2" width="194.9" height="53.9"/>
	<path class="st3" d="M399.4,89.1l-9.9,56.8c-0.7,3.7,1.2,7.3,4.4,9l51,27c7.3,3.9,5.4,14.9-2.8,16l-57.1,8.2
		c-3.7,0.6-6.6,3.4-7.2,7l-9.9,56.8c-1.5,8.2-12.5,9.8-16.1,2.4l-25.4-51.8c-1.7-3.4-5.2-5.2-8.9-4.7l-57.1,8.2
		c-8.1,1.1-13.1-8.8-7.1-14.6l41.4-40.2c2.7-2.6,3.4-6.6,1.7-10L271,107.5c-3.7-7.5,4.3-15.2,11.7-11.3l51,27
		c3.3,1.7,7.3,1.2,9.9-1.4L385,81.5C390.9,75.7,400.8,80.9,399.4,89.1z"/>
	<line class="st4" x1="500.3" y1="106.3" x2="433.3" y2="131.8"/>
	<line class="st4" x1="450.9" y1="297.7" x2="409.6" y2="242.8"/>
	<line class="st4" x1="314" y1="7.8" x2="330.6" y2="77.5"/>
	<line class="st4" x1="183.6" y1="156.4" x2="252.2" y2="159.6"/>
	<line class="st4" x1="512.9" y1="223.7" x2="477.1" y2="204.8"/>
	<line class="st4" x1="430.7" y1="12.5" x2="411.7" y2="48.4"/>
	<line class="st4" x1="208.3" y1="66.1" x2="244.2" y2="85.1"/>
</g>
</svg>
